<svg xmlns="http://www.w3.org/2000/svg" xmlns:xlink="http://www.w3.org/1999/xlink" width="512" height="512" onload="init()" id="2fAfrtoN4mn2hMbLj"><script type="application/javascript"> <![CDATA[ 
function init(){}
 ]]> </script><g id="viewport" transform="matrix(0.5 0 0 0.5 0 0)"><g id="dbdMo4XBg5M3naqtM" type="layer"><title>dbdMo4XBg5M3naqtM</title><path d="M0 102C0 46.575340270996094 46.575340270996094 0 102 0L922 0C977.4246826171875 0 1024 46.575340270996094 1024 102L1024 922C1024 977.4246826171875 977.4246826171875 1024 922 1024L102 1024C46.575340270996094 1024 0 977.4246826171875 0 922L0 102Z" name="undefined" id="ekM8nQFDYTiyWymNE" type="complex_path" stroke="#null" stroke-width="0" stroke-opacity="1" fill="#f7df1e" fill-opacity="1" opacity="1"/><path d="M263.51722134177254,917.7173124609421 209.16263760153817,308.06649458984765 806.4204043251709,308.06649458984765 752.0096377236085,917.6188627539109 507.4261111122804,985.4266020117229Z" id="WaQ29CKGvTrJPQcx5" type="simple_path" name="undefined" stroke="#000000" stroke-width="0" stroke-opacity="1" fill="#efc725" fill-opacity="1" stroke-linejoin="miter" stroke-linecap="butt" opacity="1"/><path d="M520.7166748046875,658.9256591796875 520.7166748046875,584.156494140625 428.645263671875,584.156494140625 439.4418640136719,466.8092346191406 520.9235229492188,464.63868713378906 520.7166748046875,386.8856964111328 371.8410339355469,386.8856964111328 366.3111877441406,442.00128173828125 348.7378234863281,638.848388671875 346.91461181640625,658.9256591796875 367.0641784667969,658.9256591796875Z" id="4dZPhzoaLrJegBMsk" type="simple_path" name="undefined" stroke="#null" stroke-width="1" stroke-opacity="1" fill="#ebebeb" fill-opacity="1" stroke-linejoin="miter" stroke-linecap="butt" opacity="1"/><path d="M473.3974304199219,37.10300827026367 473.3974304199219,297.9410400390625 263.5780029296875,297.9410400390625 263.5780029296875,211.72457885742188 386.1856994628906,211.72457885742188 386.1856994628906,37.1030387878418 473.38812255859375,37.1030387878418 473.3974304199219,37.1030387878418 473.3974304199219,37.10302734375" id="3bELs74Cm4ABGjjZa" type="simple_path" name="undefined" stroke="#null" stroke-width="1" stroke-opacity="1" fill="#ffffff" fill-opacity="1" stroke-linejoin="miter" stroke-linecap="butt" opacity="1"/><path d="M510.7593994140625,933.7103271484375 708.3955688476562,878.920166015625 754.8951416015625,358.0298156738281 510.7593994140625,358.0298156738281Z" id="rZffzFuv2RJsKMmHC" type="simple_path" name="undefined" stroke="#000000" stroke-width="0" stroke-opacity="1" fill="#fbde34" fill-opacity="1" stroke-linejoin="miter" stroke-linecap="butt" opacity="1"/><path d="M510.6448974609375,778.3751831054688 510.31964111328125,778.4695434570312 427.04693603515625,755.978759765625 421.7199401855469,696.3493957519531 381.2601623535156,696.3493957519531 346.6656494140625,696.3493957519531 357.1410217285156,813.7488403320312 510.2995910644531,856.2687377929688 510.6448974609375,856.1703491210938Z" id="EawnvhEjdDdL4W8vZ" type="simple_path" name="undefined" stroke="#null" stroke-width="1" stroke-opacity="1" fill="#ebebeb" fill-opacity="1" stroke-linejoin="miter" stroke-linecap="butt" opacity="1"/><path d="M754.3006894392386,108.60919189453125 640.5569150251761,108.60919189453125 758.8478085798636,236.96200561523438 758.8478085798636,298.05169677734375 515.2125546736136,298.05169677734375 515.2125546736136,226.52230834960938 633.4758603376761,226.52230834960938 515.2125546736136,98.17427062988281 515.2125546736136,36.98797607421875 754.3006894392386,36.98797607421875 754.3006894392386,108.60919189453125Z" id="8eJMqSo7PkDai2xMB" type="simple_path" name="undefined" stroke="#null" stroke-width="1" stroke-opacity="1" fill="#ffffff" fill-opacity="1" stroke-linejoin="miter" stroke-linecap="butt" opacity="1"/><path d="M520.2107238769531,464.7430877685547 520.5379638671875,464.6506805419922 602.2023315429688,469.568115234375 609.1317749023438,546.7668762207031 649.5934448242188,546.7668762207031 684.1900634765625,546.7668762207031 671.1104125976562,402.30458068847656 520.5560607910156,386.85157775878906 520.2107238769531,386.9479522705078Z" id="teztpvFNoGhHZis7a" type="simple_path" name="undefined" stroke="#null" stroke-width="1" stroke-opacity="1" fill="#ffffff" fill-opacity="1" stroke-linejoin="miter" stroke-linecap="butt" opacity="1"/><path d="M676.4816284179688,464.9719543457031 670.0743408203125,386.8856964111328 512.2453002929688,386.8856964111328 512.2453002929688,435.3811950683594 512.2453002929688,464.77720642089844 512.2453002929688,464.9719543457031 676.4816284179688,464.9719543457031" id="xP6JsWSXSiQZzGKXj" type="simple_path" name="undefined" stroke="#null" stroke-width="1" stroke-opacity="1" fill="#ffffff" fill-opacity="1" stroke-linejoin="miter" stroke-linecap="butt" opacity="1"/><path d="M510.3858947753906,584.1926574707031 510.3858947753906,658.9598388671875 602.4573974609375,658.9598388671875 593.7791137695312,755.9286499023438 510.3858947753906,778.4414672851562 510.3858947753906,856.2325439453125 663.6710205078125,813.7488403320312 664.7935180664062,801.1170043945312 682.3668212890625,604.2698364257812 684.1900634765625,584.1926574707031 664.04052734375,584.1926574707031Z" id="Cg7nhNLjG2hsN7S2n" type="simple_path" name="undefined" stroke="#null" stroke-width="1" stroke-opacity="1" fill="#ffffff" fill-opacity="1" stroke-linejoin="miter" stroke-linecap="butt" opacity="1"/><path d="M666.8756713867188,461.6589050292969" id="Xwg6S37pMQi6F7m2K" type="simple_path" name="undefined" stroke="#null" stroke-width="1" stroke-opacity="1" fill="#ffffff" fill-opacity="1" stroke-linejoin="miter" stroke-linecap="butt" opacity="1"/><path d="M665.8917236328125,461.6589050292969" id="JtW5x9ALsgwmEmbNe" type="simple_path" name="undefined" stroke="#null" stroke-width="1" stroke-opacity="1" fill="#ffffff" fill-opacity="1" stroke-linejoin="miter" stroke-linecap="butt" opacity="1"/></g></g></svg>