<svg xmlns="http://www.w3.org/2000/svg" xmlns:xlink="http://www.w3.org/1999/xlink" width="72.4" height="51.2" onload="init()" id="8F8xZdTH3cR3sCkC7"><script type="application/javascript"> <![CDATA[ 
function init(){}
 ]]> </script><g id="viewport" transform="matrix(0.05 0 0 0.05 0 0)"><g id="6dDToiFmW67QuECBp" type="layer"><title>6dDToiFmW67QuECBp</title><path d="M445.5,330.5 445.5,636.5" id="W6GHBmPMrpKYT7y6F" type="simple_path" name="undefined" stroke="#black" stroke-width="2" stroke-opacity="1" fill="#null" fill-opacity="1" stroke-linejoin="miter" stroke-linecap="butt" opacity="1"/><path d="M-3.406700372695923,733.6544799804688 1448.4989013671875,733.6544799804688 1448.4989013671875,1027.059326171875 -3.406700372695923,1027.059326171875 -3.406700372695923,733.6544799804688Z" id="HTG8CNwcfb2HEtjkr" type="simple_path" name="http://lore-mbp.local:3000/icons/black_kitty_1024x1024.jpg" stroke="#000000" stroke-width="0" stroke-opacity="1" fill="#bec8c2" fill-opacity="1" stroke-linejoin="miter" stroke-linecap="butt" opacity="1"/><path d="M824.2508544921875,190.41151428222656Z" id="r5B4cbmxMXwAB3Rir" type="simple_path" name="http://lore-mbp.local:3000/icons/black_kitty_1024x1024.jpg" stroke="#000000" stroke-width="0" stroke-opacity="1" fill="#000000" fill-opacity="1" stroke-linejoin="miter" stroke-linecap="butt" opacity="1"/><path d="M-22.099220275878906 739.5087890625C7.647547721862793 720.63427734375 73.17505645751953 611.3350219726562 146.9991912841797 603.2539672851562C218.8744354248047 593.530029296875 310.82916259765625 537.8560180664062 421.4276123046875 535.4129028320312C627.4219970703125 534.97900390625 767.5729370117188 709.3837890625 895.7718505859375 741.2420654296875" name="http://lore-mbp.local:3000/icons/black_kitty_1024x1024.jpg" id="sNefoSxmB64kaZddK" type="complex_path" stroke="#568756" stroke-width="21" stroke-opacity="0.5718542851742016" fill="#bec8c2" fill-opacity="1" stroke-linejoin="miter" stroke-linecap="round" opacity="1"/><path d="M1175.4912109375,821.0830078125Z" id="SWEohYuFMjpeE3ac5" type="simple_path" name="http://lore-mbp.local:3000/icons/black_kitty_1024x1024.jpg" stroke="#000000" stroke-width="0" stroke-opacity="1" fill="#000000" fill-opacity="1" stroke-linejoin="miter" stroke-linecap="butt" opacity="1"/><path d="M445.5,330.5 445.5,636.5" id="wEFxuDvWDrjt3cG3q" type="simple_path" name="undefined" stroke="#black" stroke-width="2" stroke-opacity="1" fill="#null" fill-opacity="1" stroke-linejoin="miter" stroke-linecap="butt" opacity="1"/><path d="M445.5,330.5 445.5,636.5" id="k7NXHnM7QWucnkBJm" type="simple_path" name="undefined" stroke="#black" stroke-width="2" stroke-opacity="1" fill="#null" fill-opacity="1" stroke-linejoin="miter" stroke-linecap="butt" opacity="1"/><path d="M1179.025996895041,21.181425154713082 1180.6757771684786,21.44354826262324 1182.0632283403536,21.824487746265817 1183.6372029497286,22.459381163624215 1184.819942207541,23.090173781422067 1186.198360176291,24.036388457325387 1187.608028145041,25.408578932789254 1189.2800252153536,27.722841322925973 1190.164668770041,29.688989699390817 1190.546992988791,31.42567831328242 1190.667110176291,32.5193749075207 1190.6359822466036,75.8845978384289 1190.4091756059786,77.49425512602656 1189.9245564653536,79.0630646353039 1189.182002754416,80.57448583891718 1188.0747029497286,82.09427648833125 1186.0427205278536,84.07261663725703 1184.1530720903536,85.30960089018672 1182.271846504416,86.09191137602656 1180.849239082541,86.49752813628047 1177.798946113791,86.91120153715937 1108.396602363791,86.89888769438593 1106.9470174028536,86.73507696440547 1104.070186348166,86.07566839506953 1102.1225545122286,85.26869970610468 1100.579707832541,84.29381567290156 1099.396846504416,83.31066137602656 1098.258662910666,82.07376104643672 1097.4316365434786,80.89810186674922 1096.711055488791,79.52182012846797 1096.226436348166,78.18241125395625 1095.7905232622286,75.59786993315547 1095.7905232622286,31.966381133106637 1096.053096504416,30.377134383228707 1096.488887520041,28.99262815764277 1097.1779744341036,27.542631209400582 1097.871700020041,26.44489294340937 1098.9033162309786,25.175071776417184 1100.072627754416,24.089637816456246 1101.455684395041,23.118873656299996 1103.1896931841036,22.27507215788691 1106.0888631059786,21.382118285206246 1107.992061348166,21.095396101978707ZM1107.987666816916,32.45787817290156 1107.8986775591036,32.56440359404414 1107.8054158403536,32.75691610625117 1107.729854316916,33.21977239897578 1107.7963826372286,75.04899603178828 1107.8630330278536,75.36431890776484 1107.907588691916,75.45437628081172 1108.0319783403536,75.58547979643672 1109.130489082541,75.83948522856562 1177.274043770041,75.85173040678828 1178.012080879416,75.73291021635859 1178.1279256059786,75.68376165678828 1178.6259724809786,75.20045477202265 1178.6791951372286,74.80729681303828 1178.6616170122286,33.072330534962106 1178.6347615434786,32.949432433155465 1178.190059395041,32.33910375883906 1178.185664863791,32.335025847462106 1177.909785957541,32.22441488554804 1177.505489082541,32.15888601591914 1108.9658162309786,32.15481191923945ZM1224.3664509966036,201.98001104643672 1225.5649373247286,203.25555425932734 1226.3369099809786,204.48101812651484 1226.9145466997286,206.06399542143672 1227.1223103716036,207.4001465444836 1227.054317207541,209.15904241850703 1226.3896443559786,211.3419190054211 1224.590694160666,214.58584600737422 1222.548213691916,217.00906378081172 1220.360957832541,218.90003973296015 1218.8676716997286,220.01632696440547 1155.0483357622286,261.3003082876477 1152.4626424028536,262.6926727896008 1149.689326973166,263.8849030142102 1146.7534138872286,264.8635712271008 1143.454219551291,265.62214666655393 1138.5930134966036,266.2429352407727 1134.9584920122286,266.24620062163206 1132.0021931841036,265.82185369780393 1130.0390584184786,265.32344061186643 1126.501338691916,263.8208466177258 1059.8754841997286,220.65695196440547 1058.7246052934786,219.6002960806164 1056.9313924028536,217.18327337553828 1056.2480427934786,215.20423895171015 1056.200557441916,213.31643682768672 1056.511348457541,211.6444092397961 1057.2373006059786,209.75904852202265 1058.1726033403536,208.12428289702265 1059.5051228716036,206.36598211577265 1061.0100056841036,204.78935247710078 1064.393428535666,202.05599981596797 1128.5742146684786,160.49981695463984 1131.1643025591036,159.1494141226086 1133.619014473166,158.1017609243664 1136.413692207541,157.14915472319453 1138.694453926291,156.53477484038203 1141.5532185747286,155.96658331206172 1144.2729451372286,155.66006475737422 1147.0285603716036,155.59532171538203 1149.9350545122286,155.87001043608515 1154.0327107622286,156.82191473296015 1156.2817341997286,157.73234564116328ZM1139.5637166216036,168.55142217924922 1139.321407051291,168.59774786284297 1138.9484822466036,168.7230988149914 1138.1953084184786,169.11674505522578 1076.7297322466036,208.99783331206172 1076.3298299028536,209.3393097524914 1076.239619941916,209.4532013540539 1076.166621895041,209.65617376616328 1076.847530098166,210.58074957182734 1142.2658650591036,252.96134954741328 1143.1491658403536,253.30638128569453 1143.332149238791,253.3318634634289 1144.521846504416,253.1807404165539 1145.1513631059786,252.84010320952265 1206.5251424028536,213.0792236929211 1206.6801716997286,212.94523626616328 1207.1511189653536,212.08688360503047 1207.1530720903536,212.08087164213984 1207.0507771684786,211.80374151518672 1206.7587849809786,211.49029547026484 1140.9484822466036,168.8714600210461ZM1137.0981404497286,86.14276891997187 1149.5773884966036,86.14276891997187 1149.5773884966036,165.37802130034297 1137.0981404497286,165.37802130034297 1137.0981404497286,86.14276891997187ZM1000.2543904497286,207.04234319975703 1012.7336384966036,207.04234319975703 1012.7336384966036,282.40864568999143 1000.2543904497286,282.40864568999143 1000.2543904497286,207.04234319975703ZM1000.6047932817598,206.39688116362422 1064.5310017778536,206.39688116362422 1064.5310017778536,217.92950445463984 1000.6047932817598,217.92950445463984 1000.6047932817598,206.39688116362422ZM1032.2307088091036,277.31919866850706 1032.0964314653536,277.93943792631956 1031.868282051291,278.53538519194456 1031.619258613791,278.9902802114758 1011.5474202348848,311.01573187163206 1011.1633870317598,311.53941351225706 1010.7028157426973,312.0084686880383 1010.1756550981661,312.41169744780393 1009.5913655473848,312.74299627592893 1008.9622761919161,312.99583441069456 1008.3012044145723,313.16426092436643 1007.6206624223848,313.24436956694456 1006.9348103716036,313.2357330923352 1006.2574422075411,313.13780218413206 1005.6010701372286,312.9531403188977 1004.9798543169161,312.6853485708508 1004.4055745317598,312.3396149282727 1003.8907429887911,311.9220429067883 1003.4440877153536,311.44245916655393 1003.1406819536348,311.01573187163206 983.0683552934786,278.9902802114758 982.7677571489473,278.42234808256956 982.5577351762911,277.82090765288206 982.4415852739473,277.1978912954602 982.4222371294161,276.56602484038206 982.4993855669161,275.9381561880383 982.6722981645723,275.32652288725706 982.9367024614473,274.7438202505383 983.2875935747286,274.20112615874143 983.7182576372286,273.7091522817883 984.2200276567598,273.27815252592893 984.7826497270723,272.9164276724133 985.3951375200411,272.6313629751477 986.0446126176973,272.4292145376477 986.7192341997286,272.3124237661633 987.2716023637911,272.2839813833508 1027.4160115434786,272.2839813833508 1028.1003377153536,272.32856756499143 1028.770625801291,272.4615631704602 1029.414180488791,272.6805878286633 1030.018184395041,272.9802399282727 1030.5693318559786,273.3560944204602 1031.0583455278536,273.7993317251477 1031.474239082541,274.30207830717893 1031.808955879416,274.8539276724133 1032.0561482622286,275.4432526235852 1032.2104451372286,276.05891424467893 1032.269160957541,276.6888886099133ZM1218.2944295122286,203.49551397612422 1282.2206990434786,203.49551397612422 1282.2206990434786,215.02813726713984 1218.2944295122286,215.02813726713984 1218.2944295122286,203.49551397612422ZM1284.367305488791,186.28630071928828 1285.0402791216036,186.41012579253047 1285.687373848166,186.62045294096797 1286.1811482622286,186.84953314116328 1320.947383613791,205.33934027006953 1321.515742988791,205.69308477690547 1322.024287910666,206.1173096304211 1322.462764473166,206.60299688628047 1322.8225056841036,207.14137274077265 1323.0966756059786,207.72067266753047 1323.279170723166,208.32957464506953 1323.3664509966036,208.95671087553828 1323.356563301291,209.58824163725703 1323.250606270041,210.21270757963984 1323.050410957541,210.81700140288203 1322.759639473166,211.38929754546015 1322.384151191916,211.91842657378047 1321.9313924028536,212.39247137358515 1321.4099080278536,212.8038330679211 1320.947383613791,213.08329778960078 1286.1811482622286,231.57362371733515 1285.564326973166,231.85061651518672 1284.911739082541,232.0438995962414 1284.2353474809786,232.15109258940547 1283.549678535666,232.1687012319836 1282.8679158403536,232.0977783804211 1282.204219551291,231.93878179838984 1281.5712849809786,231.69483953764765 1280.9816853716036,231.37167364409297 1280.448116035666,230.97499090483515 1279.9802205278536,230.51287847807734 1279.587520332541,229.99453741362422 1279.278438301291,229.4304962759289 1279.0581013872286,228.8321533804211 1278.9318806841036,228.2105255728039 1278.900508613791,227.7017365103039 1278.900508613791,190.72146612456172 1278.949336738791,190.09121710112422 1279.093867988791,189.47367864897578 1279.331416816916,188.88078314116328 1279.6569783403536,188.32476812651484 1280.065059395041,187.8167267446789 1280.5463826372286,187.36654669096797 1281.0913045122286,186.98318487456172 1281.690547676291,186.67483526518672 1282.3300740434786,186.44717413237422 1282.9985310747286,186.30491644194453 1283.682246895041,186.2509308462414Z" id="hemcfoe3BGxtAEim7" type="simple_path" name="undefined" stroke="#000000" stroke-width="0" stroke-opacity="1" fill="#000000" fill-opacity="1" stroke-linejoin="miter" stroke-linecap="butt" opacity="1"/><text xml:space="preserve" id="LvQJTEgxjN8KzpWse" x="751.7913214889887" y="456.501671441088" stroke="#7f7f7f" stroke-width="0" stroke-opacity="1" fill="#000000" fill-opacity="1" stroke-linejoin="round" stroke-linecap="round" opacity="1" font-size="41" font-family="Sans-serif" font-weight="bold" text-anchor="middle"><tspan dy="52.07" x="751.7913214889887">We run on technical hay the sort of: UML and API specs creation</tspan></text><path d="M267.5274065209753 80.54872063468918C267.5274065209753 53.18207863639816 298.87268239988157 31.01511315177902 337.5708635522253 31.01511315177902C376.2690752221472 31.01511315177902 407.61447317136594 53.18207863639816 407.61447317136594 80.54872063468918C407.61447317136594 107.91532067131027 376.2690752221472 130.08230522941574 337.5708635522253 130.08230522941574C298.87268239988157 130.08230522941574 267.5274065209753 107.91532067131027 267.5274065209753 80.54872063468918ZM186.48780996335813 76.00593499015793L277.25219900144407 76.00593499015793L277.25219900144407 86.09944084953293L186.48780996335813 86.09944084953293L186.48780996335813 76.00593499015793ZM180.70213491453 88.6795876390837L180.70213491453 93.0142281420134L99.8096788598425 93.0142281420134L99.8096788598425 88.6795876390837L180.70213491453 88.6795876390837ZM138.4890459252722 63.45408562492355L142.18300039304563 63.45408562492355L142.18300039304563 119.20088890861496L138.4890459252722 119.20088890861496L138.4890459252722 63.45408562492355ZM139.51985342038938 116.27889946769699L142.1318681908972 118.89084557365402L102.71300680173704 158.30979851554855L100.10095388425657 155.6977227098845L139.51985342038938 116.27889946769699ZM181.05151540769407 156.33831719230636L178.4395616723425 158.9504082567595L139.02064687742063 119.53155449699386L141.63269216550657 116.9194786913298L181.05151540769407 156.33831719230636ZM123.59413320554563 55.40291909049972L125.31886465085813 48.06053856681808L130.08352071775266 42.140727318038785L136.8695924950964 38.964309013595425L144.52203542722532 39.10868004631027L151.16349966062376 42.718295372238L155.63949758542844 48.7824051744841L157.08334524167844 56.14600685905441L155.06181509031126 63.50961235832199L150.00856191648313 69.14048699211105L142.93380910886594 71.88384178947433L135.4257143212683 71.45069817375168L128.928453273905 67.69673088859543L124.74132711423704 61.34377602409347L123.59413320554563 55.40291909049972ZM165.67634756101438 224.4790032274626C165.67634756101438 197.0953820116423 197.04121572507688 174.91468743156418 235.76338369382688 174.91468743156418C274.4856584741003 174.91468743156418 305.85031301511594 197.0953820116423 305.85031301511594 224.4790032274626C305.85031301511594 251.86256340812668 274.4856584741003 274.0433495409392 235.76338369382688 274.0433495409392C197.04121572507688 274.0433495409392 165.67634756101438 251.86256340812668 165.67634756101438 224.4790032274626ZM317.6742265893347 242.54426506828293C317.6742265893347 215.16067437004074 349.0389726830847 192.97991875480636 387.76120168699094 192.97991875480636C426.48340017331907 192.97991875480636 457.8481767846472 215.16067437004074 457.8481767846472 242.54426506828293C457.8481767846472 269.9278710253142 426.48340017331907 292.10862664054855 387.76120168699094 292.10862664054855C349.0389726830847 292.10862664054855 317.6742265893347 269.9278710253142 317.6742265893347 242.54426506828293ZM385.67074758542844 206.99896172355636L360.6216448022253 147.7904503710173L369.9174211694128 143.85769585441574L394.9665849877722 203.0661309130095L385.67074758542844 206.99896172355636ZM351.7933977319128 161.4263146288298L351.7165849877722 160.92254570793136L351.7118242455847 160.41287163566574L351.76059133542844 160.0044396288298L356.95251638425657 130.63886956047043L357.07629568113157 130.14497307609543L357.26864797605344 129.67288140129074L357.5259111596472 129.2336113817595L357.84240896238157 128.8343499071501L358.2120989037878 128.48252800773605L358.6272600366003 128.18731621574386L359.08032400144407 127.95422295402511L359.5614641381628 127.78686455558761L360.0608537866003 127.68829277824386L360.57019216550657 127.6617882616423L361.07785207761594 127.70765618156418L361.5741289330847 127.82400444816574L362.0482500268347 128.00962761711105L362.49264699949094 128.2601311571501L362.8214739037878 128.50584343742355L385.6569231225378 147.6855461962126L386.02328664792844 148.04014519523605L386.3359697533972 148.44216851066574L386.58838064206907 148.88494805168136L386.77636892331907 149.35865715812668L386.8946855737097 149.85450676750168L386.9425676537878 150.3618615038298L386.9188554955847 150.87074211906418L386.82348806394407 151.370940483322L386.6580217553503 151.8533165819548L386.4265459252722 152.30723503898605L386.1333330346472 152.72393730949386L385.78427297605344 153.09547356437668L385.3866289330847 153.41368035148605L384.94772512449094 153.67286614250168L384.56979543699094 153.83511284660324L356.54248220456907 164.02146843742355L356.0521562768347 164.16119316886886L355.5476396752722 164.23001030754074L355.03793508542844 164.2280724413298L354.53378469480344 164.15364006828293L354.0451067162878 164.00843743156418L353.5816057397253 163.7967522509001L353.1534746362097 163.52131584953293L352.76770193113157 163.18812493156418L352.43249685300657 162.80427483390793L352.1554582787878 162.37690666984543L351.94052297605344 161.9142754442595L351.7933977319128 161.42634514640793ZM270.4269121362097 132.508635795822L270.8396318627722 132.20986870597824L271.2912004662878 131.97283867668136L271.6762102319128 131.82957390617355L300.1689775658972 123.02664116691574L300.66443044675657 122.91149071525558L301.17248708738157 122.86675194572433L301.68103200925657 122.8944542772673L302.1808489037878 122.99339989494308L302.6619280053503 123.16159752677902L303.1146867944128 123.39587334465011L303.5290849877722 123.6926491625212L303.89779836667844 124.04405144523605L304.2135637475378 124.44332817863449L304.47009450925657 124.88418511222824L304.66113454831907 125.35670403312668L304.7842119408972 125.85093621086105L304.8364885522253 126.3578560717009L304.81674367917844 126.86753777336105L304.7482317162878 127.27239922355636L298.12500173581907 156.34878472160324L297.97702199949094 156.8370812303923L297.76205617917844 157.29852227043136L297.48349172605344 157.72549370597824L297.14782888425657 158.1089318163298L296.7612932397253 158.44139031242355L296.3323076440222 158.71563652824386L295.8681963158972 158.92689446281418L295.3799150658972 159.07058647941574L294.8753069116003 159.14419487785324L294.3656328393347 159.14536980461105L293.8609941674597 159.07493523429855L293.37109548581907 158.93443230461105L292.9061601830847 158.72627190422043L292.47522146238157 158.45400933097824L292.15829641355344 158.1924279100798L270.28918630613157 137.9186241991423L269.9409502221472 137.5462639696501L269.64856130613157 137.1287835009001L269.41781789792844 136.6744377977751L269.2532365991003 136.1921074755095L269.1589678002722 135.69146660636886L269.13562185300657 135.1825402147673L269.1847551537878 134.67561272453293L269.3050859643347 134.17982415031418L269.4933489037878 133.70649651359543L269.7466448022253 133.26451042961105L270.0601213647253 132.86241082023605L270.4269121362097 132.508635795822ZM246.54313833249876 184.78864983390793L287.61023122800657 135.3256523973845L295.37606985105344 141.773284233322L254.30885488523313 191.23628166984543L246.54315359128782 184.78864983390793Z" name="undefined" id="N69u7QFD4oRdEJoRZ" type="complex_path" stroke="#000000" stroke-width="0" stroke-opacity="1" fill="#000000" fill-opacity="1" stroke-linejoin="miter" stroke-linecap="butt" opacity="1"/><path d="M273.0798034667969 751.1793823242188C302.8265686035156 732.3048706054688 389.833984375 711.1163940429688 439.8169860839844 647.982177734375C490.4836730957031 589.5089111328125 606.0081787109375 549.526611328125 716.6066284179688 547.08349609375C922.6010131835938 546.6495971679688 1062.751953125 721.0543823242188 1190.9508056640625 752.9126586914062" name="http://lore-mbp.local:3000/icons/black_kitty_1024x1024.jpg" id="pGfLjW6ckMxsHDJgk" type="complex_path" stroke="#568756" stroke-width="21" stroke-opacity="0.5718542851742016" fill="#bec8c2" fill-opacity="1" stroke-linejoin="miter" stroke-linecap="round" opacity="1"/><path d="M600.4348348973367 765.0444295346556C630.1816000340555 744.2748982846556 860.9973348973367 656.9152791440306 934.8214315770242 648.0230061948118C1006.6966757176492 637.3223226010618 970.3562216160867 538.8171956479368 1080.9546102879617 536.1285359799681C1286.9489950535867 535.6513020932493 1390.1069540379617 731.8954427182493 1518.3058065770242 766.9519612729368" name="http://lore-mbp.local:3000/icons/black_kitty_1024x1024.jpg" id="jPeP3hpnffx6Mpj7X" type="complex_path" stroke="#568756" stroke-width="21" stroke-opacity="0.5718542851742016" fill="#bec8c2" fill-opacity="1" stroke-linejoin="miter" stroke-linecap="round" opacity="1"/><g id="Emw4hgT5jyQeRmi3M" type="simpleGroup"/><g id="edRCvr2TdFwxmWL3g" type="simpleGroup"/><g id="vmAaX7rSxHfwEzKah" type="simpleGroup"><path d="M714.4900355533309,20.982438740594603 717.3441615298934,21.474641499383665 719.7438197330184,22.190032658441282 722.4668421939559,23.382323918206907 724.5131678775497,24.566865620477415 726.8972621158309,26.343858418328978 729.3359828189559,28.92069595800183 732.2283778384872,33.26675003515027 733.7586512759872,36.959037480218626 734.4204554752059,40.22046631322644 734.6280360416122,42.27411621557019 734.5739588931747,123.7104946945741 734.1819911197372,126.733543095453 733.3434291080184,129.67948120580456 732.0587611392684,132.51799744115613 730.1435389712997,135.37194031224988 726.6283412173934,139.087058720453 723.3591761783309,141.4101330612733 720.1055751041122,142.87935608373425 717.6439051822372,143.6408459518983 712.3672328189559,144.41764038549206 592.308669586534,144.39482849584363 589.8009791568466,144.08699768529675 584.8241725162216,142.848533329828 581.4549708560653,141.3333508347108 578.785964508409,139.50244873510144 576.7396693423934,137.65642517553113 574.770583649034,135.33341186986706 573.3397669986434,133.125877079828 572.0936122134872,130.54125183568738 571.2551722720809,128.0257031296327 570.5014186099716,123.17233246312878 570.5014186099716,41.23577850805066 570.9552760318466,38.25119369970105 571.7091822818466,35.65133255468152 572.9013209537216,32.928260502679564 574.1013636783309,30.866758046014525 575.885818024034,28.482230839593626 577.9087977603622,26.443778691156126 580.3012843326278,24.620820698602415 583.301101227159,23.03614014135144 588.3161769107528,21.35930984960339 591.6086573795028,20.82087105260632ZM591.600905914659,42.15878265844128 591.4469752505966,42.35873001561902 591.2853541568466,42.720382389886595 591.1549525455184,43.58956497655652 591.2702174380966,122.14138763891003 591.3856044009872,122.73367279516003 591.4625086978622,122.90277069555066 591.6777491763778,123.14906280980847 593.5777430728622,123.62585419164441 711.4591517642684,123.64920013891003 712.7364955142684,123.4260708664491 712.9363246158309,123.3335415695741 713.7978968814559,122.42578857885144 713.8901210025497,121.68748444066784 713.8596034244247,43.312640843255735 713.8131556705184,43.08178680883191 713.0440516666122,41.93576019750378 713.0362391666122,41.928119358880735 712.5595545962997,41.72031754003308 711.8595423892684,41.597240147454954 593.2931971744247,41.589549717767454ZM626.3123011783309,183.4351269577577 626.4464564517684,182.76375549779675 626.6741175845809,182.11803406224988 626.9226527408309,181.624900517328 646.9547572330184,146.92786377416394 647.3379359439559,146.3606640671327 647.7976527408309,145.85301941381238 648.3237147525497,145.41556519017956 648.9069056705184,145.0566174362733 649.5347132877059,144.78295105443738 650.1944422916122,144.60079163060925 650.8735804752059,144.51360290990613 651.5580897525497,144.5232922409608 652.2342982486434,144.6288830612733 652.8892054752059,144.82894104467175 653.5092616275497,145.11910217748425 654.0823207095809,145.49402588353894 654.5962977603622,145.94597595678113 655.0419154361434,146.46623962865613 655.3446498111434,146.92786377416394 675.3773036197372,181.624900517328 675.6772303775497,182.24059265599988 675.8868861392684,182.8921124313905 676.0026698306747,183.56690186010144 676.0220790103622,184.251365361078 675.9450526431747,184.9314648483827 675.7726283267684,185.594138798578 675.5086512759872,186.2258068893983 675.1584315494247,186.813865361078 674.7287440494247,187.3467022751405 674.2278285220809,187.8136975143983 673.6664271548934,188.20557373510144 673.0550990298934,188.5141369675233 672.4069056705184,188.73357361303113 671.7336268619247,188.85953491674206 671.1823573306747,188.89099853978894 631.1175990298934,188.89099853978894 630.4346156314559,188.84256714330456 629.7656703189559,188.69820373998425 629.1233363345809,188.46134155736706 628.5206752017684,188.13631409154675 627.9703822330184,187.72891968236706 627.4825892642684,187.24886291967175 627.0674891666122,186.70438354955456 626.7332606509872,186.1066357468202 626.4866786197372,185.46819275365613 626.3326258853622,184.80115478978894 626.2740321353622,184.11864441381238ZM644.9091639712997,168.13817566381238 657.3636317447372,168.13817566381238 657.3636317447372,253.56346863256238 644.9091639712997,253.56346863256238 644.9091639712997,168.13817566381238ZM644.8395838931747,241.2088085983827 711.9921717837997,241.2088085983827 711.9921717837997,253.70348328099988 644.8395838931747,253.70348328099988 644.8395838931747,241.2088085983827ZM850.3634486392684,184.10030334935925 853.2175135806747,184.5925061081483 855.6172328189559,185.30789917455456 858.3401332095809,186.5001904343202 860.3865199283309,187.68473022924206 862.7706141666122,189.46172302709363 865.2093348697372,192.03856628881238 868.1017298892684,196.3846203659608 869.6319422916122,200.07691162572644 870.2938075259872,203.33834045873425 870.5013880923934,205.391990361078 870.4473109439559,286.8283612106874 870.0553431705184,289.85140198217175 869.2167201236434,292.7973553513124 867.9321742252059,295.6358563278749 866.0168910220809,298.4897991989686 862.5016932681747,302.20491760717175 859.2325282291122,304.5280072067811 855.9789881900497,305.997214970453 853.5172572330184,306.758689579828 848.2405848697372,307.53548401342175 728.1819911197372,307.5126873825624 725.6743617252059,307.2048565720155 720.6975550845809,305.96639221654675 717.3283534244247,304.4511944626405 714.6592860416122,302.62032288060925 712.6130213931747,300.7742840622499 710.6439051822372,298.45125549779675 709.2130580142684,296.24373596654675 707.9669642642684,293.6591107224061 707.1285243228622,291.1435467575624 706.3747401431747,286.290183720453 706.3747401431747,204.35364502416394 706.8285975650497,201.36905640111706 707.5825038150497,198.76920288549206 708.7747035220809,196.04613464818738 709.9747157291122,193.98462646947644 711.7591395572372,191.60010498510144 713.7821498111434,189.56165283666394 716.1746058658309,187.73868530736706 719.1744227603622,186.15401428685925 724.1894984439559,184.47718018041394 727.4819789127059,183.9387432907655ZM727.4742274478622,205.27664917455456 727.3203578189559,205.47660034642956 727.1586756900497,205.83824890599988 727.0283045962997,206.70743530736706 727.1436000064559,285.25923889623425 727.2589564517684,285.85152405248425 727.3358607486434,286.0206219528749 727.5511317447372,286.26692932592175 729.4510951236434,286.7437054489686 847.3325038150497,286.76705139623425 848.6099086002059,286.5439373825624 848.8096156314559,286.4514080856874 849.6713099673934,285.54366272435925 849.7634120181747,284.8053509567811 849.7330165103622,206.43050354467175 849.6865077212997,206.1996533249452 848.9174037173934,205.05362671361706 848.9096522525497,205.0459973190858 848.4329066470809,204.83818787084363 847.7328944400497,204.7151104782655 729.1664881900497,204.707420048578Z" id="weYPXSkjKHdwMwEos" type="simple_path" name="undefined" stroke="#000000" stroke-width="0" stroke-opacity="1" fill="#000000" fill-opacity="1" stroke-linejoin="miter" stroke-linecap="butt" opacity="1"/></g></g><g id="XKJkLbcoEo3zXrmvR" type="layer"><title>XKJkLbcoEo3zXrmvR</title><path d="M177.47247492726228 224.12845112817388C177.47247492726228 202.86128880517586 203.54467951710603 185.63489415185555 235.73260676319978 185.63489415185555C267.9205034917154 185.63489415185555 293.99279963429353 202.86128880517586 293.99279963429353 224.12845112817388C293.99279963429353 245.3956248952636 267.9205034917154 262.6219966604003 235.73260676319978 262.6219966604003C203.54467951710603 262.6219966604003 177.47247492726228 245.3956248952636 177.47247492726228 224.12845112817388Z" name="http://lore-mbp.local:3000/icons/black_kitty_1024x1024.jpg" id="augJ3c5XNrjhxGYgD" type="complex_path" stroke="#000000" stroke-width="0" stroke-opacity="1" fill="#bec8c2" fill-opacity="1" stroke-linejoin="miter" stroke-linecap="butt" opacity="1"/><path d="M330.1673096782147 243.01853913549846C330.1673096782147 221.75137299780334 356.23951426805843 204.52497834448303 388.4274415141522 204.52497834448303C420.6153382426678 204.52497834448303 446.68763438524593 221.75137299780334 446.68763438524593 243.01853913549846C446.68763438524593 264.2857205319832 420.6153382426678 281.51209992651445 388.4274415141522 281.51209992651445C356.23951426805843 281.51209992651445 330.1673096782147 264.2857205319832 330.1673096782147 243.01853913549846Z" name="http://lore-mbp.local:3000/icons/black_kitty_1024x1024.jpg" id="c9ntsf8jQaAqo2Wwg" type="complex_path" stroke="#000000" stroke-width="0" stroke-opacity="1" fill="#bec8c2" fill-opacity="1" stroke-linejoin="miter" stroke-linecap="butt" opacity="1"/><path d="M591.6309511388462,40.2305067393703 718.0824281896274,40.2305067393703 718.0824281896274,126.63195022081571 591.6309511388462,126.63195022081571 591.6309511388462,40.2305067393703Z" id="crXCXCLYrvFWvrYEL" type="simple_path" name="http://lore-mbp.local:3000/icons/black_kitty_1024x1024.jpg" stroke="#000000" stroke-width="0" stroke-opacity="1" fill="#bec8c2" fill-opacity="1" stroke-linejoin="miter" stroke-linecap="butt" opacity="1"/><path d="M727.0098669123955,203.15748089519906 853.4613439631768,203.15748089519906 853.4613439631768,289.5589205619471 727.0098669123955,289.5589205619471 727.0098669123955,203.15748089519906Z" id="dhcMmzXtBHam7SsFT" type="simple_path" name="http://lore-mbp.local:3000/icons/black_kitty_1024x1024.jpg" stroke="#000000" stroke-width="0" stroke-opacity="1" fill="#bec8c2" fill-opacity="1" stroke-linejoin="miter" stroke-linecap="butt" opacity="1"/><path d="M1107.1728515625,30.785465240478516 1180.89013671875,30.785465240478516 1180.89013671875,76.25843811035156 1107.1728515625,76.25843811035156 1107.1728515625,30.785465240478516Z" id="dkirLgRfGL6XybEcn" type="simple_path" name="http://lore-mbp.local:3000/icons/black_kitty_1024x1024.jpg" stroke="#000000" stroke-width="0" stroke-opacity="1" fill="#bec8c2" fill-opacity="1" stroke-linejoin="miter" stroke-linecap="butt" opacity="1"/><path d="M1137.8692626953125,166.9514923095703 1209.225341796875,211.81544494628906 1144.6842041015625,254.92715454101562 1073.328125,210.06320190429688 1137.8692626953125,166.9514923095703Z" id="ftqYAMDhzJfpx6wG5" type="simple_path" name="http://lore-mbp.local:3000/icons/black_kitty_1024x1024.jpg" stroke="#000000" stroke-width="0" stroke-opacity="1" fill="#bec8c2" fill-opacity="1" stroke-linejoin="miter" stroke-linecap="butt" opacity="1"/><path d="M279.7937702058738 80.09156110266554C279.7937702058738 58.82439877966749 305.86597479571753 41.59800412634718 338.0539020418113 41.59800412634718C370.2417987703269 41.59800412634718 396.31409491290503 58.82439877966749 396.31409491290503 80.09156110266554C396.31409491290503 101.35873486975538 370.2417987703269 118.5851066348921 338.0539020418113 118.5851066348921C305.86597479571753 118.5851066348921 279.7937702058738 101.35873486975538 279.7937702058738 80.09156110266554Z" name="http://lore-mbp.local:3000/icons/black_kitty_1024x1024.jpg" id="nBgXfhHzntH7AHw4H" type="complex_path" stroke="#000000" stroke-width="0" stroke-opacity="1" fill="#bec8c2" fill-opacity="1" stroke-linejoin="miter" stroke-linecap="butt" opacity="1"/></g></g></svg>