<svg xmlns="http://www.w3.org/2000/svg" xmlns:xlink="http://www.w3.org/1999/xlink" width="512" height="512" onload="init()" id="AJZ9iacT2oipw9poF"><script type="application/javascript"> <![CDATA[ 
function init(){}
 ]]> </script><g id="viewport" transform="matrix(0.5 0 0 0.5 0 0)"><g id="RaMnriBmZqC2YzeBA" type="layer"><title>RaMnriBmZqC2YzeBA</title></g><g id="pWgZxZtXRoD4ypsAo" type="layer"><title>pWgZxZtXRoD4ypsAo</title></g><g id="u37hbjE4yzNh3wPRA" type="layer"><title>u37hbjE4yzNh3wPRA</title><path d="M464.44543949406307 178.4623154709965L445.9728442792193 160.78613749248086C471.37268558781307 137.8073166916996 506.0052844647662 131.32582560283242 542.3711291913287 137.217808635059C578.7372790936724 143.10988322001992 596.6374866132037 158.42818155986367 609.9103137616412 171.9808701584965C623.1910754803912 185.53108683330117 639.3508044842974 231.48885050517617 638.9398547772662 231.0631455491215L616.4260608319537 243.43684855205117C616.0075427655474 243.01320353251992 611.0638782147662 207.92026224834024 595.4775134686724 193.19133463603555C579.8914538983599 178.4623154709965 570.0784045819537 166.08882609111367 540.6393176678912 161.96498575908242C511.19821659367244 157.84120646220742 484.07153812687557 159.6074875901371 464.44543949406307 178.4623154709965ZM563.7316638592974 204.38551798564492L542.5337878827349 217.5123948166996C542.5337878827349 217.5123948166996 530.8259631757037 212.0451554368168 517.5523425702349 213.2234543870121C517.5523425702349 225.59602823955117 516.9720813397662 246.80649271709024 527.9391833905474 255.64418497783242C538.9115344647662 264.48186197978555 568.3516589764849 270.3739213059574 567.9335681561724 269.9497880051762C567.5157825116412 269.5253800461918 581.0514270428912 296.8870743821293 580.6333362225787 296.46318522197305C580.2156116132037 296.0390519211918 552.1850940350787 296.8870743821293 536.5985461835162 291.58427897197305C521.0121814374224 286.2817277024418 501.3858081464068 266.2495926926762 496.1925708417193 247.98499003154336C490.99927250187557 229.7204484055668 492.15271488468807 214.99097147685586 496.3544360760943 201.60432902080117C506.3296252850787 193.52075663310586 525.6321155194537 187.299107463184 538.3318835858599 189.6560715745121C551.0318957928912 192.01283732158242 563.7316638592974 204.38551798564492 563.7316638592974 204.38551798564492ZM588.5510608319537 189.6560715745121L604.2994739178912 206.907261760059L532.1409656171099 256.39861002666055L519.4471789960162 235.18819132548867L588.5510608319537 189.6560715745121ZM593.7507678632037 262.1253861497074L605.4530383710162 284.0900467942387L682.8054553632037 236.95554056865274L673.5723010663287 211.62062540751992L593.7507678632037 262.1253861497074ZM577.0051623944537 228.5420579026371L556.3868152264849 240.49065104228555C556.3868152264849 240.49065104228555 572.9651843671099 278.03337565166055 580.4714099530474 292.1738480637699C587.9782458905474 306.3141068528324 595.4783069257037 312.79533854228555 610.4909412030474 316.9191483567387C625.4974719647662 321.0435990403324 641.0840198163287 315.1518448899418 640.6659900311724 314.7275590012699C640.2545520428912 314.3034562180668 634.7309924725787 292.1738480637699 634.3193713788287 291.7498673508793C633.9009143475787 291.32548990947305 617.4178210858599 295.11967936259805 608.7577869061724 289.81694498759805C600.0978137616412 284.5141495774418 577.0051623944537 228.5420579026371 577.0051623944537 228.5420579026371ZM613.9506579999224 171.98059550029336L626.2389270428912 193.94521036845742C626.2389270428912 193.94521036845742 643.9706775311724 190.2451066086918 661.2900745038287 196.13698282939492C678.6033679608599 202.02885905009805 678.6033679608599 213.81247416240274 682.6438953046099 221.47180643779336C686.6836902264849 229.13103190166055 683.8030749921099 281.5685013840824 683.3854724530474 281.14445963603555C682.9671374921099 280.7198685715824 711.5099231366412 277.4439591477543 711.0915271405474 277.0197648118168C710.6802112225787 276.59563151103555 713.2430774335162 236.7905167649418 710.3564807538287 222.0609025071293C707.4698230389849 207.33142557841836 704.5831653241412 192.01283732158242 683.2233630780474 179.05041971904336C661.8636829022662 166.08847513896524 628.9637805585162 165.49927225810586 613.9506579999224 171.98059550029336ZM651.4769031171099 259.7686356614262L629.1196033124224 270.5392045090824L651.6328479413287 353.61369791728555L678.7650500897662 355.3811844895512L651.4769031171099 259.7686356614262ZM660.1308948163287 287.4600419114262L667.7989246014849 311.78142252666055L737.6445666913287 299.40898600322305L744.5716907147662 272.8957718918949L660.1308948163287 287.4600419114262ZM444.24048343937557 330.4705704758793L467.3324634198443 345.19939127666055C472.5261890057818 336.9521378586918 486.37842289250057 319.8637894700199 518.1249744061724 324.57854166728555C549.8786975507037 329.29350748759805 566.6182605389849 370.5336808274418 566.2005969647662 370.1103409836918C565.7878162030474 369.6871232102543 590.2839709882037 363.4654130051762 589.8666736249224 363.0398148606449C589.4554187421099 362.6158646653324 576.4317371014849 315.1518448899418 526.7858630780474 303.3678788254887C477.14648929875057 291.58427897197305 444.24048343937557 330.4705704758793 444.24048343937557 330.4705704758793ZM709.7763415936724 207.9203995774418L713.4044543866412 234.59877482158242C713.4044543866412 234.59877482158242 741.5231067303912 247.39575663310586 744.9893542889849 263.89299479228555C748.4557239178912 280.3897904465824 741.5231067303912 309.26006022197305 724.7833606366412 319.8651322434574C718.4364368085162 315.7405900071293 711.5099231366412 305.7249344895512 711.0915271405474 305.3005570481449C710.6802112225787 304.8766984055668 685.5301868085162 308.6706132004887 685.1186877850787 308.24651041728555C689.8942615155474 323.7307023118168 702.2704211835162 338.1299637864262 730.5560046796099 346.3784989426762C751.9156848553912 332.82707682353555 771.5421496991412 310.4385575364262 773.8494006757037 283.3360184739262C776.1624499921099 256.23357096416055 753.6496936444537 222.65016642314492 709.7763415936724 207.9203995774418ZM568.9253894452349 323.9890336106449C581.6243640546099 319.2756547043949 598.9446765546099 320.4547013352543 619.7244617108599 332.2386368821293C640.5045520428912 344.0207108567387 646.2773181561724 354.62590494853555 648.5898181561724 370.5336808274418C650.8974353436724 386.4417923997074 641.0843249921099 414.13347330791055 627.8036853436724 421.2044571946293C602.9845325116412 430.0432023118168 581.0521594647662 407.65337076884805 573.5448352460162 397.6373490403324L598.9446765546099 389.97795572978555C604.7184192303912 394.6922806809574 607.0240222577349 395.28081217509805 616.8369495038287 400.58366862041055C622.6113635663287 395.2807816575199 627.8036853436724 384.0861405442387 624.3442737225787 368.76775065166055C620.8785144452349 353.4494217942387 597.7912341717974 345.19939127666055 583.9383899335162 344.0207108567387L568.9253894452349 323.9890336106449ZM558.5383044842974 359.92973795634805L541.9601184491412 340.0627335618168C541.9601184491412 340.0627335618168 516.9720813397662 369.3565568040043 525.6319934491412 410.0096634934574C534.2920886639849 450.6635331223637 583.9377185467974 474.8195694993168 583.5199329022662 474.3961381028324C583.1017200116412 473.97173014384805 593.7507678632037 451.84209147197305 593.3331653241412 451.4176835129887C592.9150134686724 450.99370280009805 556.8052112225787 440.6473282883793 549.2981921796099 406.4748124192387C541.7981921796099 372.30266276103555 558.5383044842974 359.92973795634805 558.5383044842974 359.92973795634805ZM616.2638293866412 359.92973795634805L623.3526965741412 382.4836625168949C596.7932483319537 381.8944901536137 564.8848621014849 394.6912430833012 551.6113635663287 405.8857621262699C551.0318957928912 392.9235734055668 551.0318957928912 387.0318497727543 552.1850940350787 379.3725480149418C561.9982654217974 374.6595048020512 600.6777698163287 361.6972245286137 616.2638293866412 359.92973795634805ZM719.2165881757037 369.2412308762699L709.3354236249224 388.8101395676762C693.8196765546099 381.4510087083012 665.9143420819537 377.0457657883793 651.4950305585162 379.4981888840824L647.9960071210162 356.9774369309574C670.9344836835162 356.3083695481449 701.7356921796099 362.99724283916055 719.2165881757037 369.2412308762699ZM795.1291247967974 401.85979166728555L773.3929187421099 389.6873368333012C773.3929187421099 389.6873368333012 772.1780749921099 376.6053666184574 764.5394031171099 365.4588517258793C754.0422107342974 371.6453751633793 735.7593127850787 381.7405594895512 733.7459460858599 395.85393229228555C731.7261706952349 409.96782389384805 741.4512683514849 438.9359940598637 741.6006213788287 438.35686197978555C741.7566882733599 437.7770890305668 725.3010608319537 463.41838541728555 725.4574329022662 462.8384903977543C725.6069690350787 462.2591752122074 710.8741809491412 437.9060868333012 707.5752307538287 421.4778641770512C704.2819568280474 405.04973307353555 711.4664661053912 377.68535319072305 724.3704578046099 363.9604386399418C737.2681628827349 350.2363480637699 750.3423205975787 343.89201822978555 763.8032580975787 340.9133194993168C775.6469470624224 345.6886185715824 790.5812732342974 359.6404618333012 794.9299670819537 372.0441788743168C799.2784778241412 384.4479874680668 795.1291247967974 401.85979166728555 795.1291247967974 401.85979166728555ZM661.2900745038287 384.0860489915043L688.5784045819537 387.19694987041055C688.5784045819537 387.19694987041055 709.7763415936724 448.3066605637699 710.3564807538287 468.9282425950199C710.9296008710162 489.5499161790043 705.1568957928912 515.4734086106449 690.7299548749224 529.6138810227543C676.2967883710162 543.7543229172855 651.4770251874224 554.9491471360355 624.3442737225787 548.4676407883793C635.8907214764849 540.219044596973 645.1239978436724 533.1493424485355 654.3575183514849 522.5438736985355C670.5235950116412 517.240773112598 682.0703479413287 507.8144120286137 685.5301868085162 486.60381022197305C688.9969226483599 465.3927811692387 661.2900745038287 384.0860489915043 661.2900745038287 384.0860489915043ZM520.4388171796099 397.0482071946293C495.6128589276568 407.65337076884805 469.63977543156307 455.3770340989262 470.79297367375057 480.1227921555668L496.1925708417193 472.4639481614262C496.1925708417193 451.84209147197305 513.5123340253131 430.6314896653324 525.0525256757037 420.6156815598637L520.4388171796099 397.0482071946293ZM820.0394641522662 416.4358109543949L813.2757922772662 438.9810685227543L735.2065173749224 399.9457596848637L746.8532458905474 378.1152237961918L820.0394641522662 416.4358109543949ZM781.2732288007037 425.6736039231449L760.8233996991412 413.4218644211918C760.8233996991412 413.4218644211918 737.2571155194537 446.8474015305668 729.0133411053912 460.5506180833012C720.7701770428912 474.2546280930668 719.0210925702349 484.1280716965824 723.0267078046099 499.4565323899418C727.0323840741412 514.7848710129887 728.6578723553912 512.8809403489262 736.6891833905474 520.345265300098L753.0154163007037 503.2430314133793C753.1648303632037 502.6637772629887 744.9877673749224 494.6795853684574 745.1545764569537 484.3747452805668C745.3279163007037 474.0694169114262 781.2732288007037 425.6736039231449 781.2732288007037 425.6736039231449ZM619.7241565350787 516.0628861497074L598.3645984296099 526.6678361008793C577.0051623944537 506.0464982102543 580.4714099530474 482.4795121262699 589.1313830975787 465.9823807786137C601.2510730389849 438.8797501633793 628.9637805585162 427.6854447434574 642.8174792889849 432.39897623759805C656.6705676678912 437.11259928447305 667.0573474530474 460.6795243333012 667.0575305585162 491.3172806809574L645.1238757733599 475.40935221416055C643.3904163007037 468.92778483134805 644.5443469647662 457.7341202805668 635.8907214764849 454.78789225322305C627.2310535077349 451.84209147197305 615.6843616132037 465.3929032395512 610.4909412030474 476.5876053879887C605.2914783124224 487.78191080791055 611.0639392499224 509.5818680833012 619.7241565350787 516.0628861497074ZM767.4839831952349 301.1347550461918L773.2446643475787 275.9699296067387C805.4413196210162 286.9311112473637 828.2602283124224 314.3046464036137 841.4454700116412 349.39616862041055C854.6241809491412 384.48747721416055 850.5788318280474 407.96526041728555 845.7153674725787 426.47636881572305C840.8607532147662 444.98808756572305 809.9469348553912 482.2542313645512 810.0972034100787 481.6745499680668L788.3437244061724 467.9615067551762C788.4922229413287 467.3810624192387 815.8016711835162 445.46684733134805 820.5058337811724 424.3261307786137C825.2099353436724 403.1846818040043 830.7975207928912 388.3235673020512 819.5816394452349 360.2403458665043C808.3591052655474 332.1542862961918 793.2930652264849 309.0555314133793 767.4839831952349 301.1347550461918ZM761.1463977460162 457.26262369853555L748.3636829022662 478.5928544114262L827.0318347577349 523.3983048508793L843.9133044842974 502.56682291728555L761.1463977460162 457.26262369853555ZM847.7392932538287 430.0487259934574L835.2405139569537 451.88908854228555C835.2405139569537 451.88908854228555 847.2514392499224 465.7136429856449 850.9066516522662 483.96696940166055C854.5691882733599 502.2205399583012 844.5673572186724 508.1120804856449 840.0892078046099 515.5132035325199C835.6111194257037 522.914845378223 789.6759387616412 546.582325846973 789.8260242108599 546.0029191086918C789.9819690350787 545.4233292649418 807.0303699139849 569.0119523118168 807.1802722577349 568.4324845383793C807.3361560467974 567.8527115891605 842.3900500897662 550.215870768848 853.4480334882037 540.300343425098C864.4986926678912 530.3839615891605 876.0578357342974 520.1732071946293 876.3721667889849 494.81316080791055C876.6937610272662 469.4528702805668 860.7386218671099 440.0742081711918 847.7392932538287 430.0487259934574ZM620.8774158124224 465.3929032395512L610.4909412030474 486.60381022197305C619.7241565350787 489.5494584153324 648.0104724530474 506.0464982102543 655.6789905194537 520.9410904954105L675.7168323163287 504.27922526103555C667.6369983319537 490.13884440166055 641.6637317303912 473.6418046067387 620.8774158124224 465.3929032395512ZM788.7297717694537 503.75737467509805L768.4119006757037 489.38579264384805C750.4407703046099 510.4610795090824 726.5627795819537 536.4507950852543 717.1258288983599 553.2809952805668C707.6960803632037 570.1109513352543 710.0810290936724 595.6530045579105 707.8658191327349 617.175099284473L729.7798816327349 617.2408951829105C731.7251330975787 598.3278702805668 728.4162952069537 576.7331437180668 738.2421008710162 561.1701554368168C748.0684558514849 545.6071061204105 771.0227405194537 522.6716202805668 788.7297717694537 503.75737467509805ZM502.5394641522662 504.8686417649418L478.46130863468807 512.6927689622074C478.46130863468807 512.6927689622074 482.91309086125057 540.219044596973 516.3987781171099 553.7701920579105C549.8785144452349 567.321339518848 567.1919910077349 558.484181315723 566.7803699139849 558.059864909473C566.3619128827349 557.6354264329105 556.8052112225787 533.1493424485355 556.3868152264849 532.7248429368168C555.9754382733599 532.3007096360355 538.3318835858599 533.7381486008793 524.4789172772662 527.2570694993168C510.6257678632037 520.7761124680668 502.5394641522662 504.8686417649418 502.5394641522662 504.8686417649418ZM588.5523425702349 530.203175456348L596.2203113202349 551.5785416672855C620.6594592694537 547.8470963547855 635.8597766522662 541.1705216477543 652.7925769452349 520.9421280930668L632.5863391522662 503.2659806321293C621.9474841717974 521.6728409836918 610.7358752850787 525.936329753223 588.5523425702349 530.203175456348ZM865.1514026288287 532.7194718430668L844.3329211835162 549.2626847336918C844.3329211835162 549.2626847336918 847.5331164960162 580.5201920579105 835.2689563397662 591.8307999680668C823.0046741132037 603.1405533860355 795.0434924725787 611.4525040696293 777.6735583905474 601.9581193040043C777.9980212811724 594.283497721973 783.0370227460162 583.1523331711918 783.1866199139849 582.573048503223C783.3366443280474 581.993458659473 767.5483752850787 561.6641739915043 767.6978503827349 561.0845841477543C756.9477893475787 573.0513810227543 750.9229480389849 591.191212565723 758.0636951092974 620.3173111985355C780.2394153241412 632.4206437180668 809.0544177655474 638.5748795579105 833.2055408124224 627.0645646165043C857.3564807538287 615.5543717454105 874.5903064374224 578.8638810227543 865.1514026288287 532.7194718430668ZM772.1883288983599 525.9271134446293L755.3847400311724 544.8640030930668L800.8039905194537 600.4179581711918L826.7673083905474 593.2838639329105L772.1883288983599 525.9271134446293ZM814.0760852460162 632.3300065110355L838.6204578046099 625.1703385422855C845.8207141522662 658.6566666672855 834.1175891522662 691.8901261399418 810.8320056561724 720.4378556321293C787.5462390546099 748.9858292649418 765.3301135663287 756.8287247727543 746.9567615155474 761.5469864915043C728.5815173749224 766.2733658860355 680.7010852460162 757.2892350266605 681.2752429608599 757.1461686204105L681.8161975507037 731.4618424485355C682.3923083905474 731.3112076829105 715.2555286053912 744.5763444016605 735.8043567303912 738.4426163743168C756.3530627850787 732.3091935227543 771.9753772382037 729.997609050098 790.2662707928912 706.564503581348C808.5581409100787 683.1296280930668 820.5918323163287 658.7540787766605 814.0760852460162 632.3300065110355ZM741.9828235272662 705.3527726243168L741.2135364178912 680.431446940723C741.2135364178912 680.431446940723 751.8022204999224 673.0258072922855 757.4186145428912 660.9413956711918C746.7036487225787 654.7550553391605 728.6249744061724 643.6473282883793 715.4877673749224 648.7262467454105C702.3479358319537 653.8097428391605 682.5251819257037 676.3596085618168 683.1015369061724 676.2096451829105C683.6780139569537 676.0599869797855 653.2142688397662 674.101368815723 653.7903796796099 673.951222331348C654.3665515546099 673.801564128223 667.6474353436724 649.1024064133793 680.0330554608599 638.255421550098C692.4183704022662 627.4085587571293 719.5799304608599 620.4276627610355 737.9941150311724 625.0624894211918C756.4083606366412 629.6971940110355 768.5877429608599 638.060841471973 778.0800525311724 648.3929947922855C780.0930530194537 661.073536784473 775.8298694257037 680.9008072922855 767.4388171796099 690.7206925461918C759.0477649335162 700.540821940723 741.9828235272662 705.3527726243168 741.9828235272662 705.3527726243168ZM742.3291980389849 734.2117814133793L719.5150500897662 739.224659831348L712.7334949139849 651.9879044602543L737.4491931561724 651.5999650071293L742.3291980389849 734.2117814133793ZM676.9690906171099 702.4801529954105L652.0959827069537 701.6323136399418L654.2394763592974 792.1887101243168L680.7967273358599 796.8600358079105L676.9690906171099 702.4801529954105ZM714.4258777264849 704.7697037766605L714.3873035077349 680.9393815110355C714.3873035077349 680.9393815110355 673.5851794842974 676.5253190110355 657.5860339764849 675.9556778977543C641.5867663983599 675.3866471360355 632.2238513592974 678.6412858079105 621.1462146405474 689.5806778977543C610.0710803632037 700.5145157883793 607.3802234296099 716.9587296555668 607.9566394452349 716.808888346973C608.5296374921099 716.664601237598 630.4562732342974 722.945851237598 631.0292102460162 722.8013810227543C631.6059924725787 722.651173503223 636.5616809491412 706.479298503223 645.4839831952349 701.6308487961918C654.4063464764849 696.782521159473 714.4258777264849 704.7697037766605 714.4258777264849 704.7697037766605ZM744.9368030194537 765.046193034473L719.7707873944537 764.705861003223C719.7707873944537 764.705861003223 714.1092883710162 781.9120377610355 700.3470813397662 793.965138346973C686.5879260663287 806.0129288743168 676.3829700116412 800.121144206348 667.7295276288287 799.7906998704105C659.0765735272662 799.4596451829105 615.1047107342974 770.7462052415043 615.6807605389849 770.5965470383793C616.2576038007037 770.446583659473 604.8232165936724 796.8033341477543 605.3998157147662 796.6530655930668C605.9727527264849 796.5089005540043 639.1635486249224 818.6309708665043 653.3630725507037 823.495900065723C667.5625354413287 828.3607682297855 682.2721301678912 833.5201310227543 704.1778308514849 821.503224284473C726.0830432538287 809.486134440723 743.0432483319537 781.2885636399418 744.9368030194537 765.046193034473ZM650.1470080975787 753.6508683274418L651.9980823163287 728.9035538743168L568.7968494061724 706.8633927415043L553.7000476483599 729.4767960618168L650.1470080975787 753.6508683274418ZM621.8385974530474 747.2997330735355L596.9416247967974 741.7797135422855L572.7336169842974 808.4540299485355L592.2311755780474 827.7097062180668L621.8385974530474 747.2997330735355ZM692.5355579022662 538.8278702805668L668.2340442303912 551.4616593430668C672.7795154217974 560.0831803391605 680.6523791913287 580.6237687180668 660.6959582928912 605.7597550461918C640.7358142499224 630.9017838547855 596.6509753827349 624.778614909473 597.2264758710162 624.6285294602543C597.7993518475787 624.4826554368168 590.9394275311724 648.8078507493168 591.5166980389849 648.659230143848C592.0894519452349 648.5150651047855 639.7063342694537 660.9682511399418 674.7344714764849 623.8655900071293C709.7590686444537 586.7684220383793 692.5355579022662 538.8278702805668 692.5355579022662 538.8278702805668ZM665.8992053632037 830.063771159473L640.9809924725787 819.8666276047855C640.9809924725787 819.8666276047855 615.8391467694537 837.8195694993168 599.8190051678912 832.572804362598C583.7991687421099 827.3264054368168 562.2630969647662 806.8874405930668 561.4487048749224 787.0878800461918C568.1941272382037 783.6535538743168 580.3312121991412 782.6628312180668 580.9079333905474 782.5126847336918C581.4806262616412 782.3683976243168 590.7700549725787 758.6908463547855 591.3430530194537 758.5465592454105C575.5455676678912 754.940236003223 556.8873645428912 758.4586686204105 535.6011096600787 778.8304337571293C536.6571399335162 804.1041764329105 546.2329455975787 832.295460612598 568.5508166913287 847.8448380540043C590.8656970624224 863.399220378223 631.2061511639849 860.6943253586918 665.8992053632037 830.063771159473ZM635.8063098553912 650.0489396165043C633.5387317303912 663.4032486985355 623.8574573163287 677.8135880540043 603.2623645428912 689.9174088547855C582.6687366132037 702.0224503586918 570.5979968671099 701.7192277024418 555.6651965741412 695.7680558274418C540.7345935467974 689.8124283860355 521.6594592694537 667.4681901047855 522.1761218671099 652.4313248704105C526.9311267499224 626.5179337571293 557.2874499921099 618.7188614915043 569.7152454022662 617.2253312180668L563.6485339764849 643.0519303391605C556.6789905194537 645.6949967454105 555.0164538983599 647.3974503586918 545.5176135663287 653.2442521165043C547.2228137616412 660.8964737961918 554.3215076092974 670.9904679368168 569.3173572186724 675.6537369797855C584.3162585858599 680.3114518235355 603.0046741132037 664.4423111985355 610.9518176678912 653.034718425098L635.8063098553912 650.0489396165043ZM609.8742419842974 623.0831193040043L635.3686877850787 618.659474284473C635.3686877850787 618.659474284473 622.4935046796099 582.3723038743168 582.9569446210162 569.545460612598C543.4195911053912 556.7183732102543 497.6770679120318 587.6347550461918 498.25265995304744 587.4846085618168C498.82932010929744 587.3346451829105 512.6696216229693 607.6218155930668 513.2459766034381 607.4723404954105C513.8222400311724 607.3222550461918 540.8373157147662 581.223439128223 574.1850940350787 591.808400065723C607.5290271405474 602.3992814133793 609.8742419842974 623.0831193040043 609.8742419842974 623.0831193040043ZM581.0115100507037 673.0748795579105L557.9347888592974 667.937062175098C571.7247668866412 645.2304581711918 576.5966540936724 611.1986588547855 573.5386706952349 594.1061905930668C585.0539905194537 600.0854386399418 590.1563464764849 603.031300456348 596.2129260663287 607.859669596973C595.3879138592974 618.714650065723 587.2738391522662 658.6932267258793 581.0115100507037 673.0748795579105ZM521.4711658124224 757.5788468430668L509.46457401554744 739.2370499680668C523.5956164960162 729.4796036790043 541.3633166913287 707.5154923508793 546.4491321210162 693.8017472336918L567.7021838788287 702.0319108079105C556.8123523358599 722.231739909473 535.6190539960162 745.5619401047855 521.4711658124224 757.5788468430668ZM455.2663928632037 807.011769206348L476.67615238468807 794.2738541672855C476.67615238468807 794.2738541672855 488.61288944523494 799.762745768848 502.0853931073443 798.720753581348C501.97629276554744 786.5366105149418 502.3750659589068 765.655568034473 491.1592151288287 756.855275065723C479.9461108807818 748.0491837571293 449.9964038495318 741.9872330735355 450.4232532147662 742.4061783860355C450.8473254803912 742.8312272141605 436.86911503117244 715.759571940723 437.2931262616412 716.1849259446293C437.72006717960994 716.6041153977543 466.17685428898494 716.0216569016605 482.05359379093807 721.3788346360355C497.9274036053912 726.7408341477543 518.0333606366412 746.6449479172855 523.4675037030474 764.6826066086918C528.9040881757037 782.714405925098 527.8613635663287 797.2090958665043 523.7104846600787 810.356007487598C513.6531421307818 818.2252701829105 494.1033374432818 824.1828507493168 481.1870471600787 821.7470597336918C468.2707873944537 819.311085612598 455.2663928632037 807.011769206348 455.2663928632037 807.011769206348ZM537.5784045819537 699.9905900071293L521.2401477460162 722.0675553391605C521.2401477460162 722.0675553391605 457.71863285343807 709.870655925098 439.5697375897662 700.0622452805668C421.42429081242244 690.2477311204105 401.86023441593807 672.286671550098 396.8277026776568 652.7223404954105C391.7982837323443 633.152638346973 394.51318851750057 606.0607194016605 413.6926929120318 585.8038224290043C415.06296268742244 599.9276017258793 416.5688830975787 611.4587296555668 421.13672367375057 624.7579239915043C417.6463061932818 641.409718425098 420.03638187687557 656.1226700852543 436.67538944523494 669.7242936204105C453.3113147382037 683.332081706348 537.5784045819537 699.9905900071293 537.5784045819537 699.9905900071293ZM596.7784778241412 571.5287369797855C600.0071155194537 544.7262467454105 571.6637927655474 498.3710526536137 549.6567126874224 486.99687662822305L543.5896350507037 512.8229874680668C561.4487048749224 523.1339005540043 571.1577502850787 548.738575846973 574.0615588788287 563.7405900071293L596.7784778241412 571.5287369797855ZM430.1880237225787 821.2967423508793L414.0450793866412 804.166554362598L486.8852893475787 756.074269206348L499.96774784367244 777.0759171555668L430.1880237225787 821.2967423508793ZM441.5709888104693 783.105275065723L462.4061938885943 771.5211075852543C462.4061938885943 771.5211075852543 445.2419788007037 734.3992814133793 437.4965259198443 720.4083756516605C429.75009647648494 706.4175919602543 422.07397953312557 699.966114909473 406.79636112492244 695.7708634446293C391.51877323429744 691.5756730149418 392.3548938397662 693.935353190723 381.8749438885943 697.1585587571293L388.52280155460994 719.8485611985355C388.9497424725787 720.267628581348 399.95276371281307 717.1781510422855 408.7936145428912 722.4750260422855C417.6316272382037 727.7778214524418 441.5709888104693 783.105275065723 441.5709888104693 783.105275065723ZM444.0661059979693 598.0050553391605L445.5617114667193 574.204640300098C474.1000415448443 566.0175065110355 492.7765246991412 580.8028458665043 502.7334643964068 596.5511979172855C520.1451770428912 620.598439128223 515.9833728436724 650.1954850266605 504.9745227460162 659.8364152024418C493.9658557538287 669.4767350266605 468.36288944523494 666.6884659836918 441.8297473553912 651.3697403977543L466.57324711125057 640.3286027024418C473.0531665448443 642.068165690723 482.1702014569537 648.664357096973 489.0485278729693 642.6431778977543C495.9294788007037 636.6166276047855 489.9674731854693 619.8414811204105 482.8692981366412 609.7464493821293C475.7744800214068 599.6464737961918 454.0089465741412 593.7455948899418 444.0661059979693 598.0050553391605ZM556.3193713788287 833.4328507493168L575.2323962811724 851.004200846973C549.6414538983599 873.4067277024418 514.5258227948443 879.4816788743168 477.54306522648494 873.3546647141605C440.56372562687557 867.2221573899418 422.2540637616412 851.9798478196293 408.6546985272662 838.5124405930668C395.05038944523494 825.0523575852543 378.23386112492244 779.6471451829105 378.66074100773494 780.0671280930668L401.41333500187557 768.0845841477543C401.84177128117244 768.5034073899418 407.1653186444537 803.1111954758793 423.1216174725787 817.755421550098C439.07858768742244 832.4000748704105 449.15491215031307 844.6696061204105 479.08362308781307 848.9979752610355C509.0181323651568 853.3220109055668 536.5552112225787 851.823780925098 556.3193713788287 833.4328507493168ZM424.2775012616412 749.880421550098L412.1963245038287 728.1451310227543L334.0596057538287 773.8710221360355L343.6594592694537 798.906544596973L424.2775012616412 749.880421550098ZM404.5489856366412 838.4789933274418L391.8840686444537 816.7345475266605C391.8840686444537 816.7345475266605 373.9061938885943 820.2240494797855 356.27072635929744 814.2629288743168C338.6314136151568 808.3079728196293 338.5300952557818 796.7003678391605 334.35962406437557 789.121632487598C330.1886340741412 781.5426529954105 332.6596118573443 729.9279069016605 333.0863391522662 730.3475846360355C333.5102893475787 730.7723893235355 304.55774418156307 733.7424210618168 304.98462406437557 734.1619767258793C305.40878788273494 734.5869034836918 303.1557971600787 773.7628678391605 306.2139026288287 788.2971085618168C309.2764026288287 802.825489909473 312.33960453312557 817.9413346360355 334.14490238468807 830.893605143848C355.94675174992244 843.8522233079105 389.3669788007037 844.7240494797855 404.5489856366412 838.4789933274418ZM487.37094608585994 624.3387955735355L474.1950122479693 604.7383927415043C467.0274097089068 611.261769206348 438.59738651554744 627.5098771165043 421.86401859562557 626.7037247727543L426.2747241620318 652.3879288743168C442.56055179875057 652.4608048508793 469.8340503339068 638.2158097336918 487.37094608585994 624.3387955735355ZM370.22018924992244 750.5209244797855L392.8252612714068 740.1109513352543C383.55908695500057 714.0098771165043 372.99033085148494 680.3360489915043 363.13342777531307 663.7482804368168C353.2731372479693 647.1669205735355 329.9606067303912 636.4613541672855 312.4295093182818 623.7818497727543L301.41550174992244 642.727101237598C316.8220569257037 653.868214518848 337.1780444745318 661.8000382493168 345.7430774335162 678.0909318040043C354.3078967694537 694.382374675098 362.69348636906307 725.7291153977543 370.22018924992244 750.5209244797855ZM512.3529712323443 502.1172074387699L517.6161243085162 477.3528641770512C517.6161243085162 477.3528641770512 491.5517932538287 467.4450882981449 463.0733081464068 489.66899576884805C434.59778324406307 511.8877152512699 433.5942737225787 531.3001603196293 434.1675464276568 531.1558732102543C434.74435917179744 531.005665690723 460.72827640812557 534.9724015305668 461.3050891522662 534.822316081348C461.8780871991412 534.6780900071293 469.4550220135943 518.6796158860355 481.99426761906307 509.92314615947305C494.53354374210994 501.16643229228555 512.3529712323443 502.1172074387699 512.3529712323443 502.1172074387699ZM447.4061633710162 563.9393204758793L425.06055179875057 559.8922623704105C416.07251468937557 582.922902018848 414.2544299725787 599.425099284473 423.3063403729693 624.2034806321293L448.7174426678912 615.5424698899418C438.09607425968807 597.125538737598 440.0095874432818 585.284230143848 447.4061633710162 563.9393204758793ZM306.9274341229693 802.222950846973L303.00986210148494 775.9220475266605C303.00986210148494 775.9220475266605 274.33994022648494 763.064747721973 270.67676273625057 746.788380534473C267.0143481854693 730.5123185227543 273.79660526554744 702.1412247727543 290.70395389835994 691.8456315110355C297.18811527531307 695.963917643848 304.3085071210162 705.8934220383793 304.7353870038287 706.3126114915043C305.1622974042193 706.7323502610355 330.66211429875057 703.223927409473 331.08932987492244 703.6431778977543C326.10080448429744 688.3499650071293 313.40366092960994 674.0623673508793 284.60934940617244 665.683400065723C263.03967777531307 678.836476237598 243.30246464054744 700.7138566086918 241.19513431828182 727.3845109055668C239.08778873722713 754.0549210618168 262.2457629803912 787.3251236985355 306.9274341229693 802.222950846973ZM359.2913257245318 725.1107682297855L351.29330936710994 701.0900162766605L280.47253910343807 712.647267253223L273.66919437687557 738.6992081711918L359.2913257245318 725.1107682297855ZM246.1998645428912 708.1852311204105L240.12813297550838 733.021046550098C207.5279895428912 722.5135392258793 184.5985461835162 695.7615861008793 171.5182239178912 661.321827800098C158.43782535832088 626.8817643235355 162.75375858585994 603.7205704758793 167.85431400578182 585.4496354172855C172.9487659100787 567.1730240891605 204.66948429386775 530.1993912766605 204.50629154484432 530.7681778977543L226.47913090031307 544.0788468430668C226.32150760929744 544.653126628223 198.40195194523494 566.4809464524418 193.43950382511775 587.343556315723C188.4768420819537 608.2059830735355 182.66760746281307 622.8911027024418 193.81580082218807 650.4479874680668C204.96506229679744 678.006642253223 220.05804935734432 700.6158951829105 246.1998645428912 708.1852311204105ZM219.00688663761775 609.2391861985355L240.9740344647662 621.0336197922855C240.9740344647662 621.0336197922855 242.0931750897662 633.906544596973 249.75041691105525 644.8126725266605C260.4653674725787 638.6263932297855 279.1243030194537 628.5236710618168 281.29443851750057 614.6070450852543C283.46191898625057 600.6859025071293 273.8445178632037 572.243946940723 273.68625370304744 572.8181046555668C273.52759281437557 573.392140300098 290.45569340031307 547.989064128223 290.2976428632037 548.5630997727543C290.1391955975787 549.1368912766605 304.8888599042193 572.9880265305668 308.0897876385943 589.1378068040043C311.2908374432818 605.2872208665043 303.7556811932818 632.3002823899418 290.5347034100787 645.9300431321293C277.3137866620318 659.559864909473 263.98096195500057 665.9256486008793 250.28694645207088 668.9802140305668C238.29875675480525 664.3832291672855 223.259389079024 650.7775773118168 218.95070377628963 638.6007584641605C214.641713297774 626.423878581348 219.00688663761775 609.2391861985355 219.00688663761775 609.2391861985355ZM193.84111515324275 595.109669596973L200.90686527531307 572.8455704758793L279.84689823429744 610.5909928391605L267.8250171307818 632.1893204758793L193.84111515324275 595.109669596973ZM254.00153080265682 554.3719376633793L267.17233768742244 533.2551163743168L187.67645756046932 489.8332413743168L170.35234562199275 510.4968461106449L254.00153080265682 554.3719376633793ZM233.2903186444537 585.6657609055668L253.94727054875057 597.5474747727543C253.94727054875057 597.5474747727543 278.17102543156307 564.4188126633793 286.66394535343807 550.847950846973C295.15634647648494 537.2767228196293 297.0192309979693 527.5408829758793 293.08423343937557 512.4776505540043C289.15283695500057 497.4193924973637 276.2571460370318 486.8669327805668 276.09872928898494 487.44109049541055C275.9371692303912 488.00944987041055 259.5341235760943 503.8578080247074 259.37277714054744 504.4262589524418C259.21448246281307 505.0008439133793 270.7418872479693 517.3785294602543 270.47958866398494 527.5297135422855C270.2172290448443 537.6808365891605 233.2903186444537 585.6657609055668 233.2903186444537 585.6657609055668ZM165.8338977460162 581.950734050098L178.71167484562557 560.326466471973C178.71167484562557 560.326466471973 166.64142338078182 546.820362956348 163.08423343937557 528.8753556321293C159.53011051457088 510.9356888840824 169.7350207928912 505.0439042161137 174.34792057316463 497.71501627666055C178.96111027043025 490.3868607590824 225.81360355656307 466.6628007004887 225.65517154972713 467.2364701340824C225.49663273136775 467.8110550950199 208.3882190350787 444.7302445481449 208.23006168644588 445.3046769211918C208.0683948163287 445.8729447434574 172.3147327069537 463.5560196946293 161.00180546085994 473.4206742356449C149.68903080265682 483.28532877666055 137.866078532149 493.4445389817387 137.32019535343807 518.423878581348C136.77466312687557 543.402882487598 152.7143451337115 572.1896256516605 165.8338977460162 581.950734050098ZM223.0974475507037 505.55803385478555L243.60368839543025 519.534718425098L304.2916919354693 458.5004471848637L292.2562610272662 434.1195267747074L223.0974475507037 505.55803385478555ZM242.75191227238338 484.2177323411137L259.98083988468807 465.4163407395512L214.3431750897662 411.1144608567387L187.9184924725787 418.37199869853555L242.75191227238338 484.2177323411137ZM387.9453479413287 649.6790665696293L389.15488163273494 622.316456706348C379.4156848553912 621.942189128223 357.69064823429744 618.4899796555668 345.9004260663287 588.639210612598C334.1068469647662 558.7822159836918 361.45212284367244 523.6652115891605 361.29431644718807 524.238575846973C361.1341907147662 524.807667643848 343.4979602460162 506.70427408916055 343.33801761906307 507.2784623215824C343.17651859562557 507.8465775559574 308.5832873944537 542.8574112961918 323.20102421085994 591.7440079758793C337.8158313397662 640.624806315723 387.9453479413287 649.6790665696293 387.9453479413287 649.6790665696293ZM149.04584232609432 480.99333658916055L170.33594242375057 464.5121048997074C170.33594242375057 464.5121048997074 167.3591205243365 433.7621659348637 179.91302982609432 422.5116776536137C192.46648136418025 411.2613114426762 220.93518558781307 402.83000651103555 238.48930851261775 412.0245255540043C238.09082523625057 419.5833939622074 232.88026920597713 430.5897416184574 232.72194401066463 431.1642960618168C232.56052128117244 431.7324112961918 248.42116276066463 451.61601725322305 248.259633219649 452.1844376633793C259.28154484074275 440.30656901103555 265.56357303898494 422.3888749192387 258.5642444257037 393.7685746262699C236.14851871769588 382.0462540696293 206.94626346867244 376.2435196946293 182.321156657149 387.7966507981449C157.693226969649 399.3447159836918 139.86552921574275 435.6330155442387 149.04584232609432 480.99333658916055ZM319.9896899823443 544.939503581348C309.55832401554744 536.2985734055668 301.9192248944537 520.7092179368168 301.7345325116412 496.8214310715824C301.54807010929744 472.9343155930668 307.84604374210994 462.63237467509805 320.4663440350787 452.6758011887699C333.08936039250057 442.7232865403324 361.9776050214068 437.3758439133793 374.74158207218807 445.34172526103555C394.8057300214068 462.4163712571293 386.3817493085162 492.60527506572305 381.46127811710994 504.1148270676762L362.12814823429744 485.9475907395512C363.3240100507037 478.5902298997074 362.68088260929744 476.29924479228555 362.36682621281307 465.14958658916055C354.88718143742244 462.8002518723637 342.59616581242244 463.9008683274418 331.0597583417193 474.5560196946293C319.52658573429744 485.21660319072305 323.9254809979693 509.3358048508793 329.83115116398494 521.9220475266605L319.9896899823443 544.939503581348ZM356.30881229679744 535.964650065723L347.39258304875057 560.2552994797855C347.39258304875057 560.2552994797855 385.2557727460162 567.2486466477543 416.13245121281307 539.422413737598C447.0096789960162 511.5956009934574 443.1066028241412 456.5232132981449 442.9487964276568 457.09673014384805C442.7903491620318 457.6711319993168 418.30099979679744 459.51360026103555 418.1422778729693 460.08745280009805C417.9841663007037 460.6615799973637 427.07883182804744 497.1067704270512 401.2380725507037 520.6942948411137C375.39413944523494 544.2755631516605 356.30881229679744 535.964650065723 356.30881229679744 535.964650065723ZM327.44604984562557 485.9728898118168L343.4338733319537 468.5567826340824C356.20337406437557 491.8525284836918 383.23987308781307 513.0876359055668 399.5713550214068 518.9855546067387C388.63550297062557 525.9684952805668 383.5331164960162 528.914357096973 376.32336918156307 531.7452897141605C367.33517948429744 525.603321940723 336.76974979679744 498.5870560715824 327.44604984562557 485.9728898118168ZM284.03366581242244 392.1574296067387L305.9214221600787 390.9303177903324C307.3060962323443 408.04692545634805 317.44369999210994 434.4162797043949 326.77722660343807 445.67754069072305L309.02319828312557 459.9681595872074C296.9745227460162 440.4373978684574 287.3666431073443 410.4183243821293 284.03366581242244 392.1574296067387ZM274.3258716229693 310.1059769700199L274.65231815617244 335.0163163254887C274.65231815617244 335.0163163254887 263.93042484562557 342.6093644211918 258.09660831730525 354.7979325364262C268.70288578312557 360.7954911301762 286.58704105656307 371.58134928447305 299.81625858585994 366.2682999680668C313.0491382245318 360.9605301926762 333.2737475995318 338.05424967509805 332.6975452069537 338.2144669602543C332.11740604679744 338.3692215989262 362.5512134198443 339.7995499680668 361.97083011906307 339.9540909836918C361.39438358585994 340.1142472336918 347.67038456242244 365.04973307353555 335.0925952557818 376.1208390305668C322.51205936710994 387.1869706223637 295.22153202335994 394.6471757004887 276.88342777531307 390.3344620774418C258.5491534833209 386.0267533372074 246.5177356366412 377.8763627122074 237.207631266524 367.7082108567387C235.42131534855525 355.0636185715824 240.03680912296932 335.1541947434574 248.60439029972713 325.1862687180668C257.1721545819537 315.21843424541055 274.3258716229693 310.1059769700199 274.3258716229693 310.1059769700199ZM325.85291019718807 434.9008683274418L314.9028674725787 409.7130326340824C314.9028674725787 409.7130326340824 357.22644535343807 360.80022135478555 374.7952014569537 349.9870194504887C392.36752811710994 339.1798295090824 417.7042895917193 331.2173966477543 437.1637622479693 336.6412552903324C456.62631717960994 342.0705155442387 478.73120609562557 357.9676713059574 486.68442264835994 384.7060746262699C473.76770511906307 378.83086100322305 463.02853885929744 374.36943522197305 449.22717777531307 371.67570963603555C436.55151859562557 360.3270463059574 422.6146594647662 355.0404252122074 402.51584354679744 362.6494340012699C382.41318241398494 370.2526749680668 325.85291019718807 434.9008683274418 325.85291019718807 434.9008683274418ZM407.5040942792193 550.4005631516605C429.10141483585994 566.5978898118168 483.4178821210162 565.2294205735355 504.27173343937557 551.8578385422855L484.93918339054744 533.6905411790043C467.0801135663287 544.001515300098 440.0513354901568 539.607472331348 425.60727421085994 534.6212052415043L407.5040942792193 550.4005631516605ZM274.49390140812557 281.2449845383793L297.40051761906307 275.8298539231449L302.6295825604693 362.9574784348637L277.9004260663287 363.7863968918949L274.49390140812557 281.2449845383793ZM301.87720218937557 310.1986283372074L301.49179569523494 334.0345658372074C301.49179569523494 334.0345658372074 342.22229496281307 337.7307938645512 358.21152225773494 338.0185135911137C374.20114628117244 338.3052872727543 383.62631717960994 334.8833207200199 394.8983508710162 323.7501114915043C406.17026249210994 312.6169327805668 403.7086536053912 312.16118326884805 406.1572925214068 301.4737137864262L383.18320194523494 295.8858841965824C382.6068469647662 296.0461319993168 379.78085819523494 307.1197709153324 370.77319828312557 312.12773600322305C361.7618762616412 317.1302689622074 301.87720218937557 310.1986283372074 301.87720218937557 310.1986283372074ZM460.93115726750057 404.90959635478555L480.7950793866412 418.10503092509805C473.61621586125057 446.91350260478555 451.47348514835994 455.6951493333012 432.85654178898494 456.4439591477543C403.3251392010943 459.49931803447305 379.7742358807818 441.0965470383793 376.92941776554744 426.7421464036137C374.0849963788287 412.3882035325199 389.30115238468807 391.6095170090824 415.8341418866412 376.2904862473637L413.02429691593807 403.23955240947305C408.27783695500057 407.9815568040043 398.0068713788287 412.5790604661137 399.7821704510943 421.54643717509805C401.5608569745318 430.5188187668949 419.06955448429744 433.7431534836918 431.36118046085994 432.6434220383793C443.6554614667193 431.54912272197305 459.64853397648494 415.65007487041055 460.93115726750057 404.90959635478555ZM200.91801945011775 384.4098710129887L176.2442981366412 392.0034073899418C169.63863102238338 358.63969889384805 181.93535343449275 325.1911820481449 205.73288456242244 296.2266434739262C229.53349796574275 267.2679032395512 251.88852421085994 259.0323838303715 270.3513538007037 253.9887131760746C288.81027714054744 248.9370774338871 336.54062382023494 257.07614603740274 335.9634448651568 257.2358597825199L334.96436039250057 282.93144694072305C334.38742557804744 283.09306803447305 301.7544299725787 270.3994950364262 281.09396854679744 276.89592447978555C260.43286625187557 283.3927811692387 244.76897159855525 285.9843339036137 226.0561420087115 309.73918619853555C207.34416691105525 333.5012101243168 194.87306705753963 358.0981644700199 200.91801945011775 384.4098710129887ZM339.2975207928912 311.8344620774418L364.16138187687557 312.2394913743168L363.62997928898494 221.7081650803715L337.14865604679744 217.50412455302774L339.2975207928912 311.8344620774418ZM272.4331409100787 250.44975748759805L297.5968371991412 250.35384073955117C297.5968371991412 250.35384073955117 303.5637866620318 233.03979960185586 317.54404178898494 220.7476243088871C331.5208179120318 208.44899454814492 341.6239673260943 214.16505900126992 350.27258793156307 214.3426865647465C358.92163578312557 214.5200089524418 402.38586918156307 242.46730509501992 401.80905643742244 242.62703409892617C401.22913090031307 242.781773478809 413.13327518742244 216.22310343486367 412.55649296085994 216.38303080302774C411.97644535343807 216.5379075120121 379.1755725507037 194.9987687180668 365.0594836835162 190.3800400803715C350.94629398625057 185.76808634501992 336.32394901554744 180.8629502366215 314.20435062687557 193.27075663310586C292.08090702335994 205.67238322001992 274.6157886151568 234.1792649338871 272.4331409100787 250.44975748759805ZM416.47302738468807 429.2458085129887L440.0354663495318 427.6353348801762C437.96985355656307 418.16631022197305 438.1135608319537 385.4211014817387 447.1783801678912 371.33269205791055L422.72986332218807 362.3103226731449C414.5238696698443 376.37785807353555 413.22363773625057 407.1198929856449 416.47302738468807 429.2458085129887ZM365.77145878117244 264.6991776536137L363.48425785343807 289.48076334697305C390.72153202335994 294.5065812180668 425.1682788495318 302.1906632493168 444.46213260929744 301.9482010911137C463.75220218937557 301.69963541728555 484.67978397648494 286.8631791184574 504.4260608319537 278.02055826884805L493.52600590031307 259.00952616435586C476.1742297772662 266.7813920090824 459.12708011906307 280.4442948411137 440.73621097843807 279.7163895676762C422.3450366620318 278.9880570481449 391.0051929120318 270.5768021653324 365.77145878117244 264.6991776536137ZM509.8290149335162 511.9916581223637L528.6439563397662 528.9318741868168C528.6439563397662 528.9318741868168 550.2565051678912 511.3133744309574 545.2493030194537 475.5383194993168C540.2450915936724 439.7684525559574 523.9351550702349 429.1931351731449 523.7734729413287 429.76176920634805C523.6151477460162 430.3363846848637 507.1879321698443 450.85576334697305 507.02951542179744 451.43034830791055C506.86789432804744 451.9986771653324 516.9344836835162 466.55974283916055 518.2482043866412 481.79729166728555C519.5621081952349 497.03496256572305 509.8290149335162 511.9916581223637 509.8290149335162 511.9916581223637ZM488.76291385929744 424.83501139384805L503.44052616398494 407.5066727708012C487.9894458417193 388.2074784348637 474.60718265812557 378.3819169114262 448.6225024823443 373.8318680833012L443.41760746281307 400.1690568040043C464.67786136906307 400.1791581223637 473.97595707218807 407.7569474290043 488.76291385929744 424.83501139384805ZM352.64255253117244 184.03505411845742L377.37863651554744 193.7927903245121C377.37863651554744 193.7927903245121 402.8483325604693 175.39258280498086 418.7757007245318 180.35835734111367C434.70236698429744 185.3246506760746 455.88132206242244 205.3837784836918 456.3439075116412 225.1737717698246C449.53525272648494 228.7300919602543 437.3758899335162 229.93176737529336 436.79941288273494 230.0918625901371C436.2224475507037 230.25172892314492 426.5109302167193 254.08940592509805 425.9342395428912 254.24976053935586C441.67282596867244 257.57617655498086 460.3948108319537 253.72392740947305 482.0483752850787 232.97681132060586C481.4422961835162 207.72041788798867 472.3645373944537 179.68877115947305 450.3207446698443 164.52844706279336C428.2771350507037 149.36821451884805 387.88535038273494 152.7885178635746 352.64255253117244 184.03505411845742ZM393.2417346600787 267.93962565166055L418.0433704022662 273.0235184739262L443.4448596600787 205.91231241923867L424.28491703312557 186.99446573955117L393.2417346600787 267.93962565166055Z" name="undefined" id="mmoDmAHMfyihvPthJ" type="complex_path" stroke="#2d3935" stroke-width="7" stroke-opacity="1" fill="#bec8c2" fill-opacity="1" stroke-linejoin="round" stroke-linecap="round" opacity="0.8364941055868785"/></g></g></svg>