<svg xmlns="http://www.w3.org/2000/svg" xmlns:xlink="http://www.w3.org/1999/xlink" width="512" height="512" onload="init()" id="D8igRFEaJ3DCr5peD"><script type="application/javascript"> <![CDATA[ 
function init(){}
 ]]> </script><g id="viewport" transform="matrix(0.5 0 0 0.5 0 0)"><g id="m4YzYoW3hch2P82xW" type="layer"><title>m4YzYoW3hch2P82xW</title><path d="M203.59713745117188,193.71243286132812 507.1422424316406,193.71243286132812 507.1422424316406,412.3443603515625 203.59713745117188,412.3443603515625 203.59713745117188,193.71243286132812Z" id="5FghnBFsgXyADzj3Y" type="simple_path" name="http://lore-mbp.local:3000/icons/black_kitty_1024x1024.jpg" stroke="#000000" stroke-width="0" stroke-opacity="1" fill="#bec8c2" fill-opacity="1" stroke-linejoin="miter" stroke-linecap="butt" opacity="1"/><path d="M508.986839276841,563.6432745168985 812.5319442573098,563.6432745168985 812.5319442573098,782.275232524711 508.986839276841,782.275232524711 508.986839276841,563.6432745168985Z" id="fwngQtPvDZRGwd8QN" type="simple_path" name="http://lore-mbp.local:3000/icons/black_kitty_1024x1024.jpg" stroke="#000000" stroke-width="0" stroke-opacity="1" fill="#bec8c2" fill-opacity="1" stroke-linejoin="miter" stroke-linecap="butt" opacity="1"/></g><g id="KxXk4e6CviYa4hjuJ" type="layer"><title>KxXk4e6CviYa4hjuJ</title></g><g id="n4fAnseQAW8JGbwHS" type="layer"><title>n4fAnseQAW8JGbwHS</title></g><g id="qGfCgJk3LXqLkqF4W" type="layer"><title>qGfCgJk3LXqLkqF4W</title><path d="M332.03492699572325,497.6094665527344 360.09986840197325,497.6094665527344 360.09986840197325,690.106689453125 332.03492699572325,690.106689453125 332.03492699572325,497.6094665527344Z" id="8jL4eWK9keAC35SiE" type="simple_path" name="http://lore-mbp.local:3000/icons/black_kitty_1024x1024.jpg" stroke="#000000" stroke-width="0" stroke-opacity="1" fill="#000000" fill-opacity="1" stroke-linejoin="miter" stroke-linecap="butt" opacity="1"/><path d="M331.8781433105469,662.2667236328125 483.1996154785156,662.2667236328125 483.1996154785156,690.4221801757812 331.8781433105469,690.4221801757812 331.8781433105469,662.2667236328125Z" id="Q3YaSL7SutA3Puw6L" type="simple_path" name="http://lore-mbp.local:3000/icons/black_kitty_1024x1024.jpg" stroke="#000000" stroke-width="0" stroke-opacity="1" fill="#000000" fill-opacity="1" stroke-linejoin="miter" stroke-linecap="butt" opacity="1"/><path d="M290.12879906603575,532.07958984375 290.43116723009825,530.5667114257812 290.9441677183795,529.1116333007812 291.50416527697325,528.0004272460938 336.644485101192,449.8141784667969 337.5078884215045,448.5360412597656 338.54383812853575,447.3921203613281 339.72926293322325,446.4063415527344 341.04347191759825,445.5975036621094 342.45814476916075,444.9808044433594 343.94483910509825,444.5703430175781 345.47523461291075,444.3738708496094 347.0176540465045,444.3957214355469 348.54139672228575,444.6336364746094 350.01722680041075,445.0844421386719 351.4143825621295,445.7383117675781 352.705764398067,446.5831604003906 353.86390648791075,447.6015930175781 354.868117913692,448.7739562988281 355.55030785509825,449.8141784667969 400.691848382442,528.0004272460938 401.36756859728575,529.3878173828125 401.8401638121295,530.85595703125 402.101028069942,532.3765258789062 402.144729241817,533.9188842773438 401.971145257442,535.451416015625 401.58253441759825,536.9447021484375 400.98768578478575,538.3681030273438 400.19850121447325,539.6932373046875 399.23023949572325,540.8939208984375 398.10157738634825,541.9462280273438 396.83644066759825,542.8292846679688 395.458938226192,543.5245971679688 393.9983669371295,544.0191040039062 392.48109398791075,544.3029174804688 391.23890648791075,544.3738403320312 300.95704613634825,544.3738403320312 299.4180141539264,544.2647094726562 297.9105678648639,543.9393920898438 296.46311913439513,543.4056396484375 295.105178460567,542.6732177734375 293.865188226192,541.7551879882812 292.76600609728575,540.6734619140625 291.83055077502013,539.446533203125 291.077346429317,538.0995483398438 290.5217739195514,536.660888671875 290.1746364683795,535.1577758789062 290.0425563902545,533.6198120117188Z" id="on5CL7mXkPraWX368" type="simple_path" name="http://lore-mbp.local:3000/icons/black_kitty_1024x1024.jpg" stroke="#000000" stroke-width="0" stroke-opacity="1" fill="#000000" fill-opacity="1" stroke-linejoin="miter" stroke-linecap="butt" opacity="1"/><path d="M799.7278069250659,533.5784886018221 806.1592034094409,534.687604202408 811.5666741125659,536.299664749283 817.7025994055347,538.9863789216463 822.313774942644,541.6556599275057 827.6861504309253,545.659886612076 833.1815117590503,551.4665806428377 839.699272989519,561.2599308625643 843.147515177019,569.5801365510408 844.6389092199878,576.9294560090486 845.1066216223315,581.5571262971346 844.9847954504565,765.0657169953768 844.1015557043628,771.8778507844393 842.2118462317065,778.5162480012361 839.3171318762378,784.912518753189 835.001274942644,791.3436100617828 827.080132364519,799.715253128189 819.7134636633472,804.9500553742828 812.3818291418628,808.2607853547515 806.8345879309253,809.9767582551422 794.9441765539722,811.7271855012359 524.4043816320972,811.6757633820953 518.7535637610034,810.9821293488922 507.53878104615967,808.191327346939 499.94666373658936,804.7770512238922 493.9322746985034,800.6513188020172 489.32114493776123,796.4914372102203 484.8840264074878,791.256757034439 481.6598595373706,786.2823612824859 478.85178458619873,780.4581425324861 476.96244132448,774.7896244660799 475.2639092199878,763.8530399934236 475.2639092199878,579.2173283235018 476.28659903932373,572.4918644563143 477.98552787233155,566.6333744660799 480.67183768678467,560.497174514908 483.3760002844409,555.8518040315096 487.3970879309253,550.4785359040682 491.95566642213623,545.8850529328768 497.34688651490967,541.7771961823885 504.10666739869873,538.2063267365877 515.4076622717456,534.427708877701 522.826958536394,533.214444412369ZM522.8095024817065,581.2972691194002 522.4626549475269,581.7477848664705 522.0983818762378,582.5627720490877 521.8045586340503,584.5213749543611 522.0643242590503,761.5299198762361 522.3243340246753,762.8645756379549 522.49759757448,763.2455876008455 522.9826897375659,763.8005802766268 527.2640770666675,764.8750126496736 792.8979424231128,764.9276249543611 795.7763603918628,764.4248173371736 796.2264946692065,764.2163212434236 798.1681145422534,762.1707890168611 798.375786661394,760.5070622102205 798.3071221106128,583.897320999283 798.2024163000659,583.3771183625643 796.469292520769,580.7946751252596 796.4517754309253,580.7774632111971 795.3775871985034,580.3092167512361 793.8001946203784,580.0318882600252 526.6228874914722,580.014508499283Z" id="4APHLEq4wGBmwuTEt" type="simple_path" name="http://lore-mbp.local:3000/icons/black_kitty_1024x1024.jpg" stroke="#000000" stroke-width="0" stroke-opacity="1" fill="#000000" fill-opacity="1" stroke-linejoin="miter" stroke-linecap="butt" opacity="1"/><path d="M496.54197203049443,167.11084339873287 502.97336851486943,168.2199589993188 508.38083921799443,169.8320195461938 514.5167645109632,172.5187337185571 519.1279400480726,175.18801472441646 524.5003155363538,179.19224140898677 529.9956768644788,184.9989354397485 536.5134380949476,194.79228565947506 539.9616802824476,203.11249134795162 541.4530743254163,210.46181080595943 541.9207867277601,215.08948109404537 541.7989605558851,398.59807179228756 540.9157208097913,405.41020558135006 539.0260113371351,412.04860279814693 536.1312969816663,418.44487355010006 531.8154400480726,424.8759648586938 523.8942974699476,433.24760792510006 516.5276287687757,438.4824101711938 509.1959942472913,441.79314015166256 503.6487530363538,443.5091130520532 491.7583416594007,445.25954029814693 221.21854673752568,445.2081181790063 215.56772886643193,444.5144841458032 204.35294615158818,441.72368214385006 196.76082884201787,438.3094060208032 190.74643980393193,434.1836735989282 186.13531004318975,430.0237920071313 181.6981915129163,424.78911183135006 178.47402464279912,419.81471607939693 175.66594969162725,413.99049732939693 173.7766064299085,408.3219792629907 172.0780743254163,397.38539479033443 172.0780743254163,212.74968312041256 173.10076414475225,206.02421925322506 174.79969297776006,200.16572926299068 177.48600279221318,194.0295293118188 180.19016538986943,189.38415882842037 184.2112530363538,184.01089070097896 188.76983152756475,179.41740772978756 194.16105162033818,175.30955097929927 200.92083250412725,171.7386815334985 212.22182737717412,167.96006367461177 219.64112364182256,166.74679920927974ZM219.62366758713506,214.829623916311 219.27682005295537,215.2801396633813 218.9125469816663,216.0951268459985 218.6187237394788,218.05372975127193 218.8784893644788,395.06227467314693 219.1384991301038,396.3969304348657 219.3117626799085,396.7779423977563 219.79685484299443,397.33293507353756 224.078242172096,398.40736744658443 489.7121075285413,398.45997975127193 492.5905254972913,397.95717213408443 493.04065977463506,397.74867604033443 494.98227964768193,395.70314381377193 495.18995176682256,394.0394170071313 495.1212872160413,217.4296757961938 495.01658140549443,216.90947315947506 493.28345762619756,214.32702992217037 493.2659405363538,214.30981800810787 492.19175230393193,213.84157154814693 490.61435972580693,213.564243056936 223.43705259690068,213.5468632961938Z" id="f8mPjtupeFvFCE67b" type="simple_path" name="http://lore-mbp.local:3000/icons/black_kitty_1024x1024.jpg" stroke="#000000" stroke-width="0" stroke-opacity="1" fill="#000000" fill-opacity="1" stroke-linejoin="miter" stroke-linecap="butt" opacity="1"/></g><g id="ze8JuFZ44zASM9KG3" type="layer"><title>ze8JuFZ44zASM9KG3</title></g></g></svg>