<svg xmlns="http://www.w3.org/2000/svg" xmlns:xlink="http://www.w3.org/1999/xlink" width="724" height="512" onload="init()" id="DSTH6LATvdPaBTBHD"><script type="application/javascript"> <![CDATA[ 
function init(){}
 ]]> </script><g id="viewport" transform="matrix(0.5 0 0 0.5 0 0)"><g id="u5JoGRe8RR4MF3789" type="layer"><title>u5JoGRe8RR4MF3789</title><path d="M-3.406700372695923,733.6544799804688 1448.4989013671875,733.6544799804688 1448.4989013671875,1027.059326171875 -3.406700372695923,1027.059326171875 -3.406700372695923,733.6544799804688Z" id="nNLdZh6y9NwfCZP4K" type="simple_path" name="http://lore-mbp.local:3000/icons/black_kitty_1024x1024.jpg" stroke="#000000" stroke-width="0" stroke-opacity="1" fill="#bec8c2" fill-opacity="1" stroke-linejoin="miter" stroke-linecap="butt" opacity="1"/><path d="M1175.4912109375,821.0830078125Z" id="pHHwax3Mrj6q6rpEQ" type="simple_path" name="http://lore-mbp.local:3000/icons/black_kitty_1024x1024.jpg" stroke="#000000" stroke-width="0" stroke-opacity="1" fill="#000000" fill-opacity="1" stroke-linejoin="miter" stroke-linecap="butt" opacity="1"/><path d="M-17.46356604569897 734.20319508295C16.492063541474494 704.3359465477937 91.29104043966785 531.3719572899812 175.56057931906236 518.5841154931062C257.6053486061718 503.1971526024812 362.57101633078116 415.09385060052807 488.81793405539054 411.22748707513745C723.9581623268747 410.54087208490307 883.9395466042184 686.5316862938874 1030.277071018281 736.946603286075" name="http://lore-mbp.local:3000/icons/black_kitty_1024x1024.jpg" id="JzSJFW8uxHhD7wdur" type="complex_path" stroke="#568756" stroke-width="21" stroke-opacity="0.5718542851742016" fill="#bec8c2" fill-opacity="1" stroke-linejoin="miter" stroke-linecap="round" opacity="1"/><path d="M1145.54700725066,153.71404517347457 1144.88343303191,156.99560034925582 1143.4299418209725,160.43804419691207 1141.0766703365975,163.88134253675582 1137.7390238522225,167.12609351331832 1133.3684183834725,169.93529761488082 1127.964731860035,172.03911841566207 1121.587290453785,173.14226782972457 1114.3664652584725,172.93480933363082 1106.51380412566,171.10668433363082 1098.3293558834725,167.36577857191207 1090.2060648678475,161.45885718519332 1082.6299540280038,153.19616187269332 1076.1748759030038,142.47790015394332 1071.4905497311288,129.32213843519332 1069.283579516285,113.89269507581832 1070.2907816647225,96.52537787611129 1075.243540453785,77.75108588392379 1084.8242289303475,58.31257880384567 1099.6147562740975,39.17370665723922 1120.037485766285,21.517753249951625 1146.2922465084725,6.73287165815475 1178.29017131316,-3.6182025605952504 1215.58704631316,-7.845769279650426 1257.3227640865975,-4.200020187548375 1302.167856860035,9.04244185144546 1348.286509203785,33.47195494825485M1143.95276896941,152.44341529066207 1141.1630961178475,154.29461157972457 1137.7011820553475,155.700968391248 1133.6023051022225,156.47173560316207 1128.94788615691,156.40598548109176 1123.8711039303475,155.30199683363082 1118.562388110035,152.96856177503707 1113.272837328785,149.23906958753707 1108.31360881316,143.98650611097457 1104.0537211178475,137.14116919691207 1100.9116312740975,128.70867407972457 1099.34437053191,118.78783667738082 1099.829966235035,107.58816016370895 1102.8444926022225,95.44478095228317 1108.8347269772225,82.82991278822067 1118.184458422535,70.35908759290817 1131.177134203785,58.79075873548629 1147.95472209441,49.01748145277145 1168.4743754147225,42.0469671552861 1192.46595256316,38.97207701856735 1219.3916117428475,40.92849791700485 1248.411020922535,49.03896582777145 1278.356333422535,64.34556830579879 1307.7185160397225,87.72911322767379 1334.652231860035,119.81872046644332 1356.99866740691,160.89281714613082 1372.3352152584725,210.77788794691207M1143.7238871334725,150.41753638441207 1140.4423929928475,149.75402320081832 1136.999888110035,148.30053198988082 1133.5566508053475,145.94719947034957 1130.311899828785,142.60955298597457 1127.5026957272225,138.23900855238082 1125.398813891285,132.83526099378707 1124.2956644772225,126.45781958753707 1124.5031840084725,119.23693335706832 1126.3313090084725,111.38433325941207 1130.0722758053475,103.19982398206832 1135.97913615691,95.07658637220504 1144.24183146941,87.50059760267379 1154.96009318816,81.04551947767379 1168.11585490691,76.36120093519332 1183.545298266285,74.15422309095504 1200.9126078365975,75.16142523939254 1219.686899828785,80.11418402845504 1239.125376391285,89.69487250501754 1258.2641703365975,104.48522437269332 1275.9201761959725,124.90801490003707 1290.7050883053475,151.16283667738082 1301.0561625240975,183.1607767408574 1305.2837015865975,220.45763648206832 1301.6379496334725,262.1933542555057 1288.3955179928475,307.038401252576 1263.96595256316,353.1571146314823M1144.9946390865975,148.82329810316207 1143.143442797535,146.03368628675582 1141.7370707272225,142.57171118909957 1140.9663187740975,138.47289527113082 1141.0319926022225,133.81841529066207 1142.1359965084725,128.74157202894332 1144.46937053191,123.43291724378707 1148.19886271941,118.14336646253707 1153.451548266285,113.18413794691207 1160.296763110035,108.92418921644332 1168.729380297535,105.7820688551152 1178.6501566647225,104.21489966566207 1189.84974162566,104.70046485120895 1201.9931742428475,107.71502173597457 1214.60804240691,113.70525611097457 1227.0788676022225,123.05498755628707 1238.64710490691,136.04766333753707 1248.4204203365975,152.82525122816207 1255.391001391285,173.34490454847457 1258.4658304928475,197.33648169691207 1256.50940959441,224.26214087659957 1248.3989359615975,253.28161109144335 1233.0922953365975,283.2268472974979 1209.708872485035,312.5891214674198 1177.61927287566,339.522776252576 1136.5451761959725,361.869211799451 1086.6599833248788,377.2057596510135M1147.020395922535,148.59447730238082 1147.683970141285,145.31292212659957 1149.1374613522225,141.87047827894332 1151.49085490691,138.42717993909957 1154.828501391285,135.18242896253707 1159.1989847897225,132.37322486097457 1164.6027933834725,130.26940406019332 1170.9802347897225,129.16625464613082 1178.201059985035,129.37371314222457 1186.053599047535,131.20183814222457 1194.238169360035,134.94274390394332 1202.3613383053475,140.84966529066207 1209.9372660397225,149.11236060316207 1216.3923441647225,159.83062232191207 1221.0766703365975,172.98638404066207 1223.2837015865975,188.41588843519332 1222.27649943816,205.78313697034957 1217.3237406490975,224.55742896253707 1207.743052172535,243.99590552503707 1192.95276896941,263.1347605055057 1172.5300394772225,280.79075110609165 1146.2751566647225,295.5756326978885 1114.277231860035,305.9267069166385 1076.9802347897225,310.1543070142948 1035.244517016285,306.5084940260135 990.3994242428475,293.2660318678104 944.2807718990975,268.83652747327915M1148.614634203785,149.86516822034957 1151.4043070553475,148.01397193128707 1154.8662211178475,146.60753882581832 1158.9650980709725,145.83684790784957 1163.619517016285,145.90252173597457 1168.69642131316,147.00658667738082 1174.00501506316,149.33996070081832 1179.2946879147225,153.06945288831832 1184.253794360035,158.32201636488082 1188.51380412566,165.16729224378707 1191.65589396941,173.59990943128707 1193.223032641285,183.52070105726364 1192.73743693816,194.72033179456832 1189.7229105709725,206.86370337659957 1183.732798266285,219.47857154066207 1174.3830668209725,231.94939673597457 1161.39026896941,243.51769507581832 1144.6128031490975,253.29101050550585 1124.093149828785,260.26153052503696 1100.101450610035,263.3364206617557 1073.175669360035,261.3799997633182 1044.1561991451913,253.26952613050585 1014.2109476803475,237.96288550550582 984.84876506316,214.57940161878707 957.9150492428475,182.48980200941207 935.5686136959725,141.41576636488082 920.23206584441,91.5306040113652M1148.8435160397225,151.89098609144332 1152.12513225066,152.55456031019332 1155.56751506316,154.00799048597457 1159.0107523678475,156.36138404066207 1162.25550334441,159.69903052503707 1165.0647074459725,164.06957495863082 1167.16858928191,169.47332251722457 1168.2717386959725,175.85070288831832 1168.0642191647225,183.0715433424199 1166.2360941647225,190.92418921644332 1162.49524943816,199.10869849378707 1156.588267016285,207.23186743909957 1148.3256937740975,214.80791724378707 1137.6074320553475,221.26293433363082 1124.451548266285,225.94726050550582 1109.02210490691,228.15429175550582 1091.6547953365975,227.14708960706832 1072.8804423092538,222.19433081800582 1053.4419657467538,212.61364234144332 1034.3030497311288,197.82323706800582 1016.64710490691,177.40050757581832 1001.862192797535,151.14574683363082 991.511118578785,119.14776099378707 987.283579516285,81.85087836439254 990.92933146941,40.11517394239547 1004.1718241451913,-4.729927414110875 1028.6013285397225,-50.84856545274613M1147.57288615691,153.48522437269332 1149.4240824459725,156.27483618909957 1150.830454516285,159.73681128675582 1151.60120646941,163.83562720472457 1151.535532641285,168.49010718519332 1150.4314066647225,173.56695044691207 1148.098032641285,178.87560523206832 1144.368540453785,184.1651712721074 1139.1159769772225,189.12438452894332 1132.27064006316,193.38433325941207 1123.8381449459725,196.52642310316207 1113.9172465084725,198.09356177503707 1102.717661547535,197.60802710706832 1090.5742289303475,194.59350073988082 1077.9592997311288,188.60326636488082 1065.48841350066,179.25353491956832 1053.9201151608163,166.26085913831832 1044.1467997311288,149.48333228284957 1037.1762797115975,128.96361792738082 1034.1013895748788,104.9720102613652 1036.0578104733163,78.04632056409957 1044.1682841061288,49.02688086683395 1059.4749247311288,19.081596023389125 1082.8584696530038,-10.280621879748082 1114.948130297535,-37.21430336778519 1156.0222269772225,-59.560719841173864 1205.90735881316,-74.89724480455277" id="NzEExSArg5yQTDCCc" type="simple_path" name="undefined" stroke="#427d69" stroke-width="5" stroke-opacity="0.4447755551354885" fill="#476b54" fill-opacity="0.127078730038711" stroke-dasharray="7,10" stroke-linejoin="round" stroke-linecap="round" opacity="1"/><path d="M155.19255419777073,572.9329639355667 301.8174702744309,772.9748721997269 541.1314046006028,554.1561008374222 1340.716914854509,561.5196796338089 738.1367756943528,745.9753604809769" id="mkrqxyhXjCS9gu94b" type="simple_path" name="http://lore-mbp.local:3000/icons/black_kitty_1024x1024.jpg" stroke="#000000" stroke-width="2" stroke-opacity="0.01588484125483893" fill="#000000" fill-opacity="0" stroke-linejoin="miter" stroke-linecap="butt" opacity="1"/><path d="M157.0304539232925,574.490203027862 303.6553623705581,774.5321341802057 542.96929669673,555.713347559112 1342.5548374682144,563.0769339848932 739.9746372729019,747.5326224614557" id="wMKxW5QvYTPeEQv9d" type="simple_path" name="http://lore-mbp.local:3000/icons/black_kitty_1024x1024.jpg" stroke="#000000" stroke-width="0" stroke-opacity="1" fill="#000000" fill-opacity="0" stroke-linejoin="miter" stroke-linecap="butt" opacity="1"/><path d="M824.2508544921875,190.41151428222656Z" id="jMaKu8AqDkLd7avaj" type="simple_path" name="http://lore-mbp.local:3000/icons/black_kitty_1024x1024.jpg" stroke="#000000" stroke-width="0" stroke-opacity="1" fill="#000000" fill-opacity="1" stroke-linejoin="miter" stroke-linecap="butt" opacity="1"/><path d="M261.6078186035156 776.031982421875C295.5634460449219 743.6724853515625 544.8304443359375 612.4736938476562 629.0999755859375 598.6182250976562C711.1447143554688 581.9476318359375 914.2432861328125 456.15179443359375 1041.259765625 451.9374694824219C1215.0841064453125 450.3283386230469 1380.4066162109375 674.74072265625 1472.8140869140625 757.7166748046875" name="http://lore-mbp.local:3000/icons/black_kitty_1024x1024.jpg" id="z8EyMtCjR9ZMdDm99" type="complex_path" stroke="#568756" stroke-width="21" stroke-opacity="0.5718542851742016" fill="#bec8c2" fill-opacity="1" stroke-linejoin="miter" stroke-linecap="round" opacity="1"/><text xml:space="preserve" id="be7AqXraLGNMeqjpo" x="90.25985017950006" y="671.3128725700526" stroke="#7f7f7f" stroke-width="0" stroke-opacity="1" fill="#000000" fill-opacity="1" stroke-linejoin="round" stroke-linecap="round" opacity="1" font-size="51" font-family="Sans-serif" font-weight="bold"><tspan dy="64.77" x="90.25985017950006">On a fine day - like today - an inspired team like ours</tspan></text><g id="QDazp2riQWyXHehtt" type="simpleGroup"/></g></g></svg>