<svg xmlns="http://www.w3.org/2000/svg" xmlns:xlink="http://www.w3.org/1999/xlink" width="724" height="512" onload="init()" id="Gi4Hk42DwQ7hEkWJW"><script type="application/javascript"> <![CDATA[ 
function init(){}
 ]]> </script><g id="viewport" transform="matrix(0.5 0 0 0.5 0 0)"><g id="7z4iEv7ZHYQ4F7fgg" type="layer"><title>7z4iEv7ZHYQ4F7fgg</title><path d="M-3.406700372695923,733.6544799804688 1448.4989013671875,733.6544799804688 1448.4989013671875,1027.059326171875 -3.406700372695923,1027.059326171875 -3.406700372695923,733.6544799804688Z" id="mYCqqPSGmf5SKj5ZC" type="simple_path" name="http://lore-mbp.local:3000/icons/black_kitty_1024x1024.jpg" stroke="#000000" stroke-width="0" stroke-opacity="1" fill="#bec8c2" fill-opacity="1" stroke-linejoin="miter" stroke-linecap="butt" opacity="1"/><path d="M824.2508544921875,190.41151428222656Z" id="x24HoCEMCgWNGpLeB" type="simple_path" name="http://lore-mbp.local:3000/icons/black_kitty_1024x1024.jpg" stroke="#000000" stroke-width="0" stroke-opacity="1" fill="#000000" fill-opacity="1" stroke-linejoin="miter" stroke-linecap="butt" opacity="1"/><path d="M-22.099220275878906 739.5087890625C7.647547721862793 720.63427734375 73.17505645751953 611.3350219726562 146.9991912841797 603.2539672851562C218.8744354248047 593.530029296875 310.82916259765625 537.8560180664062 421.4276123046875 535.4129028320312C627.4219970703125 534.97900390625 767.5729370117188 709.3837890625 895.7718505859375 741.2420654296875" name="http://lore-mbp.local:3000/icons/black_kitty_1024x1024.jpg" id="f6wnKDpWJRWMTKRy5" type="complex_path" stroke="#568756" stroke-width="21" stroke-opacity="0.5718542851742016" fill="#bec8c2" fill-opacity="1" stroke-linejoin="miter" stroke-linecap="round" opacity="1"/><path d="M1175.4912109375,821.0830078125Z" id="8NnRNa7xG6wgzuert" type="simple_path" name="http://lore-mbp.local:3000/icons/black_kitty_1024x1024.jpg" stroke="#000000" stroke-width="0" stroke-opacity="1" fill="#000000" fill-opacity="1" stroke-linejoin="miter" stroke-linecap="butt" opacity="1"/><path d="M35.24578866888578 238.8587739422573L693.4098206513077 238.8587739422573C693.4098206513077 238.8587739422573 633.7873841278702 236.15766310241355 601.1782532684952 231.5860688641323C590.8045350067764 230.13199781921043 585.6803894989639 228.2201020672573 585.6803894989639 228.2201020672573L628.0343323700577 227.4637544110073C628.0343323700577 227.4637544110073 597.7516175263077 222.98032545592918 588.3681336395889 218.22226881530418C583.7643128388077 215.88727736022605 582.6231385224014 211.26752638366355 582.6231385224014 211.26752638366355C582.6231385224014 211.26752638366355 590.7532654755264 210.31754469421043 593.0390320770889 203.22614454772605C595.2609559052139 196.33347486999168 588.3663636200577 179.9058930828823 580.1785584442764 178.5398042156948C560.6897889130264 175.28766798522605 555.7846985809952 189.09028028991355 555.7846985809952 189.09028028991355C555.7846985809952 189.09028028991355 578.8832703583389 155.87034010436668 554.2054749481827 142.67044996764793C536.5823060028702 133.244195695187 524.1128235809952 147.69794630553855 524.1128235809952 147.69794630553855C524.1128235809952 147.69794630553855 472.1133728974014 179.0992524578823 448.84927377630765 154.71149611022605C405.46670541693265 109.22603773620261 454.4347840302139 53.53889631774558 490.43045053412015 79.67279982116355C501.88504037787015 87.9868257000698 501.3890076630264 115.40720533874168 487.9651795380264 125.8645112469448C472.0763855927139 138.2406098797573 461.87466440130765 118.37261366393699 466.55056772162015 113.14998793151511C471.0534363739639 108.1207368328823 476.0634461395889 123.94748854186668 483.4848328583389 114.32956861999168C490.06875619818265 105.79613661315574 487.08010873724515 88.00748610046043 467.30130014349515 87.87101149108543C451.2460633270889 87.76055311706199 439.92727670599515 118.12902235534324 448.38064584662015 135.47556471374168C462.3164978974014 164.07908033874168 502.91787729193265 147.85512709167136 517.3500061981827 131.93341993835105C547.5300599091202 98.63581251647605 549.5213929169327 49.14875959899558 495.8584900849014 26.415544266964332C411.7463074677139 -9.217073683475121 389.99246225287015 90.03510450866355 389.99246225287015 90.03510450866355C389.99246225287015 90.03510450866355 367.47463998724515 70.43295454528464 349.44094858099515 100.10723280456199C335.09854135443265 123.7109467938198 363.4074402802139 147.49418043639793 363.4074402802139 147.49418043639793C363.4074402802139 147.49418043639793 356.4618836395889 135.1007630779995 341.52041635443265 133.2736146404995C331.41177377630765 132.0370728924526 322.58059701849515 145.228326554562 322.58059701849515 145.228326554562C322.58059701849515 145.228326554562 326.8754578583389 134.3254029705776 322.6736756317764 126.05443739440574C317.2179871552139 115.31916212585105 300.9755555145889 107.18293165710105 278.80703744818265 114.17580580260886C243.57656869818265 125.28768324401511 238.1772156708389 147.2092378094448 242.02371225287015 160.56101393249168C244.6759949677139 169.76615309264793 253.2592469208389 173.1684663250698 253.2592469208389 173.1684663250698C253.2592469208389 173.1684663250698 239.40823373724515 179.92649244811668 237.41677865912015 190.39243483092918C235.7873230927139 198.95527052428855 245.94522104193265 211.61115431335105 245.94522104193265 211.61115431335105C245.94522104193265 211.61115431335105 240.17642221380765 205.22959303405418 234.94998178412015 206.09317945983543C230.70816049505765 206.7927339031948 226.80252084662015 214.77155470397605 226.80252084662015 214.77155470397605C226.80252084662015 214.77155470397605 227.60610971380765 194.91562819030418 208.88687143255765 196.64621901061668C195.73538217474515 197.86359571960105 190.6484070770889 207.6060883953823 191.4660340302139 213.9842622235073C192.15139779974515 219.32413649108543 197.8706971161514 221.56586622741355 197.8706971161514 221.56586622741355C197.8706971161514 221.56586622741355 185.8284607880264 227.65033888366355 162.62100229193265 230.11994337585105C114.45486459662015 235.2354829266323 35.24578866888578 238.85868238952293 35.24578866888578 238.85868238952293Z" name="undefined" id="Myq9dfReLqSDzEu96" type="complex_path" stroke="#000000" stroke-width="0" stroke-opacity="1" fill="#000000" fill-opacity="0.1762545899632803" stroke-linejoin="miter" stroke-linecap="butt" opacity="1"/><path d="M1002.8265991210938 295.3493957519531C1003.0157470703125 295.1260681152344 1007.4737548828125 283.8443603515625 1016.0502319335938 275.632568359375C1025.0355224609375 267.0306091308594 1038.1629638671875 261.52044677734375 1038.85302734375 263.0787048339844C1039.72119140625 265.04193115234375 1029.90771484375 265.8307189941406 1020.9779052734375 277.6415710449219C1017.2763671875 282.53857421875 1014.739013671875 288.8685607910156 1014.1466674804688 294.5646057128906C1014.1466674804688 294.5646057128906 1014.6927490234375 297.697021484375 1015.1963500976562 297.87139892578125C1015.700927734375 298.04486083984375 1016.7613525390625 297.9546203613281 1017.0977172851562 297.43060302734375C1017.4388427734375 296.9074401855469 1014.1596069335938 289.4025573730469 1029.0147705078125 279.4301452636719C1041.9735107421875 270.7321472167969 1060.7342529296875 268.79248046875 1061.06982421875 269.4126281738281C1061.2525634765625 269.75634765625 1051.4149169921875 274.241455078125 1043.74169921875 279.2126159667969C1037.5675048828125 283.2120056152344 1033.1678466796875 287.8440246582031 1033.667236328125 288.4627990722656C1034.7890625 289.84912109375 1088.049072265625 276.7004699707031 1088.7132568359375 277.646728515625C1089.37744140625 278.59326171875 1071.2340087890625 283.6936340332031 1069.0919189453125 294.8888854980469C1067.8662109375 301.2872314453125 1077.6329345703125 301.4737243652344 1091.382080078125 303.30389404296875C1105.1324462890625 305.1347351074219 1117.5191650390625 306.8536682128906 1117.507080078125 307.5556640625C1117.4970703125 308.25909423828125 1100.5133056640625 310.1622619628906 1097.3365478515625 316.4319152832031C1094.1563720703125 322.7024230957031 1096.026123046875 328.5027160644531 1100.6859130859375 330.3063659667969C1105.3470458984375 332.1103820800781 1128.6290283203125 336.4596862792969 1128.880859375 335.86651611328125C1129.1292724609375 335.27294921875 1121.1004638671875 329.44873046875 1120.93701171875 328.3808898925781C1120.7767333984375 327.3141784667969 1131.8875732421875 322.19287109375 1137.2838134765625 320.36041259765625C1142.672607421875 318.52728271484375 1150.416259765625 316.5657958984375 1150.6026611328125 315.5217590332031C1150.7916259765625 314.4778747558594 1148.1343994140625 311.4185485839844 1144.2618408203125 308.281982421875C1140.393798828125 305.1453857421875 1135.64501953125 303.5700988769531 1135.876220703125 302.2467956542969C1136.1029052734375 300.924072265625 1155.6846923828125 298.4862365722656 1180.7498779296875 296.42730712890625C1191.3564453125 295.4250793457031 1202.54443359375 293.1240234375 1217.2200927734375 292.31561279296875C1231.891357421875 291.5078125 1248.3431396484375 290.3921813964844 1260.494140625 292.6583251953125C1272.642578125 294.9250183105469 1289.6427001953125 299.3354797363281 1303.02587890625 307.4545593261719C1316.40673828125 315.5732116699219 1333.4920654296875 331.5357666015625 1335.841064453125 334.2919006347656C1338.1890869140625 337.0484619140625 1341.0567626953125 339.4179992675781 1340.131103515625 340.6250915527344C1339.209228515625 341.8331298828125 1314.9844970703125 338.29058837890625 1301.9088134765625 348.9875183105469C1288.8331298828125 359.6849670410156 1285.400634765625 363.7563781738281 1283.947509765625 371.96929931640625C1282.4937744140625 380.1822509765625 1282.959716796875 385.9149475097656 1284.495361328125 390.3083190917969C1286.0322265625 394.7027893066406 1289.0260009765625 400.5286560058594 1288.104736328125 401.6659851074219C1287.1878662109375 402.80340576171875 1267.31396484375 396.1634216308594 1261.67626953125 404.9508972167969C1256.03662109375 413.7364196777344 1258.459716796875 422.76458740234375 1259.6727294921875 426.78515625C1260.8856201171875 430.80645751953125 1264.1507568359375 434.5731201171875 1263.4613037109375 435.47833251953125C1262.7684326171875 436.3832702636719 1251.0654296875 432.6561279296875 1241.03125 437.68438720703125C1231.00048828125 442.7130126953125 1225.461181640625 447.1408996582031 1225.2960205078125 448.2103576660156C1225.1329345703125 449.2798156738281 1232.737548828125 451.18011474609375 1236.6243896484375 451.94744873046875C1240.509521484375 452.7142639160156 1246.0267333984375 453.6363220214844 1248.7315673828125 453.81170654296875C1251.437255859375 453.98712158203125 1257.8173828125 452.4767761230469 1258.3079833984375 453.5401916503906C1258.8028564453125 454.6037292480469 1248.724853515625 459.63018798828125 1247.122314453125 466.8951110839844C1245.519775390625 474.1597595214844 1245.037353515625 477.22418212890625 1246.7813720703125 481.2807312011719C1248.5283203125 485.3363342285156 1250.518798828125 491.42626953125 1256.6134033203125 491.3991394042969C1262.7030029296875 491.37158203125 1268.1029052734375 490.5469055175781 1270.2642822265625 490.4537048339844C1272.423583984375 490.3608093261719 1275.04296875 489.0264892578125 1275.942626953125 489.60162353515625C1276.840576171875 490.17718505859375 1276.5576171875 490.25006103515625 1276.044921875 490.87652587890625C1275.5362548828125 491.49871826171875 1267.24658203125 494.9985046386719 1264.8397216796875 498.12994384765625C1262.4300537109375 501.25860595703125 1258.8697509765625 507.6441955566406 1259.1427001953125 510.6180725097656C1259.4161376953125 513.5914306640625 1262.430419921875 516.8858642578125 1267.8282470703125 514.6546020507812C1273.2205810546875 512.4216918945312 1274.3753662109375 510.5270080566406 1272.6162109375 517.3118896484375C1270.860595703125 524.0956420898438 1273.281982421875 527.8675537109375 1279.770263671875 526.8325805664062C1286.25927734375 525.8005981445312 1293.8040771484375 524.3645629882812 1299.9991455078125 514.9102172851562C1306.1995849609375 505.4576721191406 1307.82861328125 497.8187255859375 1309.017333984375 488.9801025390625C1310.2108154296875 480.1405334472656 1307.6650390625 468.94586181640625 1303.662353515625 457.84564208984375C1299.6632080078125 446.7448425292969 1298.4139404296875 429.4397888183594 1298.5660400390625 424.28692626953125C1298.7149658203125 419.1330871582031 1299.6680908203125 403.9897155761719 1304.6177978515625 394.971923828125C1309.56884765625 385.9525146484375 1317.3670654296875 375.6636657714844 1324.2037353515625 370.8039245605469C1331.0338134765625 365.9442138671875 1344.4141845703125 359.865234375 1345.5770263671875 358.5799865722656C1346.738037109375 357.2944641113281 1350.6634521484375 353.2307434082031 1349.3602294921875 348.8287353515625C1348.056640625 344.42596435546875 1345.8275146484375 344.0948486328125 1344.489990234375 342.3655700683594C1343.153076171875 340.6361389160156 1342.6812744140625 339.62908935546875 1342.7061767578125 338.87103271484375C1342.732177734375 338.11224365234375 1348.8291015625 334.8094177246094 1353.9215087890625 333.6378479003906C1359.0128173828125 332.4661865234375 1374.0718994140625 332.1756591796875 1380.770751953125 334.34674072265625C1387.4671630859375 336.5171813964844 1400.3282470703125 338.3838806152344 1402.786376953125 340.8903503417969C1405.2442626953125 343.39617919921875 1406.6490478515625 349.8231201171875 1401.703125 357.3397521972656C1396.7537841796875 364.8565979003906 1392.834228515625 373.8945617675781 1391.3231201171875 376.1904296875C1389.8138427734375 378.4862976074219 1384.130859375 387.2229919433594 1382.2169189453125 389.25732421875C1380.2999267578125 391.2914733886719 1376.3658447265625 394.8385009765625 1375.705810546875 394.9358215332031C1375.042236328125 395.03411865234375 1372.6099853515625 395.6742248535156 1372.2808837890625 393.5404357910156C1371.9541015625 391.40692138671875 1369.8511962890625 381.3681335449219 1367.97021484375 377.913818359375C1366.0863037109375 374.4604187011719 1361.55224609375 370.03570556640625 1359.8179931640625 369.3136291503906C1358.0833740234375 368.5914611816406 1348.180908203125 374.5670471191406 1346.3848876953125 376.8896484375C1344.59375 379.2143249511719 1337.23974609375 392.67547607421875 1336.1182861328125 395.5126037597656C1334.9920654296875 398.3504638671875 1331.3828125 411.91387939453125 1331.766357421875 417.4297790527344C1332.1551513671875 422.9456481933594 1335.3638916015625 436.1080017089844 1337.038330078125 441.28521728515625C1338.712646484375 446.4617919921875 1345.807373046875 462.50250244140625 1346.8466796875 465.9967346191406C1347.8800048828125 469.4909362792969 1352.360107421875 488.27294921875 1352.2735595703125 490.3321228027344C1352.1845703125 492.3921203613281 1353.0263671875 510.18682861328125 1351.1591796875 516.447998046875C1349.294921875 522.71044921875 1344.4278564453125 536.1465454101562 1342.94970703125 538.67724609375C1341.4727783203125 541.2105102539062 1330.96826171875 556.2512817382812 1328.1475830078125 559.21240234375C1325.32666015625 562.1744995117188 1315.74609375 571.0825805664062 1308.591552734375 574.3702392578125C1301.4422607421875 577.6607055664062 1291.3218994140625 581.2310791015625 1286.9683837890625 582.5438232421875C1282.6177978515625 583.8573608398438 1254.54296875 583.9617919921875 1247.0521240234375 583.147705078125C1239.5611572265625 582.3319091796875 1218.5086669921875 579.7001342773438 1212.236083984375 578.1671142578125C1205.9617919921875 576.6342163085938 1200.43115234375 575.9959106445312 1200.0245361328125 576.4827270507812C1199.61474609375 576.97412109375 1199.27880859375 584.2734985351562 1194.2615966796875 586.3884887695312C1189.248046875 588.5033569335938 1180.1964111328125 590.1220703125 1175.89794921875 591.3443603515625C1171.5989990234375 592.5675048828125 1159.0198974609375 593.5806884765625 1155.4271240234375 594.0540161132812C1151.8353271484375 594.5247802734375 1135.8958740234375 596.7775268554688 1133.6514892578125 597.4295043945312C1131.4072265625 598.0811157226562 1121.6319580078125 598.6763305664062 1121.156005859375 598.58935546875C1120.6820068359375 598.5062866210938 1118.3009033203125 600.7047119140625 1116.3419189453125 601.2810668945312C1114.384033203125 601.8568725585938 1110.058837890625 601.34423828125 1109.6593017578125 600.2843017578125C1109.2620849609375 599.22705078125 1108.689697265625 599.1903076171875 1108.47802734375 599.2109375C1108.26416015625 599.2328491210938 1107.2578125 600.4954223632812 1106.9537353515625 600.4501953125C1106.6500244140625 600.4033203125 1106.295166015625 599.6678466796875 1105.883056640625 599.604736328125C1105.474365234375 599.5438232421875 1103.0137939453125 601.5662231445312 1102.54638671875 601.7468872070312C1102.0738525390625 601.9284057617188 1101.898193359375 601.8276977539062 1101.6334228515625 601.6870727539062C1101.371826171875 601.5497436523438 1101.2415771484375 600.3357543945312 1101.20703125 600.147705078125C1101.1763916015625 599.9609985351562 1102.0093994140625 597.6300048828125 1102.4700927734375 597.04931640625C1102.9261474609375 596.4697875976562 1101.6131591796875 595.7728271484375 1102.2626953125 595.1596069335938C1102.9114990234375 594.5460205078125 1102.3941650390625 588.9262084960938 1103.1710205078125 584.939208984375C1103.9476318359375 580.952392578125 1108.59765625 577.9713745117188 1110.5479736328125 577.531494140625C1112.4945068359375 577.0953369140625 1116.6700439453125 576.3333740234375 1117.1529541015625 576.131591796875C1117.6318359375 575.9295654296875 1121.77587890625 574.2250366210938 1122.6143798828125 573.57568359375C1123.456298828125 572.9254150390625 1129.1815185546875 571.3258056640625 1129.8997802734375 571.1364135742188C1130.61376953125 570.9496459960938 1133.8675537109375 569.93994140625 1134.5849609375 569.703369140625C1135.3028564453125 569.4688110351562 1136.7750244140625 569.1891479492188 1136.6475830078125 567.5361328125C1136.52197265625 565.8853149414062 1135.5321044921875 563.564697265625 1135.1451416015625 563.3111572265625C1134.7618408203125 563.0560913085938 1122.3065185546875 559.7559204101562 1117.27880859375 557.8818969726562C1112.244873046875 556.0048217773438 1106.5343017578125 553.0534057617188 1105.4599609375 552.2803344726562C1104.38671875 551.507568359375 1103.199462890625 550.3497314453125 1102.6158447265625 550.687744140625C1102.030029296875 551.0247192382812 1102.646484375 553.0369873046875 1101.8902587890625 553.88037109375C1101.1298828125 554.7233276367188 1092.3021240234375 562.1278686523438 1089.199462890625 565.164306640625C1086.0928955078125 568.2030639648438 1082.39697265625 573.8291015625 1079.3131103515625 577.2435913085938C1076.227783203125 580.6561279296875 1074.4073486328125 584.8095703125 1069.6640625 585.7235107421875C1064.917236328125 586.6359252929688 1055.2767333984375 585.0237426757812 1049.81298828125 584.7169799804688C1044.3519287109375 584.4105834960938 1039.9642333984375 583.4205322265625 1035.9521484375 583.8656005859375C1031.939453125 584.3084106445312 1026.0733642578125 585.1480712890625 1025.244140625 584.9515991210938C1024.412841796875 584.7568359375 1023.7301025390625 584.3905029296875 1023.404052734375 584.4109497070312C1023.0836791992188 584.4307250976562 1022.207275390625 584.9022827148438 1021.8340454101562 584.9832763671875C1021.4574584960938 585.0642700195312 1019.90087890625 585.26171875 1019.6130981445312 585.086181640625C1019.3256225585938 584.9086303710938 1018.090576171875 585.0056762695312 1017.8013305664062 585.1256103515625C1017.5116577148438 585.2485961914062 1016.4818115234375 585.52734375 1016.3195190429688 585.435791015625C1016.1585693359375 585.3429565429688 1015.62353515625 584.7275390625 1015.09521484375 584.6926879882812C1014.5632934570312 584.657958984375 1012.7604370117188 584.892822265625 1012.4390258789062 584.80078125C1012.1153564453125 584.711669921875 1009.987060546875 584.689208984375 1008.6107177734375 584.6001586914062C1007.2355346679688 584.5108032226562 1005.8049926757812 584.4883422851562 1005.076171875 584.8646240234375C1004.34912109375 585.2391967773438 1003.0735473632812 585.4161376953125 1002.5162963867188 585.332275390625C1001.9583740234375 585.2471313476562 1001.317626953125 585.7244262695312 1001.15283203125 585.7588500976562C1000.9867553710938 585.79541015625 1000.7234497070312 585.1665649414062 1000.7183837890625 584.8856201171875C1000.7136840820312 584.6045532226562 1001.7821044921875 582.984130859375 1002.33056640625 582.0802612304688C1002.8824462890625 581.1766967773438 1002.65673828125 581.0703125 1003.7864379882812 580.272705078125C1004.9186401367188 579.47802734375 1005.0859985351562 579.3729248046875 1005.6028442382812 579.0078735351562C1006.1220092773438 578.640869140625 1006.5320434570312 578.4097900390625 1006.4938354492188 578.3129272460938C1006.4507446289062 578.2181396484375 1006.18017578125 578.2437744140625 1005.858154296875 578.3657836914062C1005.532470703125 578.4912719726562 1003.3914184570312 579.1685180664062 1002.8073120117188 579.4840087890625C1002.225341796875 579.799560546875 1001.0484008789062 580.5648803710938 1000.506591796875 580.99951171875C999.9615478515625 581.4342651367188 999.1932373046875 582.0662841796875 999.0430908203125 581.8672485351562C998.8912963867188 581.668701171875 998.6890258789062 580.3953247070312 998.7349853515625 580.1101684570312C998.7825927734375 579.8246459960938 1000.3436889648438 575.9918823242188 1000.6025390625 575.6063232421875C1000.8626098632812 575.2252807617188 1001.2113037109375 574.568115234375 1001.7306518554688 574.1549072265625C1002.2484130859375 573.7430419921875 1001.6371459960938 573.4443359375 1001.2180786132812 573.7460327148438C1000.7996826171875 574.0466918945312 999.6531372070312 574.3742065429688 999.5422973632812 574.6460571289062C999.4282836914062 574.92041015625 999.1922607421875 573.9197998046875 999.4277954101562 573.5126953125C999.6661376953125 573.10546875 1000.2217407226562 572.5070190429688 1000.5550537109375 572.0848999023438C1000.8861083984375 571.6608276367188 1001.62890625 571.0507202148438 1001.9696044921875 570.8629150390625C1002.3121948242188 570.671630859375 1001.1593017578125 570.386962890625 1000.7062377929688 570.4973754882812C1000.2523803710938 570.610595703125 999.52001953125 570.3518676757812 999.8283081054688 569.9707641601562C1000.1334838867188 569.5938720703125 1002.4335327148438 567.3944091796875 1003.0594482421875 567.1294555664062C1003.6883544921875 566.8656005859375 1006.7789306640625 565.4493408203125 1007.1107177734375 565.3748168945312C1007.4437255859375 565.3016967773438 1008.192626953125 565.304931640625 1008.4570922851562 565.2285766601562C1008.7178955078125 565.1507568359375 1011.5724487304688 563.4605712890625 1012.9481811523438 563.19482421875C1014.3264770507812 562.932861328125 1016.3992919921875 563.1143188476562 1016.9220581054688 563.3353881835938C1017.4459838867188 563.5590209960938 1019.0263671875 563.7549438476562 1019.4871826171875 563.5038452148438C1019.9488525390625 563.2526245117188 1020.9415283203125 561.6961669921875 1021.5111694335938 561.5941162109375C1022.0800170898438 561.4888305664062 1026.9149169921875 560.6773071289062 1028.5418701171875 560.4791870117188C1030.1744384765625 560.27783203125 1035.5960693359375 559.40869140625 1036.882080078125 559.448486328125C1038.166015625 559.4847412109375 1043.4539794921875 559.943359375 1043.939453125 560.0457763671875C1044.4276123046875 560.1473999023438 1046.6837158203125 560.3676147460938 1046.8482666015625 560.3524169921875C1047.0150146484375 560.34033203125 1048.0325927734375 560.1957397460938 1048.15380859375 560.0848999023438C1048.2786865234375 559.9754638671875 1044.286865234375 559.0833129882812 1040.40966796875 558.5025024414062C1036.536865234375 557.9236450195312 1031.5811767578125 557.0167236328125 1028.1612548828125 556.6532592773438C1024.7418212890625 556.2894897460938 1018.8916625976562 556.1940307617188 1016.8529663085938 556.9044799804688C1014.8155517578125 557.6175537109375 1012.4022827148438 558.3059692382812 1011.8922119140625 558.2259521484375C1011.3807373046875 558.1450805664062 1010.5765991210938 558.609619140625 1010.0111083984375 558.6904907226562C1009.4425048828125 558.771728515625 1008.0911865234375 558.6611328125 1007.4501342773438 558.45654296875C1006.8071899414062 558.2495727539062 1005.8165893554688 557.6214599609375 1005.3726196289062 557.6168823242188C1004.9269409179688 557.6119995117188 1002.8783569335938 557.4312133789062 1001.9431762695312 558.0997924804688C1001.011474609375 558.7654418945312 1000.3192138671875 558.9075317382812 999.9342651367188 559.0716552734375C999.5492553710938 559.2354736328125 998.5669555664062 559.1180419921875 998.545166015625 558.92138671875C998.5242919921875 558.7282104492188 998.9178466796875 557.5376586914062 999.1685180664062 557.16650390625C999.4234619140625 556.7957763671875 1000.612548828125 554.4635009765625 1000.859619140625 554.1801147460938C1001.1068115234375 553.8961181640625 1001.4913330078125 552.88330078125 1001.6620483398438 552.7003173828125C1001.8298950195312 552.5192260742188 1002.1337280273438 551.6408081054688 1002.3490600585938 551.30322265625C1002.5634765625 550.9624633789062 1002.9005126953125 550.3604125976562 1002.8430786132812 550.2072143554688C1002.7852172851562 550.0552978515625 1001.2947387695312 550.5111694335938 1001.1583251953125 550.4674072265625C1001.0186157226562 550.4231567382812 1000.1502685546875 551.0716552734375 999.844482421875 551.1920776367188C999.5391235351562 551.31396484375 998.67822265625 551.2025146484375 998.6135864257812 551.0314331054688C998.5511474609375 550.8604125976562 999.44482421875 549.2506103515625 999.636474609375 549.0322265625C999.8272094726562 548.8134765625 1001.05712890625 548.1041870117188 1001.20556640625 547.9596557617188C1001.3558959960938 547.8148803710938 1002.3445434570312 546.8316040039062 1002.4160766601562 546.632080078125C1002.488037109375 546.4312133789062 1002.6800537109375 545.8497924804688 1002.5703735351562 545.7030029296875C1002.4644165039062 545.5535888671875 1000.8989868164062 545.0194091796875 1000.853759765625 544.7462158203125C1000.80615234375 544.4718627929688 1003.6668090820312 541.1747436523438 1006.0846557617188 540.017578125C1008.5035400390625 538.8588256835938 1009.2734985351562 538.5328979492188 1009.53369140625 538.1744384765625C1009.7901000976562 537.8156127929688 1009.8759765625 536.5064086914062 1010.8896484375 536.057861328125C1011.903076171875 535.6065673828125 1013.6109619140625 535.294189453125 1014.1544799804688 534.908203125C1014.6939697265625 534.5198364257812 1014.5950317382812 534.1505737304688 1015.2053833007812 533.8494873046875C1015.8192138671875 533.548583984375 1026.4630126953125 533.6871337890625 1033.0020751953125 534.7217407226562C1039.5401611328125 535.7571411132812 1044.174072265625 535.8223876953125 1048.0308837890625 532.7872314453125C1051.886474609375 529.7506713867188 1055.5089111328125 521.6796875 1053.7420654296875 516.4968872070312C1051.97216796875 511.31427001953125 1055.0284423828125 514.0000610351562 1049.98095703125 510.2928161621094C1044.9290771484375 506.58624267578125 1041.1710205078125 496.7677001953125 1041.037353515625 494.50750732421875C1040.904541015625 492.24493408203125 1039.6748046875 494.56097412109375 1037.0762939453125 491.33935546875C1034.4761962890625 488.11798095703125 1029.6715087890625 468.61383056640625 1029.0628662109375 465.0535583496094C1028.450439453125 461.4947814941406 1029.544189453125 459.12457275390625 1029.9552001953125 458.58953857421875C1030.367431640625 458.05120849609375 1028.8070068359375 456.1868896484375 1028.559326171875 454.1812744140625C1028.307373046875 452.17498779296875 1029.77490234375 439.2409362792969 1031.0068359375 435.4726257324219C1032.237548828125 431.7041015625 1037.7705078125 421.0335388183594 1038.9376220703125 419.6539001464844C1040.1051025390625 418.27520751953125 1040.702880859375 418.12890625 1040.8848876953125 417.85693359375C1041.06103515625 417.58355712890625 1040.64892578125 415.0252380371094 1041.8319091796875 409.1412353515625C1043.0147705078125 403.2575378417969 1047.330322265625 396.8255310058594 1047.901611328125 395.9707336425781C1048.4713134765625 395.11688232421875 1048.6383056640625 394.70556640625 1048.7125244140625 394.2878723144531C1048.94775390625 392.9718933105469 1046.5867919921875 390.7982482910156 1046.3336181640625 389.1585388183594C1045.9412841796875 386.5982666015625 1046.12548828125 385.90631103515625 1046.2152099609375 385.3021240234375C1046.2996826171875 384.69854736328125 1045.693603515625 383.2156677246094 1044.7464599609375 382.672607421875C1043.797119140625 382.12921142578125 1040.177978515625 385.1452331542969 1033.863037109375 386.4256286621094C1027.546875 387.7059326171875 1022.7744140625 386.4458312988281 1021.4020385742188 386.368896484375C1020.0305786132812 386.2919921875 1001.9423217773438 392.9906005859375 994.1124267578125 397.318115234375C986.2827758789062 401.6444396972656 979.8128051757812 405.26031494140625 978.6555786132812 405.7496337890625C977.4984130859375 406.2381591796875 973.5701293945312 411.802978515625 972.4671020507812 412.20037841796875C971.3626098632812 412.5977783203125 970.7608642578125 413.2159729003906 970.9524536132812 413.8392028808594C971.1455688476562 414.4612121582031 971.389892578125 415.74395751953125 971.63623046875 416.2775573730469C971.88232421875 416.8089294433594 972.5128173828125 417.1961975097656 972.244140625 417.72381591796875C971.974609375 418.2525939941406 971.0956420898438 418.0717468261719 970.8690795898438 417.96368408203125C970.6403198242188 417.8541564941406 969.6328735351562 416.8041076660156 969.3134765625 416.6889953613281C968.9923095703125 416.5742492675781 967.3988647460938 415.86083984375 967.1493530273438 415.3758239746094C966.8992309570312 414.88983154296875 966.4241333007812 415.00006103515625 965.8134765625 414.3031311035156C965.203125 413.6072082519531 959.2175903320312 414.86163330078125 957.196044921875 414.2616882324219C955.1730346679688 413.66046142578125 951.6630859375 412.16595458984375 951.4196166992188 411.5878601074219C951.17724609375 411.0076599121094 950.4984741210938 410.63580322265625 950.158203125 410.8021240234375C949.8191528320312 410.96795654296875 949.7523803710938 412.6996765136719 950.154296875 413.71148681640625C950.5567016601562 414.72296142578125 951.6138916015625 416.1809387207031 951.4698486328125 416.51934814453125C951.3262939453125 416.857421875 950.5614013671875 416.5711975097656 950.2159423828125 416.3435363769531C949.8699951171875 416.1159362792969 944.3123168945312 409.2024841308594 944.1253051757812 407.0791015625C943.936767578125 404.9555969238281 943.9584350585938 404.6475830078125 943.7778930664062 404.5221252441406C943.5971069335938 404.3968505859375 940.5189819335938 404.2159729003906 937.8162231445312 397.5653076171875C935.1156616210938 390.9136657714844 935.1882934570312 388.3832702636719 936.177001953125 384.73876953125C937.16650390625 381.0956726074219 935.4637451171875 378.73223876953125 936.5720825195312 376.2520446777344C938.1376953125 372.7456970214844 943.7465209960938 372.8518371582031 947.8876342773438 371.1952819824219C952.025634765625 369.5404052734375 961.4566650390625 363.3986511230469 966.9215698242188 351.20416259765625C972.0672607421875 339.7252502441406 972.4290771484375 336.0141906738281 972.4336547851562 334.6496276855469C972.4362182617188 333.8047790527344 971.4728393554688 329.9208984375 972.136474609375 326.80975341796875C972.5264282226562 324.9753723144531 981.1044921875 318.5279235839844 984.363525390625 314.03961181640625C987.4359741210938 309.80926513671875 995.044921875 304.078369140625 996.1673583984375 303.4481506347656C997.2850341796875 302.8167419433594 998.0986938476562 302.3341064453125 998.361572265625 302.1349792480469C998.66259765625 301.9090576171875 998.721435546875 299.531005859375 999.1157836914062 298.5235900878906C999.5089111328125 297.5160217285156 1000.463134765625 296.5450439453125 1000.9019165039062 296.2926330566406C1001.3045043945312 296.0380859375 1002.3914184570312 295.8110046386719 1002.7780151367188 295.3542785644531L1002.8265991210938 295.349365234375ZM1139.7320556640625 384.5106506347656C1139.943359375 383.4220275878906 1140.20361328125 373.93499755859375 1139.6522216796875 373.4534606933594C1139.096435546875 372.97186279296875 1135.19189453125 377.6342468261719 1134.29638671875 378.985595703125C1133.39794921875 380.33404541015625 1130.655517578125 384.09893798828125 1130.4486083984375 385.6699523925781C1130.2398681640625 387.2409362792969 1129.7860107421875 389.8153076171875 1131.0924072265625 391.3087158203125C1132.4044189453125 392.80059814453125 1135.8040771484375 395.0638427734375 1136.2840576171875 395.19964599609375C1136.770751953125 395.3371276855469 1137.1273193359375 394.69097900390625 1137.4283447265625 393.86669921875C1137.725830078125 393.0419616699219 1138.64306640625 389.29937744140625 1138.8568115234375 388.1868896484375C1139.0611572265625 387.083251953125 1139.5079345703125 385.6139221191406 1139.720947265625 384.5211486816406L1139.7320556640625 384.5106506347656ZM1130.1483154296875 338.482666015625C1129.3677978515625 337.727783203125 1122.166015625 341.2036437988281 1120.45068359375 344.3294677734375C1118.73486328125 347.4570617675781 1115.9237060546875 351.18133544921875 1116.876220703125 354.8690490722656C1117.8265380859375 358.5555725097656 1121.4168701171875 360.61944580078125 1124.2484130859375 360.8731994628906C1127.07763671875 361.12603759765625 1131.5277099609375 363.42120361328125 1133.7491455078125 363.847900390625C1135.9739990234375 364.2727355957031 1137.116455078125 365.05108642578125 1137.607666015625 364.48565673828125C1138.103759765625 363.92022705078125 1137.0537109375 353.18597412109375 1136.1328125 351.1195983886719C1135.21533203125 349.0547790527344 1134.0706787109375 345.6468505859375 1133.6995849609375 345.01348876953125C1133.330322265625 344.385009765625 1130.9283447265625 339.2408447265625 1130.1524658203125 338.4878234863281L1130.1483154296875 338.482666015625Z" name="undefined" id="kPvEkLJqsZC8RsWy6" type="complex_path" stroke="#000000" stroke-width="0" stroke-opacity="1" fill="#2c3410" fill-opacity="1" stroke-linejoin="miter" stroke-linecap="butt" opacity="1"/><path d="M769.0054720996616 623.0084738940301C783.8071078418491 567.0151877612176 859.8692416309116 458.2074485034051 944.2626742480991 383.4217124194207C822.9759921191928 461.8085532397332 775.1415194629428 465.46434547606134 721.0198763965366 456.33620216551446C653.4480380176303 446.27370216551446 587.6267489551303 509.7999778002801 722.9429720996616 501.46519996824884C669.3453768848178 537.1180319994988 673.2862338184116 602.5445456713738 724.6233309863803 585.5924582690301C668.3879183887241 652.2547507494988 752.5698641895053 680.0776267260613 768.7263583301303 621.9152732104363" name="http://lore-mbp.local:3000/icons/black_kitty_1024x1024.jpg" id="54LyjbTqwNuKWgNEk" type="complex_path" stroke="#000000" stroke-width="0" stroke-opacity="1" fill="#ca1d1d" fill-opacity="0.5877391264290384" stroke-linejoin="miter" stroke-linecap="butt" opacity="1"/><path d="M276.79624617603736,173.24818998625608 160.82403243092017,688.7900601034436" id="5qmHMqmMvrny4j5RA" type="simple_path" name="http://lore-mbp.local:3000/icons/black_kitty_1024x1024.jpg" stroke="#000000" stroke-width="5" stroke-opacity="0.3653513488612941" fill="#000000" fill-opacity="0" stroke-dasharray="30,40" stroke-linejoin="round" stroke-linecap="round" opacity="1"/><path d="M470.41962835735615,206.30583043138768 354.4473993534499,721.8477310661533" id="8R8LxdPXHdS977SCh" type="simple_path" name="http://lore-mbp.local:3000/icons/black_kitty_1024x1024.jpg" stroke="#000000" stroke-width="8" stroke-opacity="0.3653513488612941" fill="#000000" fill-opacity="0" stroke-dasharray="30,40" stroke-linejoin="round" stroke-linecap="round" opacity="1"/><text xml:space="preserve" id="9JYLxS5WBvLZapt2Q" x="706.9564985091188" y="211.5068930025886" stroke="#7f7f7f" stroke-width="0" stroke-opacity="1" fill="#000000" fill-opacity="1" stroke-linejoin="round" stroke-linecap="round" opacity="1" font-size="51" font-family="Sans-serif" font-weight="bold" text-anchor="middle"><tspan dy="64.77" x="706.9564985091188">will keep you efficient despite any a challenge.</tspan></text><path d="M334.25360842799364,151.20972701240555 218.28136416529833,666.7516581647493" id="BmNgQeEFhqB63keed" type="simple_path" name="http://lore-mbp.local:3000/icons/black_kitty_1024x1024.jpg" stroke="#000000" stroke-width="6" stroke-opacity="0.3653513488612941" fill="#000000" fill-opacity="0" stroke-dasharray="30,40" stroke-linejoin="round" stroke-linecap="round" opacity="1"/><path d="M218.55181686554,204.7316650695568 102.57958786163374,720.2735657043224" id="BqWwLFX2xjJDSXxtT" type="simple_path" name="http://lore-mbp.local:3000/icons/black_kitty_1024x1024.jpg" stroke="#000000" stroke-width="3" stroke-opacity="0.3653513488612941" fill="#000000" fill-opacity="0" stroke-dasharray="30,40" stroke-linejoin="round" stroke-linecap="round" opacity="1"/><path d="M560.9345261429387,216.5379370440894 444.96232765661057,732.079822420066" id="GD46qoM9JkKfT5j9L" type="simple_path" name="http://lore-mbp.local:3000/icons/black_kitty_1024x1024.jpg" stroke="#000000" stroke-width="5" stroke-opacity="0.3653513488612941" fill="#000000" fill-opacity="0" stroke-dasharray="30,40" stroke-linejoin="round" stroke-linecap="round" opacity="1"/><path d="M605.0114661648483,233.0667854092103 489.0392371609421,748.608701302765" id="WmzfZXCWPsTwKHJpZ" type="simple_path" name="http://lore-mbp.local:3000/icons/black_kitty_1024x1024.jpg" stroke="#000000" stroke-width="1" stroke-opacity="0.3653513488612941" fill="#000000" fill-opacity="0" stroke-dasharray="30,40" stroke-linejoin="round" stroke-linecap="round" opacity="1"/><path d="M520.0060822166537,183.48031616210938 404.03388373032556,699.022216796875" id="a6ptbNyaNDMP5HYa7" type="simple_path" name="http://lore-mbp.local:3000/icons/black_kitty_1024x1024.jpg" stroke="#000000" stroke-width="6" stroke-opacity="0.3653513488612941" fill="#000000" fill-opacity="0" stroke-dasharray="30,40" stroke-linejoin="round" stroke-linecap="round" opacity="1"/><path d="M374.3950345789275,192.9253612638525 258.42280557502124,708.4672618986182" id="asebvkJupj6daSATu" type="simple_path" name="http://lore-mbp.local:3000/icons/black_kitty_1024x1024.jpg" stroke="#000000" stroke-width="11" stroke-opacity="0.3653513488612941" fill="#000000" fill-opacity="0" stroke-dasharray="30,40" stroke-linejoin="round" stroke-linecap="round" opacity="1"/><path d="M430.2782001656633,170.09983273270944 314.30597116175704,685.6416875911079" id="k4kf737chncerBvfo" type="simple_path" name="http://lore-mbp.local:3000/icons/black_kitty_1024x1024.jpg" stroke="#000000" stroke-width="6" stroke-opacity="0.3653513488612941" fill="#000000" fill-opacity="0" stroke-dasharray="30,40" stroke-linejoin="round" stroke-linecap="round" opacity="1"/><path d="M592.4739990234375 752.5601806640625C622.2207641601562 732.2495727539062 687.7482299804688 614.6331176757812 761.5723876953125 605.9368896484375C833.4476318359375 595.47314453125 925.40234375 535.5626831054688 1036.000732421875 532.9337768554688C1241.9951171875 532.4667358398438 1382.1461181640625 720.14306640625 1510.3450927734375 754.4252319335938" name="http://lore-mbp.local:3000/icons/black_kitty_1024x1024.jpg" id="wcXA5Pqebdi3PL5BA" type="complex_path" stroke="#568756" stroke-width="21" stroke-opacity="0.5718542851742016" fill="#bec8c2" fill-opacity="1" stroke-linejoin="miter" stroke-linecap="round" opacity="1"/><g id="jsT4emm4QGXKnciQD" type="simpleGroup"/></g></g></svg>