<svg xmlns="http://www.w3.org/2000/svg" xmlns:xlink="http://www.w3.org/1999/xlink" width="512" height="512" onload="init()" id="HFsgKaiXyYk68YfX7"><script type="application/javascript"> <![CDATA[ 
function init(){}
 ]]> </script><g id="viewport" transform="matrix(0.5 0 0 0.5 0 0)"><g id="hGcw4k9g8p7wGi9cY" type="layer"><title>hGcw4k9g8p7wGi9cY</title><g id="BpQQJAfjsn9Qr2tsc" type="simpleGroup"><path d="M560.0136125302365 237.09606578061658C648.8740251278928 290.1776545257338 686.974427959924 344.1941950530775 725.0449235653928 421.2256891937025C763.1153581357053 498.2570307464369 784.9078996396115 595.7643549651871 784.9078996396115 595.7643549651871C733.0436418271115 829.0301630706558 688.276185772424 807.0284540862808 639.1146867489865 771.0561030120621C605.9766862607053 746.8085444183121 570.6563737607053 697.2234614104996 550.4340226864865 632.7774775237808C524.3919694638303 549.7850458831558 532.0438859677365 488.23402049253065 542.7301042294553 409.9529230804213C556.816224834924 306.7667658538588 560.0136735653928 237.09606578061658 560.0136735653928 237.09606578061658L560.0136125302365 237.09606578061658Z" name="undefined" id="mCsAr6EALFW7NayF3" type="complex_path" stroke="#000000" stroke-width="0" stroke-opacity="1" fill="#cdd0d2" fill-opacity="1" stroke-linejoin="miter" stroke-linecap="butt" opacity="1"/><path d="M278.7599656796506 282.1939509124525C251.70527817965058 392.667217514015 215.63237168550995 406.194561264015 253.95985581636933 503.1404535979994C294.5418565487912 600.0863764495621 303.56010606050995 604.5954706878433 328.3602159237912 627.1410639495621C355.4149034237912 649.6865961761246 368.9422471737912 656.4502680511246 364.4331224179318 667.7230951995621C362.1785752987912 678.9958613128433 337.3784349179318 706.0505488128433 359.92399766207245 717.3233149261246C382.4695909237912 730.8506586761246 456.8699510312131 739.8689081878433 529.0157029843381 681.2504389495621C605.6706712460568 618.1228144378433 625.9616868710568 557.2498285979996 637.2344529843381 509.9041254729995C650.7617967343381 464.81299998471815 616.9434373593381 338.557842514015 592.1433274960568 295.7212946624525C567.3432176327756 252.88468577573377 278.7599656796506 282.1939509124525 278.7599656796506 282.1939509124525Z" name="undefined" id="WfrLu7h2oPeCddqWJ" type="complex_path" stroke="#000000" stroke-width="8" stroke-opacity="1" fill="#cdd0d2" fill-opacity="1" stroke-linejoin="miter" stroke-linecap="butt" opacity="1"/><path d="M366.6876847958615 234.84826304624158C366.6876847958615 234.84826304624158 427.5607011532834 302.4849665374525 447.8517167782834 322.7759821624525C470.3972490048459 343.0669367522963 594.3978593564084 304.739483139015 594.3978593564084 304.739483139015C594.3978593564084 304.739483139015 574.1069047665646 252.88468577573377 542.5430619931271 228.08459117124158C510.9792802548459 203.28448130796033 531.2702958798459 284.448467514015 506.47018601656464 286.7030451507338C481.6700761532834 286.7030451507338 366.6876847958615 234.84826304624158 366.6876847958615 234.84826304624158Z" name="undefined" id="seo9u2YRY5Shqbh9d" type="complex_path" stroke="#null" stroke-width="1" stroke-opacity="1" fill="#cdd0d2" fill-opacity="1" stroke-linejoin="miter" stroke-linecap="butt" opacity="1"/><path d="M560.5795610165646 273.1757014007338C605.6706865048459 293.4667475433119 594.3978593564084 277.684795639015 610.1797807431271 297.975811264015C625.9617021298459 316.0122797698744 655.2709062314084 397.1763117522963 655.2709062314084 446.7765619964369C657.5254838681271 496.3767817229994 628.2162187314084 568.5225947112808 587.6342485165646 613.6137201995621C553.8158891415646 651.9411738128433 540.2885453915646 672.2321894378433 515.4884355282834 685.7595331878433C492.94284226656464 699.2868769378433 560.5795610165646 273.1757014007338 560.5795610165646 273.1757014007338Z" name="undefined" id="XW6fRka3mJs6KJekE" type="complex_path" stroke="#null" stroke-width="1" stroke-opacity="1" fill="#cdd0d2" fill-opacity="1" stroke-linejoin="miter" stroke-linecap="butt" opacity="1"/><path d="M429.81527879000214 672.2321894378433C429.81527879000214 672.2321894378433 443.34262254000214 683.5049555511246 438.83346726656464 699.2868769378433C434.3243730282834 715.0687372894058 429.81527879000214 726.3415644378433 420.7970292782834 726.3415644378433C411.7788408017209 726.3415644378433 432.06979539156464 730.8506586761246 436.57895066500214 724.0869868011246C443.34262254000214 717.3233149261246 447.8517167782834 706.0505488128433 447.8517167782834 694.7777826995621C445.59713914156464 681.2504389495621 436.57895066500214 676.7412836761246 429.81527879000214 672.2321894378433Z" name="undefined" id="Aqdyx7HQsf74rZgwn" type="complex_path" stroke="#null" stroke-width="1" stroke-opacity="1" fill="#000000" fill-opacity="1" stroke-linejoin="miter" stroke-linecap="butt" opacity="1"/><path d="M382.46960618258026 701.5414545745621C382.46960618258026 701.5414545745621 389.23327805758026 701.5414545745621 389.23327805758026 694.7777826995621C389.23327805758026 685.7595331878433 382.46960618258026 685.7595331878433 382.46960618258026 685.7595331878433C382.46960618258026 685.7595331878433 384.7241533017209 688.0141108245621 384.7241533017209 692.5232050628433C384.7241533017209 697.0322993011246 377.9604814267209 699.2868769378433 382.46960618258026 701.5414545745621Z" name="undefined" id="xpK4oh3g54ac5hRDQ" type="complex_path" stroke="#null" stroke-width="1" stroke-opacity="1" fill="#000000" fill-opacity="1" stroke-linejoin="miter" stroke-linecap="butt" opacity="1"/><path d="M192.2685411191037 274.80076243589C150.5138261532834 311.0321467132338 111.01294114351776 351.46717478940565 110.97860886812714 403.4707758636244C110.92846848726776 479.4230463714369 146.2012040829709 498.68513133237445 146.2012040829709 498.68513133237445C146.2012040829709 498.68513133237445 137.89595200777558 473.65613963315565 143.90886094332245 458.62501170346815C152.87297227144745 436.2191889495619 162.01396348238495 418.54200389096815 162.01396348238495 418.54200389096815C162.01396348238495 418.54200389096815 153.94560410738495 506.6624872894057 188.9999864316037 564.5903437347183C220.50184800386933 616.6474726409683 251.09462144136933 650.7263300628433 274.2451341366818 662.1496699065933C298.00029160738495 673.8712885589371 338.06059434175995 702.1640131683121 338.06059434175995 702.1640131683121C338.06059434175995 702.1640131683121 322.3951585507443 691.6475947112808 317.2602708554318 641.9490473479996C315.1190049862912 621.2243159026871 328.7651231503537 609.7071039886246 329.9876573300412 584.1728632659683C332.0958421444943 540.1399653167496 319.6247117734006 500.45673777768695 319.6247117734006 500.45673777768695C319.6247117734006 500.45673777768695 322.4543321347287 522.8089106292496 359.95207383394745 537.8629267425308C375.2012803769162 543.9849360198746 423.7245652890256 533.1569941253433 423.7245652890256 533.1569941253433C423.7245652890256 533.1569941253433 369.7101915097287 507.05799510190576 363.5999925351193 467.0939448089369C362.6121995663693 460.6333735198744 378.6997850155881 467.07117869565565 398.5988328671506 464.0084955901869C413.2469041562131 461.7541010589369 447.2050950741818 459.69056346128065 447.2050950741818 459.69056346128065C447.2050950741818 459.69056346128065 384.7345140194943 412.86179759214 395.7119920468381 356.0267145843275C408.4885118222287 289.8938410491713 436.6018235898068 279.9444086761244 459.7494065976193 255.00541331479627C469.7461106991818 244.23502757260877 448.4236619687131 216.6543238372572 411.6083543515256 199.96331431577283C390.8759324765256 190.56390025327283 239.76387192965058 233.58813121030408 192.26857163668183 274.8007319183119L192.2685411191037 274.80076243589Z" name="undefined" id="ufbFyJi24sqwdAbcn" type="complex_path" stroke="#null" stroke-width="1" stroke-opacity="1" fill="#434344" fill-opacity="1" stroke-linejoin="miter" stroke-linecap="butt" opacity="1"/><path d="M456.6554277157834 178.0628931731947C655.0564286923459 157.77189280698377 738.9468095517209 294.7512934417494 824.6199662900021 503.29774119565565C910.2931230282834 711.8442499847183 774.9980180478146 850.2166254729996 723.4906327939084 821.9014399261246C671.9832475400021 793.5862543792496 729.9420488095334 683.7132685394058 721.9101884579709 622.9811518401871C713.8783281064084 562.2490351409683 636.5473344540646 253.40223338315565 530.4572465634396 234.95177867124158Z" name="undefined" id="nTJchTkG8hqEmvQYA" type="complex_path" stroke="#000000" stroke-width="0" stroke-opacity="1" fill="#434344" fill-opacity="1" stroke-linejoin="miter" stroke-linecap="butt" opacity="1"/><path d="M585.3796708798459 295.7212946624525C558.3249833798459 239.35735728452283 538.0339677548459 192.01165415952283 454.6153886532834 164.9569819183119C368.94226243258026 135.6477320403822 323.8511064267209 153.68418528745252 319.34201218843964 160.44785716245252C314.83288743258026 169.46610667417127 323.8511064267209 212.30270030210096 371.1968095517209 257.3938410491713C416.28793504000214 302.4849665374525 490.6882646298459 329.5396540374525 585.3796708798459 295.7212946624525Z" name="undefined" id="Hr65MmKqRagvdRAPX" type="complex_path" stroke="#null" stroke-width="1" stroke-opacity="1" fill="#cdd0d2" fill-opacity="1" stroke-linejoin="miter" stroke-linecap="butt" opacity="1"/><path d="M401.89096238375214 162.90044810483533C401.89096238375214 162.90044810483533 446.9820878720334 180.9369166106947 465.01852586031464 212.5007593841322C480.8004472470334 241.80994822690565 480.8004472470334 262.10096385190565 480.8004472470334 262.10096385190565C480.8004472470334 262.10096385190565 469.5276200985959 221.51897837827283 442.47299363375214 198.9734156341322C415.41830613375214 174.1732447356947 401.89096238375214 162.90047862241346 401.89096238375214 162.90047862241346Z" name="undefined" id="jRBccdwuhdEQyJRfS" type="complex_path" stroke="#null" stroke-width="1" stroke-opacity="1" fill="#000000" fill-opacity="1" stroke-linejoin="miter" stroke-linecap="butt" opacity="1"/></g></g></g></svg>