<svg xmlns="http://www.w3.org/2000/svg" xmlns:xlink="http://www.w3.org/1999/xlink" width="72.4" height="51.2" onload="init()" id="oqHzDWD8ghTvurt2i"><script type="application/javascript"> <![CDATA[ 
function init(){}
 ]]> </script><g id="viewport" transform="matrix(0.05 0 0 0.05 0 0)"><g id="ozCwsrGr95jKXW8uH" type="layer"><title>ozCwsrGr95jKXW8uH</title><path d="M-3.406700372695923,733.6544799804688 1448.4989013671875,733.6544799804688 1448.4989013671875,1027.059326171875 -3.406700372695923,1027.059326171875 -3.406700372695923,733.6544799804688Z" id="RqaApKSWp7E6Htyhh" type="simple_path" name="http://lore-mbp.local:3000/icons/black_kitty_1024x1024.jpg" stroke="#000000" stroke-width="0" stroke-opacity="1" fill="#bec8c2" fill-opacity="1" stroke-linejoin="miter" stroke-linecap="butt" opacity="1"/><path d="M-22.07780647277832 740.0477905273438C26.800546646118164 719.94677734375 169.7650909423828 697.3804321289062 251.893798828125 630.1423950195312C335.1458740234375 567.8671875 436.0207214355469 450.833251953125 617.7494506835938 448.23138427734375C743.3045654296875 448.787353515625 878.7120361328125 447.76495361328125 965.970458984375 451.7241516113281C1056.7467041015625 453.045166015625 1380.784912109375 724.929443359375 1486.10888671875 741.8941650390625" name="http://lore-mbp.local:3000/icons/black_kitty_1024x1024.jpg" id="48eTRZH7dQXweCbSu" type="complex_path" stroke="#568756" stroke-width="21" stroke-opacity="0.5718542851742016" fill="#bec8c2" fill-opacity="1" stroke-linejoin="miter" stroke-linecap="round" opacity="1"/><path d="M753.7708740234375,393.63275146484375 786.558837890625,393.63275146484375 786.558837890625,444.61468505859375 753.7708740234375,444.61468505859375 753.7708740234375,393.63275146484375Z" id="54XL4ztj68q3Nougd" type="simple_path" name="http://lore-mbp.local:3000/icons/black_kitty_1024x1024.jpg" stroke="#000000" stroke-width="0" stroke-opacity="1" fill="#bec8c2" fill-opacity="1" stroke-linejoin="miter" stroke-linecap="butt" opacity="1"/><path d="M155.19255419777073,572.9329639355667 301.8174702744309,772.9748721997269 541.1314046006028,554.1561008374222 1340.716914854509,561.5196796338089 738.1367756943528,745.9753604809769" id="g9hYqTGL82i8PTYER" type="simple_path" name="http://lore-mbp.local:3000/icons/black_kitty_1024x1024.jpg" stroke="#000000" stroke-width="2" stroke-opacity="0.01588484125483893" fill="#000000" fill-opacity="0" stroke-linejoin="miter" stroke-linecap="butt" opacity="1"/><path d="M824.2508544921875,190.41151428222656Z" id="wChJ62rnPYBoK9iCi" type="simple_path" name="http://lore-mbp.local:3000/icons/black_kitty_1024x1024.jpg" stroke="#000000" stroke-width="0" stroke-opacity="1" fill="#000000" fill-opacity="1" stroke-linejoin="miter" stroke-linecap="butt" opacity="1"/><path d="M1249.0587460173792,119.69502418049478 1248.3951717986292,122.97657935627603 1246.9416805876917,126.41902320393228 1244.5884091033167,129.8623139143815 1241.2507626189417,133.107064890944 1236.8801571501917,135.9162689925065 1231.4764706267542,138.02008979328775 1225.0990292205042,139.12323920735025 1217.8782040251917,138.9157807112565 1210.0256649626917,137.0876557112565 1201.8410946501917,133.34674994953775 1193.7179257048792,127.43983619221353 1186.1418759001917,119.17714087971353 1179.6867977751917,108.45887916096353 1175.0024716033167,95.30311744221353 1172.7955624236292,79.87367408283853 1173.8027645720667,62.50636069782877 1178.7555233611292,43.73206870564127 1188.3362118376917,24.293563532911776 1203.1264950408167,5.154684710585116 1223.5492245330042,-12.501260113633634 1249.8039852751917,-27.286140751756193 1281.8019100798792,-37.637216877854826 1319.0987850798792,-41.86478645793295 1360.8345028533167,-38.21903450480795 1405.6795956267542,-24.976570439256193 1451.7982479705042,-0.5470669983992593ZM1247.4645077361292,118.42439429768228 1244.6748348845667,120.27559058674478 1241.2129208220667,121.68196265705728 1237.1140438689417,122.45271461018228 1232.4596249236292,122.38697974690103 1227.3828426970667,121.28297584065103 1222.0741268767542,118.94954078205728 1216.7845760955042,115.22004859455728 1211.8253475798792,109.96748511799478 1207.5654598845667,103.12214820393228 1204.4233700408167,94.68965308674478 1202.8562313689417,84.76881568440103 1203.3418270720667,73.56913917072916 1206.3563534392542,61.42576377400064 1212.3464657439417,48.81089560993814 1221.6961971892542,36.34007041462564 1234.6888729705042,24.7717434645524 1251.4664608611292,14.998461413465975 1271.9861141814417,8.02794520863199 1295.9776913298792,4.953055071913241 1322.9033505095667,6.909475970350741 1351.9227596892542,15.019945788465975 1381.8680721892542,30.3265530348649 1411.2302548064417,53.71009604939127 1438.1639706267542,85.79969947346353 1460.5104061736292,126.87379615315103 1475.8469540251917,176.75887458332681ZM1247.2356259001917,116.39851539143228 1243.9541317595667,115.73500220783853 1240.5116268767542,114.28151099690103 1237.0683895720667,111.92817847736978 1233.8236385955042,108.59053199299478 1231.0144344939417,104.21998755940103 1228.9105526580042,98.81624000080728 1227.8074032439417,92.43879859455728 1228.0149227751917,85.21791236408853 1229.8430477751917,77.36531226643228 1233.5840145720667,69.18080298908853 1239.4908749236292,61.05756919392252 1247.7535702361292,53.48158042439127 1258.4718319548792,47.02650229939127 1271.6275936736292,42.34217612751627 1287.0570370330042,40.13520591267252 1304.4243466033167,41.14240806111002 1323.1986385955042,46.09516685017252 1342.6371151580042,55.67585532673502 1361.7759091033167,70.46620337971353 1379.4319149626917,90.88899390705728 1394.2168270720667,117.14381568440103 1404.5679012908167,149.14174811848306 1408.7954403533167,186.43862311848306 1405.1496884001917,228.17434089192056 1391.9072567595667,273.0193726302018 1367.4776913298792,319.13808600910806ZM1248.5063778533167,114.80427711018228 1246.6551815642542,112.01466529377603 1245.2488094939417,108.55269019611978 1244.4780575408167,104.45387427815103 1244.5437313689417,99.79939429768228 1245.6477352751917,94.72255103596353 1247.9811092986292,89.41389625080728 1251.7106014861292,84.12434546955728 1256.9632870330042,79.16511695393228 1263.8085018767542,74.90516822346353 1272.2411190642542,71.76304786213541 1282.1618954314417,70.19587867268228 1293.3614803923792,70.68144385822916 1305.5049130095667,73.69600074299478 1318.1197811736292,79.68623511799478 1330.5906063689417,89.03596656330728 1342.1588436736292,102.02864234455728 1351.9321591033167,118.80623023518228 1358.9027401580042,139.32587592610025 1361.9775692595667,163.31746833332681 1360.0211483611292,190.24312751301431 1351.9106747283167,219.26259772785806 1336.6040341033167,249.20784919270181 1313.2206112517542,278.57009284504556 1281.1310116423792,305.5037476302018 1240.0569149626917,327.8501831770768 1190.1719051970667,343.1867310286393ZM1250.5321346892542,114.57545630940103 1251.1957089080042,111.29390113361978 1252.6492001189417,107.85145728596353 1255.0025936736292,104.40815894611978 1258.3402401580042,101.16340796955728 1262.7107235564417,98.35420386799478 1268.1145321501917,96.25038306721353 1274.4919735564417,95.14723365315103 1281.7127987517542,95.35469214924478 1289.5653378142542,97.18281714924478 1297.7499081267542,100.92372291096353 1305.8730770720667,106.83064429768228 1313.4490048064417,115.09333961018228 1319.9040829314417,125.81160132893228 1324.5884091033167,138.96735541828775 1326.7954403533167,154.39687507160806 1325.7882382048792,171.76412360676431 1320.8354794158167,190.53841559895181 1311.2547909392542,209.97689216145181 1296.4645077361292,229.11574714192056 1276.0417782439417,246.77175300129556 1249.7868954314417,261.5566040755143 1217.7889706267542,271.9076782942643 1180.4922176970667,276.13527839192056 1138.7564999236292,272.4894654036393 1093.9114071501917,259.2470337630143 1047.7927548064417,234.81752936848306ZM1252.1263729705042,115.84614722736978 1254.9160458220667,113.99495093830728 1258.3779598845667,112.58851783283853 1262.4768368376917,111.81782691486978 1267.1312557830042,111.88350074299478 1272.2081600798792,112.98756568440103 1277.5167538298792,115.32093970783853 1282.8064266814417,119.05043189533853 1287.7655331267542,124.30299537190103 1292.0255428923792,131.14826362141275 1295.1676327361292,139.58088080891275 1296.7347714080042,149.50167243488931 1296.2491757048792,160.70131843098306 1293.2346493376917,172.84469001301431 1287.2445370330042,185.45955817707681 1277.8948055876917,197.93038337238931 1264.9020077361292,209.49868171223306 1248.1245419158167,219.27199714192056 1227.6048885955042,226.24251716145181 1203.6133114470667,229.31740729817056 1176.6876522673792,227.36098639973306 1147.6681210173792,219.25051276692056 1117.7229305876917,203.94387214192056 1088.3607479705042,180.56038825520181 1061.4270321501917,148.47077338703775 1039.0805966033167,107.39674537190103 1023.7441097869105,57.51157920368814ZM1252.3552548064417,117.87196509846353 1255.6368710173792,118.53553931721353 1259.0792538298792,119.98896949299478 1262.5224911345667,122.34236304768228 1265.7672421111292,125.68000953205728 1268.5764462126917,130.0505463362565 1270.6803280486292,135.45429389485025 1271.7834774626917,141.831674265944 1271.5759579314417,149.05251472004556 1269.7478329314417,156.90517585285806 1266.0069882048792,165.08968513020181 1260.1000057830042,173.21285407551431 1251.8374325408167,180.78890388020181 1241.1191708220667,187.24392097004556 1227.9632870330042,191.92824714192056 1212.5338436736292,194.13527839192056 1195.1666561736292,193.12807624348306 1176.3923641814417,188.17531745442056 1156.9538876189417,178.59462897785806 1137.8149716033167,163.80422370442056 1120.1590878142542,143.381478953444 1105.3741757048792,117.12672584065103 1095.0231014861292,85.12874000080728 1090.7955624236292,47.83186118611002 1094.4413143767542,6.096151995741366 1107.6837460173792,-38.74894173137045 1132.1133114470667,-84.86759026042319ZM1251.0846249236292,119.46620337971353 1252.9358212126917,122.25581519611978 1254.3421932830042,125.71779029377603 1255.1129452361292,129.81659858235025 1255.0472714080042,134.471078562819 1253.9431454314417,139.54792182453775 1251.6097714080042,144.856576609694 1247.8802792205042,150.14614264973306 1242.6277157439417,155.10537116535806 1235.7823788298792,159.36531989582681 1227.3498837126917,162.50740973957681 1217.4289852751917,164.07454841145181 1206.2295223845667,163.58901374348306 1194.0860897673792,160.57448737629556 1181.4712216033167,154.58425300129556 1169.0003964080042,145.234506297194 1157.4320370330042,132.241830515944 1147.6587216033167,115.46431128986978 1140.6882626189417,94.94459693440103 1137.6133114470667,70.95298926838541 1139.5697323455042,44.02729575642252 1147.6802059783167,15.007860827528475 1162.9868466033167,-14.937417340196134 1186.3703915251917,-44.29963905803061 1218.4598690642542,-71.23332054606772 1259.5339657439417,-93.57974846354819 1309.4190975798792,-108.91626579753256Z" id="zPKczWXY5sSRN4nvd" type="simple_path" name="undefined" stroke="#bec8c2" stroke-width="4" stroke-opacity="0.4447755551354885" fill="#bec8c2" fill-opacity="0.20650293631290537" stroke-linejoin="round" stroke-linecap="round" opacity="1"/><path d="M124.51128579283431,99.21410600816554 271.13619424009994,299.2560219017204 510.4501438250609,80.43724291002101 1310.0356845965453,87.80082170640773 707.4554844012328,272.2565101829704" id="3NwiuEELe8BZrKYZM" type="simple_path" name="http://lore-mbp.local:3000/icons/black_kitty_1024x1024.jpg" stroke="#000000" stroke-width="0" stroke-opacity="1" fill="#000000" fill-opacity="0" stroke-linejoin="miter" stroke-linecap="butt" opacity="1"/><path d="M1175.4912109375,821.0830078125Z" id="SB7z4Fur6ksoXkSzC" type="simple_path" name="http://lore-mbp.local:3000/icons/black_kitty_1024x1024.jpg" stroke="#000000" stroke-width="0" stroke-opacity="1" fill="#000000" fill-opacity="1" stroke-linejoin="miter" stroke-linecap="butt" opacity="1"/><text xml:space="preserve" id="Xf7prEKAZqFmg2ebN" x="755.1071361280804" y="663.2042019609202" stroke="#7f7f7f" stroke-width="0" stroke-opacity="1" fill="#000000" fill-opacity="1" stroke-linejoin="round" stroke-linecap="round" opacity="1" font-size="81" font-family="Sans-serif" font-weight="bold" text-anchor="middle"><tspan dy="102.87" x="755.1071361280804">This is Kuip. Welcome to our Keep.</tspan></text><path d="M634.9207693300815,239.36372983025018 667.708733197269,239.36372983025018 667.708733197269,290.3456634240002 634.9207693300815,290.3456634240002 634.9207693300815,239.36372983025018Z" id="8HATbNZMH9Ns73vyL" type="simple_path" name="http://lore-mbp.local:3000/icons/black_kitty_1024x1024.jpg" stroke="#000000" stroke-width="0" stroke-opacity="1" fill="#bec8c2" fill-opacity="1" stroke-linejoin="miter" stroke-linecap="butt" opacity="1"/><path d="M870.2597238715108,240.15080869940113 903.0476877386983,240.15080869940113 903.0476877386983,291.1327575519402 870.2597238715108,291.1327575519402 870.2597238715108,240.15080869940113Z" id="xYyw3uRyCFyNvM57W" type="simple_path" name="http://lore-mbp.local:3000/icons/black_kitty_1024x1024.jpg" stroke="#000000" stroke-width="0" stroke-opacity="1" fill="#bec8c2" fill-opacity="1" stroke-linejoin="miter" stroke-linecap="butt" opacity="1"/><path d="M890.7078754055117 126.12648583775581L890.7078754055117 121.30501366978706L885.2142230617617 121.30501366978706L885.2142230617617 193.24905206090034L882.2209979641054 193.24905206090034L882.2209979641054 176.22057916050971L864.1439105617617 176.22057916050971L864.1439105617617 193.24905206090034L852.3453876125429 193.24905206090034L852.3453876125429 176.22057916050971L834.2714740383242 176.22057916050971L834.2714740383242 193.43777276402534L834.3083392726992 193.43777276402534L845.4027606594179 252.24819756871284L834.2714740383242 252.24819756871284L834.2714740383242 289.2413463724238L823.0624896633242 289.2413463724238L823.0624896633242 272.9663829935175L804.9850970851992 272.9663829935175L804.9850970851992 289.2413463724238L793.5097552883242 289.2413463724238L793.5097552883242 272.9663829935175L775.4359027492617 272.9663829935175L775.4359027492617 289.2413463724238L763.6375629055117 289.2413463724238L763.6375629055117 272.9663829935175L745.5590106594179 272.9663829935175L745.5590106594179 289.2413463724238L733.7607928859804 289.2413463724238L733.7607928859804 272.9663829935175L715.6835223781679 272.9663829935175L715.6835223781679 289.2413463724238L705.6543475734804 289.2413463724238L705.6543475734804 252.24819756871284L694.5231830226992 252.24819756871284L705.6172992336367 193.43777276402534L705.6543475734804 193.43777276402534L705.6543475734804 176.22057916050971L687.5764056789492 176.22057916050971L687.5764056789492 193.24905206090034L676.1003924953554 193.24905206090034L676.1003924953554 176.22057916050971L658.0264789211367 176.22057916050971L658.0264789211367 193.24905206090034L654.7142840969179 193.24905206090034L654.7142840969179 144.20062066441596C677.7587787258242 133.13686944371284 700.8062640773867 146.6116619241816 723.8507587062929 135.38427544957221C723.8507587062929 135.34728814488471 723.8507587062929 135.3177166116816 723.8507587062929 135.28057671910346C700.8062640773867 140.8068523538691 677.7587787258242 121.62401391392768 654.7142840969179 126.98372460728706L654.7142840969179 121.30501366978706L649.2179462062929 121.30501366978706L649.2179462062929 193.24905206090034L646.2247211086367 193.24905206090034L646.2247211086367 176.22057916050971L628.1468402492617 176.22057916050971L628.1468402492617 193.24905206090034L616.3485614406679 193.24905206090034L616.3485614406679 176.22057916050971L598.2708636867617 176.22057916050971L598.2708636867617 193.43777276402534L598.3080340969179 193.43777276402534L609.4015399562929 252.24819756871284L598.2708636867617 252.24819756871284L598.2708636867617 441.4932384622675L588.9465228664492 441.4932384622675L588.9465228664492 457.126417173205L950.9714862453554 457.126417173205L950.9714862453554 441.4932384622675L941.6506854641054 441.4932384622675L941.6506854641054 252.24819756871284L930.5203754055117 252.24819756871284L941.6138812648867 193.43777276402534L941.6506854641054 193.43777276402534L941.6506854641054 176.22057916050971L923.5732318508242 176.22057916050971L923.5732318508242 193.24905206090034L912.0978290187929 193.24905206090034L912.0978290187929 176.22057916050971L894.0241595851992 176.22057916050971L894.0241595851992 193.24905206090034L890.7115985500429 193.24905206090034L890.7115985500429 143.34405328160346C913.7557880031679 148.70342828160346 936.8033954250429 129.52440453892768 959.8475238430117 135.04675103550971C959.8475238430117 135.00976373082221 959.8475238430117 134.98000909215034 959.8475238430117 134.94305230504096C936.8033954250429 123.71581078892768 913.7520038234804 137.19061089879096 890.7078754055117 126.12648583775581ZM660.1927997219179 280.1246471536738L643.7285052883242 280.1246471536738L643.7285052883242 261.5093517435175C643.7285052883242 256.96206475621284 647.4112445461367 253.2790203226191 651.9587298976992 253.2790203226191C656.5026752101992 253.2790203226191 660.1889545070742 256.96609307652534 660.1889545070742 261.5093517435175L660.1927997219179 280.1246471536738L660.1927997219179 280.1246471536738ZM782.9423724758242 442.2273082864863L755.8037006008242 442.2273082864863L755.8037006008242 411.54658318883C755.8037006008242 404.05048943883 761.8792010891054 397.9749279153925 769.3743793117617 397.9749279153925C776.8708392726992 397.9749279153925 782.9460956203554 404.05048943883 782.9460956203554 411.54658318883L782.9460956203554 442.2273082864863L782.9423724758242 442.2273082864863ZM896.1939593898867 261.5131969583613L896.1939593898867 280.1246471536738L879.7294208156679 280.1246471536738L879.7294208156679 261.5131969583613C879.7294208156679 256.96609307652534 883.4121600734804 253.2828045023066 887.9601947414492 253.2828045023066C892.5067645656679 253.2790203226191 896.1939593898867 256.96609307652534 896.1939593898867 261.5131969583613Z" name="undefined" id="R7oqQyuZ4gR3qeSHe" type="complex_path" stroke="#000000" stroke-width="2" stroke-opacity="1" fill="#898989" fill-opacity="1" stroke-linejoin="miter" stroke-linecap="butt" opacity="1"/><g id="8EzZwELJLjQgwmLxv" type="simpleGroup"/></g></g></svg>