<svg xmlns="http://www.w3.org/2000/svg" xmlns:xlink="http://www.w3.org/1999/xlink" width="512" height="512" onload="init()" id="s6tozJhaEWjyQPRck"><script type="application/javascript"> <![CDATA[ 
function init(){}
 ]]> </script><g id="viewport" transform="matrix(0.5 0 0 0.5 0 0)"><g id="dJFneYSAQh3wzH44Q" type="layer"><title>dJFneYSAQh3wzH44Q</title><g id="CfptkjeYEQFRk6XNd" type="simpleGroup" transform="matrix(0.1,0,0,0.1,751,108)"><path d="M315.5452880859375 639.562744140625C303.0205078125 644.9775390625 306.1517333984375 640.7659912109375 301.76806640625 646.1807861328125C297.3843994140625 650.993896484375 289.2432861328125 672.6529541015625 289.2432861328125 685.8890991210938C288.6170654296875 699.1251831054688 296.75811767578125 718.3777465820312 308.03045654296875 730.4105224609375C317.42401123046875 740.638427734375 321.18145751953125 746.05322265625 328.070068359375 749.6630859375C334.33245849609375 753.2728881835938 315.5452880859375 639.562744140625 315.5452880859375 639.562744140625Z" name="undefined" id="3j4W8mhQ4S8vPXhjS" type="complex_path" stroke="#null" stroke-width="1" stroke-opacity="1" fill="#cdd0d2" fill-opacity="1" stroke-linejoin="miter" stroke-linecap="butt" opacity="1"/><path d="M417.8494873046875 639.9963989257812C429.447509765625 649.6649169921875 440.41949462890625 660.4552612304688 440.42901611328125 674.3327026367188C440.44293212890625 694.6009521484375 430.6453857421875 699.7412109375 430.6453857421875 699.7412109375C430.6453857421875 699.7412109375 432.95233154296875 693.0620727539062 431.28216552734375 689.0509033203125C428.792236328125 683.07177734375 426.253173828125 678.3545532226562 426.253173828125 678.3545532226562C426.253173828125 678.3545532226562 428.4942626953125 701.8699951171875 418.75738525390625 717.328369140625C410.0072021484375 731.2200927734375 401.50958251953125 740.3142700195312 395.07916259765625 743.3626708984375C388.4808349609375 746.4906005859375 377.35345458984375 754.0406494140625 377.35345458984375 754.0406494140625C377.35345458984375 754.0406494140625 381.7047119140625 751.2343139648438 383.13104248046875 737.9719848632812C383.725830078125 732.4414672851562 379.9354248046875 729.3680419921875 379.5958251953125 722.5540771484375C379.01019287109375 710.8036499023438 382.47430419921875 700.2139892578125 382.47430419921875 700.2139892578125C382.47430419921875 700.2139892578125 381.68829345703125 706.1787719726562 371.272705078125 710.1959838867188C367.0369873046875 711.8296508789062 353.55889892578125 708.940185546875 353.55889892578125 708.940185546875C353.55889892578125 708.940185546875 368.562255859375 701.9755249023438 370.25946044921875 691.3109130859375C370.53387451171875 689.5869140625 366.06524658203125 691.3048095703125 360.5379638671875 690.487548828125C356.46929931640625 689.8859252929688 347.036865234375 689.3352661132812 347.036865234375 689.3352661132812C347.036865234375 689.3352661132812 364.3890380859375 676.8387451171875 361.33984375 661.6719970703125C357.79095458984375 644.0240478515625 349.9820556640625 641.3690185546875 343.55242919921875 634.7138671875C340.77569580078125 631.8397216796875 346.6983642578125 624.4796752929688 356.92437744140625 620.0255737304688C362.68310546875 617.5172729492188 404.65692138671875 628.99853515625 417.8494873046875 639.9963989257812L417.8494873046875 639.9963989257812Z" name="undefined" id="5XykKmWmoYC8xBMWx" type="complex_path" stroke="#null" stroke-width="1" stroke-opacity="1" fill="#434344" fill-opacity="1" stroke-linejoin="miter" stroke-linecap="butt" opacity="1"/><path d="M315.70245361328125 629.9346923828125C291.02008056640625 644.0997924804688 280.43707275390625 658.514404296875 269.8624267578125 679.0706787109375C259.2877197265625 699.626953125 253.2345733642578 725.6473388671875 253.2345733642578 725.6473388671875C267.64068603515625 787.8956298828125 280.0755615234375 782.0243530273438 293.73089599609375 772.4249267578125C302.93548583984375 765.954345703125 312.74627685546875 752.7222900390625 318.36334228515625 735.5244750976562C325.596923828125 713.3775024414062 323.471435546875 696.9522705078125 320.50323486328125 676.0625C316.590576171875 648.5266723632812 315.70245361328125 629.9346923828125 315.70245361328125 629.9346923828125L315.70245361328125 629.9346923828125Z" name="undefined" id="JhKjyW76KbJW9vtzf" type="complex_path" stroke="#000000" stroke-width="0" stroke-opacity="1" fill="#cdd0d2" fill-opacity="1" stroke-linejoin="miter" stroke-linecap="butt" opacity="1"/><path d="M357.5032958984375 613.0905151367188C357.5032958984375 613.0905151367188 344.978515625 617.9036254882812 339.9686279296875 626.32666015625C335.5849609375 634.14794921875 335.5849609375 639.562744140625 335.5849609375 639.562744140625C335.5849609375 639.562744140625 338.71612548828125 628.733154296875 346.23101806640625 622.716796875C353.745849609375 616.0986938476562 357.5032958984375 613.0905151367188 357.5032958984375 613.0905151367188L357.5032958984375 613.0905151367188Z" name="undefined" id="LXxKrSnGxc3skzJG7" type="complex_path" stroke="#null" stroke-width="1" stroke-opacity="1" fill="#000000" fill-opacity="1" stroke-linejoin="miter" stroke-linecap="butt" opacity="1"/><path d="M351.86712646484375 746.05322265625C351.86712646484375 746.05322265625 348.10968017578125 749.0614013671875 349.3621826171875 753.2728881835938C350.6146240234375 757.484375 351.86712646484375 760.4925537109375 354.3720703125 760.4925537109375C356.87701416015625 760.4925537109375 351.24090576171875 761.6958618164062 349.9884033203125 759.8909301757812C348.10968017578125 758.0859985351562 346.85723876953125 755.0778198242188 346.85723876953125 752.069580078125C347.48345947265625 748.4597778320312 349.9884033203125 747.2564697265625 351.86712646484375 746.05322265625Z" name="undefined" id="LedtHzNNf2FMZ6z52" type="complex_path" stroke="#null" stroke-width="1" stroke-opacity="1" fill="#000000" fill-opacity="1" stroke-linejoin="miter" stroke-linecap="butt" opacity="1"/><path d="M393.82513427734375 641.9692993164062C401.3399658203125 671.44970703125 411.35980224609375 675.0595703125 400.7137451171875 700.9301147460938C389.44146728515625 726.8006591796875 386.93646240234375 728.0039672851562 380.0478515625 734.0203857421875C372.53302001953125 740.0368041992188 368.77557373046875 741.8417358398438 370.028076171875 744.8499145507812C370.654296875 747.858154296875 377.54290771484375 755.0778198242188 371.280517578125 758.0859985351562C365.01812744140625 761.6958618164062 344.352294921875 764.1024169921875 324.3126220703125 748.4597778320312C303.0205078125 731.6138305664062 297.3843994140625 715.3695068359375 294.253173828125 702.7350463867188C290.49566650390625 690.7022094726562 299.88934326171875 657.0103149414062 306.7779541015625 645.5791625976562C313.66656494140625 634.14794921875 393.82513427734375 641.9692993164062 393.82513427734375 641.9692993164062Z" name="undefined" id="PQzYeHBKBay6EwaZM" type="complex_path" stroke="#000000" stroke-width="4" stroke-opacity="1" fill="#cdd0d2" fill-opacity="1" stroke-linejoin="miter" stroke-linecap="butt" opacity="1"/><path d="M369.40179443359375 629.3348388671875C369.40179443359375 629.3348388671875 352.49334716796875 647.384033203125 346.85723876953125 652.798828125C340.5948486328125 658.213623046875 306.1517333984375 647.9857177734375 306.1517333984375 647.9857177734375C306.1517333984375 647.9857177734375 311.787841796875 634.14794921875 320.55523681640625 627.5299072265625C329.32257080078125 620.911865234375 323.68646240234375 642.5709228515625 330.57501220703125 643.172607421875C337.46368408203125 643.172607421875 369.40179443359375 629.3348388671875 369.40179443359375 629.3348388671875Z" name="undefined" id="izrPFRBhvwiuZk37Y" type="complex_path" stroke="#null" stroke-width="1" stroke-opacity="1" fill="#cdd0d2" fill-opacity="1" stroke-linejoin="miter" stroke-linecap="butt" opacity="1"/><path d="M340.1214599609375 621.1026000976562C328.3003845214844 605.4478759765625 266.0009765625 645.3203125 242.20387268066406 700.9721069335938C218.4068145751953 756.6239013671875 255.9871826171875 793.54931640625 270.294189453125 785.9932861328125C284.60113525390625 778.437255859375 268.502197265625 749.1170043945312 270.733154296875 732.9102783203125C272.964111328125 716.70361328125 351.9425354003906 636.75732421875 340.1214599609375 621.1026000976562Z" name="undefined" id="kvHhuedkHhpTCwHNw" type="complex_path" stroke="#000000" stroke-width="0" stroke-opacity="1" fill="#434344" fill-opacity="1" stroke-linejoin="miter" stroke-linecap="butt" opacity="1"/><path d="M308.65667724609375 645.5791625976562C316.17156982421875 630.5380859375 321.80767822265625 617.9036254882812 344.978515625 610.6839599609375C368.77557373046875 602.8626098632812 381.30035400390625 607.6757202148438 382.55279541015625 609.4806518554688C383.8052978515625 611.88720703125 381.30035400390625 623.3184204101562 368.14935302734375 635.3512573242188C355.62451171875 647.384033203125 334.95867919921875 654.603759765625 308.65667724609375 645.5791625976562Z" name="undefined" id="t5oRqFPgwsDBLiSBs" type="complex_path" stroke="#null" stroke-width="1" stroke-opacity="1" fill="#cdd0d2" fill-opacity="1" stroke-linejoin="miter" stroke-linecap="butt" opacity="1"/><path d="M365.01812744140625 753.87451171875C365.01812744140625 753.87451171875 363.139404296875 753.87451171875 363.139404296875 752.069580078125C363.139404296875 749.6630859375 365.01812744140625 749.6630859375 365.01812744140625 749.6630859375C365.01812744140625 749.6630859375 364.39190673828125 750.2647094726562 364.39190673828125 751.468017578125C364.39190673828125 752.6712646484375 366.2706298828125 753.2728881835938 365.01812744140625 753.87451171875Z" name="undefined" id="wCfb2vfK9FSjvsTBJ" type="complex_path" stroke="#null" stroke-width="1" stroke-opacity="1" fill="#000000" fill-opacity="1" stroke-linejoin="miter" stroke-linecap="butt" opacity="1"/></g><g id="X5bvSTWg9z2aQn76t" type="simpleGroup" transform="matrix(1.6,0,0,1.6,-263,-310)"><path d="M417.8494873046875 639.9963989257812C429.447509765625 649.6649169921875 440.41949462890625 660.4552612304688 440.42901611328125 674.3327026367188C440.44293212890625 694.6009521484375 430.6453857421875 699.7412109375 430.6453857421875 699.7412109375C430.6453857421875 699.7412109375 432.95233154296875 693.0620727539062 431.28216552734375 689.0509033203125C428.792236328125 683.07177734375 426.253173828125 678.3545532226562 426.253173828125 678.3545532226562C426.253173828125 678.3545532226562 428.4942626953125 701.8699951171875 418.75738525390625 717.328369140625C410.0072021484375 731.2200927734375 401.50958251953125 740.3142700195312 395.07916259765625 743.3626708984375C388.4808349609375 746.4906005859375 377.35345458984375 754.0406494140625 377.35345458984375 754.0406494140625C377.35345458984375 754.0406494140625 381.7047119140625 751.2343139648438 383.13104248046875 737.9719848632812C383.725830078125 732.4414672851562 379.9354248046875 729.3680419921875 379.5958251953125 722.5540771484375C379.01019287109375 710.8036499023438 382.47430419921875 700.2139892578125 382.47430419921875 700.2139892578125C382.47430419921875 700.2139892578125 381.68829345703125 706.1787719726562 371.272705078125 710.1959838867188C367.0369873046875 711.8296508789062 353.55889892578125 708.940185546875 353.55889892578125 708.940185546875C353.55889892578125 708.940185546875 368.562255859375 701.9755249023438 370.25946044921875 691.3109130859375C370.53387451171875 689.5869140625 366.06524658203125 691.3048095703125 360.5379638671875 690.487548828125C356.46929931640625 689.8859252929688 347.036865234375 689.3352661132812 347.036865234375 689.3352661132812C347.036865234375 689.3352661132812 364.3890380859375 676.8387451171875 361.33984375 661.6719970703125C357.79095458984375 644.0240478515625 349.9820556640625 641.3690185546875 343.55242919921875 634.7138671875C340.77569580078125 631.8397216796875 346.6983642578125 624.4796752929688 356.92437744140625 620.0255737304688C362.68310546875 617.5172729492188 404.65692138671875 628.99853515625 417.8494873046875 639.9963989257812L417.8494873046875 639.9963989257812Z" name="undefined" id="4H74ACDcmyAGnevDN" type="complex_path" stroke="#null" stroke-width="1" stroke-opacity="1" fill="#434344" fill-opacity="1" stroke-linejoin="miter" stroke-linecap="butt" opacity="1"/><path d="M315.70245361328125 629.9346923828125C291.02008056640625 644.0997924804688 280.43707275390625 658.514404296875 269.8624267578125 679.0706787109375C259.2877197265625 699.626953125 253.2345733642578 725.6473388671875 253.2345733642578 725.6473388671875C267.64068603515625 787.8956298828125 280.0755615234375 782.0243530273438 293.73089599609375 772.4249267578125C302.93548583984375 765.954345703125 312.74627685546875 752.7222900390625 318.36334228515625 735.5244750976562C325.596923828125 713.3775024414062 323.471435546875 696.9522705078125 320.50323486328125 676.0625C316.590576171875 648.5266723632812 315.70245361328125 629.9346923828125 315.70245361328125 629.9346923828125L315.70245361328125 629.9346923828125Z" name="undefined" id="DNZW6arH575zwrJoq" type="complex_path" stroke="#000000" stroke-width="0" stroke-opacity="1" fill="#cdd0d2" fill-opacity="1" stroke-linejoin="miter" stroke-linecap="butt" opacity="1"/><path d="M369.40179443359375 629.3348388671875C369.40179443359375 629.3348388671875 352.49334716796875 647.384033203125 346.85723876953125 652.798828125C340.5948486328125 658.213623046875 306.1517333984375 647.9857177734375 306.1517333984375 647.9857177734375C306.1517333984375 647.9857177734375 311.787841796875 634.14794921875 320.55523681640625 627.5299072265625C329.32257080078125 620.911865234375 323.68646240234375 642.5709228515625 330.57501220703125 643.172607421875C337.46368408203125 643.172607421875 369.40179443359375 629.3348388671875 369.40179443359375 629.3348388671875Z" name="undefined" id="PiDHwSbaJkhzzfmdD" type="complex_path" stroke="#null" stroke-width="1" stroke-opacity="1" fill="#cdd0d2" fill-opacity="1" stroke-linejoin="miter" stroke-linecap="butt" opacity="1"/><path d="M365.01812744140625 753.87451171875C365.01812744140625 753.87451171875 363.139404296875 753.87451171875 363.139404296875 752.069580078125C363.139404296875 749.6630859375 365.01812744140625 749.6630859375 365.01812744140625 749.6630859375C365.01812744140625 749.6630859375 364.39190673828125 750.2647094726562 364.39190673828125 751.468017578125C364.39190673828125 752.6712646484375 366.2706298828125 753.2728881835938 365.01812744140625 753.87451171875Z" name="undefined" id="QiAf8gN9uuuJgRg6Q" type="complex_path" stroke="#null" stroke-width="1" stroke-opacity="1" fill="#000000" fill-opacity="1" stroke-linejoin="miter" stroke-linecap="butt" opacity="1"/><path d="M308.65667724609375 645.5791625976562C316.17156982421875 630.5380859375 321.80767822265625 617.9036254882812 344.978515625 610.6839599609375C368.77557373046875 602.8626098632812 381.30035400390625 607.6757202148438 382.55279541015625 609.4806518554688C383.8052978515625 611.88720703125 381.30035400390625 623.3184204101562 368.14935302734375 635.3512573242188C355.62451171875 647.384033203125 334.95867919921875 654.603759765625 308.65667724609375 645.5791625976562Z" name="undefined" id="cLNk6T7XKTGQrKsXB" type="complex_path" stroke="#null" stroke-width="1" stroke-opacity="1" fill="#cdd0d2" fill-opacity="1" stroke-linejoin="miter" stroke-linecap="butt" opacity="1"/><path d="M357.5032958984375 613.0905151367188C357.5032958984375 613.0905151367188 344.978515625 617.9036254882812 339.9686279296875 626.32666015625C335.5849609375 634.14794921875 335.5849609375 639.562744140625 335.5849609375 639.562744140625C335.5849609375 639.562744140625 338.71612548828125 628.733154296875 346.23101806640625 622.716796875C353.745849609375 616.0986938476562 357.5032958984375 613.0905151367188 357.5032958984375 613.0905151367188L357.5032958984375 613.0905151367188Z" name="undefined" id="dDfRmmwoDxjeMrmZk" type="complex_path" stroke="#null" stroke-width="1" stroke-opacity="1" fill="#000000" fill-opacity="1" stroke-linejoin="miter" stroke-linecap="butt" opacity="1"/><path d="M340.1214599609375 621.1026000976562C328.3003845214844 605.4478759765625 266.0009765625 645.3203125 242.20387268066406 700.9721069335938C218.4068145751953 756.6239013671875 255.9871826171875 793.54931640625 270.294189453125 785.9932861328125C284.60113525390625 778.437255859375 268.502197265625 749.1170043945312 270.733154296875 732.9102783203125C272.964111328125 716.70361328125 351.9425354003906 636.75732421875 340.1214599609375 621.1026000976562Z" name="undefined" id="h9G4p5zcMqduL7SQc" type="complex_path" stroke="#000000" stroke-width="0" stroke-opacity="1" fill="#434344" fill-opacity="1" stroke-linejoin="miter" stroke-linecap="butt" opacity="1"/><path d="M393.82513427734375 641.9692993164062C401.3399658203125 671.44970703125 411.35980224609375 675.0595703125 400.7137451171875 700.9301147460938C389.44146728515625 726.8006591796875 386.93646240234375 728.0039672851562 380.0478515625 734.0203857421875C372.53302001953125 740.0368041992188 368.77557373046875 741.8417358398438 370.028076171875 744.8499145507812C370.654296875 747.858154296875 377.54290771484375 755.0778198242188 371.280517578125 758.0859985351562C365.01812744140625 761.6958618164062 344.352294921875 764.1024169921875 324.3126220703125 748.4597778320312C303.0205078125 731.6138305664062 297.3843994140625 715.3695068359375 294.253173828125 702.7350463867188C290.49566650390625 690.7022094726562 299.88934326171875 657.0103149414062 306.7779541015625 645.5791625976562C313.66656494140625 634.14794921875 393.82513427734375 641.9692993164062 393.82513427734375 641.9692993164062Z" name="undefined" id="qn4YHAK4o8RixBewJ" type="complex_path" stroke="#000000" stroke-width="4" stroke-opacity="1" fill="#cdd0d2" fill-opacity="1" stroke-linejoin="miter" stroke-linecap="butt" opacity="1"/><path d="M315.5452880859375 639.562744140625C303.0205078125 644.9775390625 306.1517333984375 640.7659912109375 301.76806640625 646.1807861328125C297.3843994140625 650.993896484375 289.2432861328125 672.6529541015625 289.2432861328125 685.8890991210938C288.6170654296875 699.1251831054688 296.75811767578125 718.3777465820312 308.03045654296875 730.4105224609375C317.42401123046875 740.638427734375 321.18145751953125 746.05322265625 328.070068359375 749.6630859375C334.33245849609375 753.2728881835938 315.5452880859375 639.562744140625 315.5452880859375 639.562744140625Z" name="undefined" id="rKGbto778B3JMBoAt" type="complex_path" stroke="#null" stroke-width="1" stroke-opacity="1" fill="#cdd0d2" fill-opacity="1" stroke-linejoin="miter" stroke-linecap="butt" opacity="1"/><path d="M351.86712646484375 746.05322265625C351.86712646484375 746.05322265625 348.10968017578125 749.0614013671875 349.3621826171875 753.2728881835938C350.6146240234375 757.484375 351.86712646484375 760.4925537109375 354.3720703125 760.4925537109375C356.87701416015625 760.4925537109375 351.24090576171875 761.6958618164062 349.9884033203125 759.8909301757812C348.10968017578125 758.0859985351562 346.85723876953125 755.0778198242188 346.85723876953125 752.069580078125C347.48345947265625 748.4597778320312 349.9884033203125 747.2564697265625 351.86712646484375 746.05322265625Z" name="undefined" id="rWjKSRTHmaJCoThKk" type="complex_path" stroke="#null" stroke-width="1" stroke-opacity="1" fill="#000000" fill-opacity="1" stroke-linejoin="miter" stroke-linecap="butt" opacity="1"/></g><g id="rcyP9LyFshB6uGHzG" type="simpleGroup" transform="matrix(0.4,0,0,0.4,543,33)"><path d="M351.86712646484375 746.05322265625C351.86712646484375 746.05322265625 348.10968017578125 749.0614013671875 349.3621826171875 753.2728881835938C350.6146240234375 757.484375 351.86712646484375 760.4925537109375 354.3720703125 760.4925537109375C356.87701416015625 760.4925537109375 351.24090576171875 761.6958618164062 349.9884033203125 759.8909301757812C348.10968017578125 758.0859985351562 346.85723876953125 755.0778198242188 346.85723876953125 752.069580078125C347.48345947265625 748.4597778320312 349.9884033203125 747.2564697265625 351.86712646484375 746.05322265625Z" name="undefined" id="2eWy8ayezWEbMnTYq" type="complex_path" stroke="#null" stroke-width="1" stroke-opacity="1" fill="#000000" fill-opacity="1" stroke-linejoin="miter" stroke-linecap="butt" opacity="1"/><path d="M365.01812744140625 753.87451171875C365.01812744140625 753.87451171875 363.139404296875 753.87451171875 363.139404296875 752.069580078125C363.139404296875 749.6630859375 365.01812744140625 749.6630859375 365.01812744140625 749.6630859375C365.01812744140625 749.6630859375 364.39190673828125 750.2647094726562 364.39190673828125 751.468017578125C364.39190673828125 752.6712646484375 366.2706298828125 753.2728881835938 365.01812744140625 753.87451171875Z" name="undefined" id="44MEjKyZqtktFG6dC" type="complex_path" stroke="#null" stroke-width="1" stroke-opacity="1" fill="#000000" fill-opacity="1" stroke-linejoin="miter" stroke-linecap="butt" opacity="1"/><path d="M369.40179443359375 629.3348388671875C369.40179443359375 629.3348388671875 352.49334716796875 647.384033203125 346.85723876953125 652.798828125C340.5948486328125 658.213623046875 306.1517333984375 647.9857177734375 306.1517333984375 647.9857177734375C306.1517333984375 647.9857177734375 311.787841796875 634.14794921875 320.55523681640625 627.5299072265625C329.32257080078125 620.911865234375 323.68646240234375 642.5709228515625 330.57501220703125 643.172607421875C337.46368408203125 643.172607421875 369.40179443359375 629.3348388671875 369.40179443359375 629.3348388671875Z" name="undefined" id="FeMtHMb4F8oyRMbx9" type="complex_path" stroke="#null" stroke-width="1" stroke-opacity="1" fill="#cdd0d2" fill-opacity="1" stroke-linejoin="miter" stroke-linecap="butt" opacity="1"/><path d="M417.8494873046875 639.9963989257812C429.447509765625 649.6649169921875 440.41949462890625 660.4552612304688 440.42901611328125 674.3327026367188C440.44293212890625 694.6009521484375 430.6453857421875 699.7412109375 430.6453857421875 699.7412109375C430.6453857421875 699.7412109375 432.95233154296875 693.0620727539062 431.28216552734375 689.0509033203125C428.792236328125 683.07177734375 426.253173828125 678.3545532226562 426.253173828125 678.3545532226562C426.253173828125 678.3545532226562 428.4942626953125 701.8699951171875 418.75738525390625 717.328369140625C410.0072021484375 731.2200927734375 401.50958251953125 740.3142700195312 395.07916259765625 743.3626708984375C388.4808349609375 746.4906005859375 377.35345458984375 754.0406494140625 377.35345458984375 754.0406494140625C377.35345458984375 754.0406494140625 381.7047119140625 751.2343139648438 383.13104248046875 737.9719848632812C383.725830078125 732.4414672851562 379.9354248046875 729.3680419921875 379.5958251953125 722.5540771484375C379.01019287109375 710.8036499023438 382.47430419921875 700.2139892578125 382.47430419921875 700.2139892578125C382.47430419921875 700.2139892578125 381.68829345703125 706.1787719726562 371.272705078125 710.1959838867188C367.0369873046875 711.8296508789062 353.55889892578125 708.940185546875 353.55889892578125 708.940185546875C353.55889892578125 708.940185546875 368.562255859375 701.9755249023438 370.25946044921875 691.3109130859375C370.53387451171875 689.5869140625 366.06524658203125 691.3048095703125 360.5379638671875 690.487548828125C356.46929931640625 689.8859252929688 347.036865234375 689.3352661132812 347.036865234375 689.3352661132812C347.036865234375 689.3352661132812 364.3890380859375 676.8387451171875 361.33984375 661.6719970703125C357.79095458984375 644.0240478515625 349.9820556640625 641.3690185546875 343.55242919921875 634.7138671875C340.77569580078125 631.8397216796875 346.6983642578125 624.4796752929688 356.92437744140625 620.0255737304688C362.68310546875 617.5172729492188 404.65692138671875 628.99853515625 417.8494873046875 639.9963989257812L417.8494873046875 639.9963989257812Z" name="undefined" id="Fvy6HTiZ78iAL3ZRW" type="complex_path" stroke="#null" stroke-width="1" stroke-opacity="1" fill="#434344" fill-opacity="1" stroke-linejoin="miter" stroke-linecap="butt" opacity="1"/><path d="M357.5032958984375 613.0905151367188C357.5032958984375 613.0905151367188 344.978515625 617.9036254882812 339.9686279296875 626.32666015625C335.5849609375 634.14794921875 335.5849609375 639.562744140625 335.5849609375 639.562744140625C335.5849609375 639.562744140625 338.71612548828125 628.733154296875 346.23101806640625 622.716796875C353.745849609375 616.0986938476562 357.5032958984375 613.0905151367188 357.5032958984375 613.0905151367188L357.5032958984375 613.0905151367188Z" name="undefined" id="FzQxbmaTYu7R5cQpv" type="complex_path" stroke="#null" stroke-width="1" stroke-opacity="1" fill="#000000" fill-opacity="1" stroke-linejoin="miter" stroke-linecap="butt" opacity="1"/><path d="M393.82513427734375 641.9692993164062C401.3399658203125 671.44970703125 411.35980224609375 675.0595703125 400.7137451171875 700.9301147460938C389.44146728515625 726.8006591796875 386.93646240234375 728.0039672851562 380.0478515625 734.0203857421875C372.53302001953125 740.0368041992188 368.77557373046875 741.8417358398438 370.028076171875 744.8499145507812C370.654296875 747.858154296875 377.54290771484375 755.0778198242188 371.280517578125 758.0859985351562C365.01812744140625 761.6958618164062 344.352294921875 764.1024169921875 324.3126220703125 748.4597778320312C303.0205078125 731.6138305664062 297.3843994140625 715.3695068359375 294.253173828125 702.7350463867188C290.49566650390625 690.7022094726562 299.88934326171875 657.0103149414062 306.7779541015625 645.5791625976562C313.66656494140625 634.14794921875 393.82513427734375 641.9692993164062 393.82513427734375 641.9692993164062Z" name="undefined" id="G9Q7XK28FttSg8hMY" type="complex_path" stroke="#000000" stroke-width="4" stroke-opacity="1" fill="#cdd0d2" fill-opacity="1" stroke-linejoin="miter" stroke-linecap="butt" opacity="1"/><path d="M315.5452880859375 639.562744140625C303.0205078125 644.9775390625 306.1517333984375 640.7659912109375 301.76806640625 646.1807861328125C297.3843994140625 650.993896484375 289.2432861328125 672.6529541015625 289.2432861328125 685.8890991210938C288.6170654296875 699.1251831054688 296.75811767578125 718.3777465820312 308.03045654296875 730.4105224609375C317.42401123046875 740.638427734375 321.18145751953125 746.05322265625 328.070068359375 749.6630859375C334.33245849609375 753.2728881835938 315.5452880859375 639.562744140625 315.5452880859375 639.562744140625Z" name="undefined" id="RoW6gJaNRrjdq4xFY" type="complex_path" stroke="#null" stroke-width="1" stroke-opacity="1" fill="#cdd0d2" fill-opacity="1" stroke-linejoin="miter" stroke-linecap="butt" opacity="1"/><path d="M315.70245361328125 629.9346923828125C291.02008056640625 644.0997924804688 280.43707275390625 658.514404296875 269.8624267578125 679.0706787109375C259.2877197265625 699.626953125 253.2345733642578 725.6473388671875 253.2345733642578 725.6473388671875C267.64068603515625 787.8956298828125 280.0755615234375 782.0243530273438 293.73089599609375 772.4249267578125C302.93548583984375 765.954345703125 312.74627685546875 752.7222900390625 318.36334228515625 735.5244750976562C325.596923828125 713.3775024414062 323.471435546875 696.9522705078125 320.50323486328125 676.0625C316.590576171875 648.5266723632812 315.70245361328125 629.9346923828125 315.70245361328125 629.9346923828125L315.70245361328125 629.9346923828125Z" name="undefined" id="ZuquzgwxcAmDMPgFE" type="complex_path" stroke="#000000" stroke-width="0" stroke-opacity="1" fill="#cdd0d2" fill-opacity="1" stroke-linejoin="miter" stroke-linecap="butt" opacity="1"/><path d="M308.65667724609375 645.5791625976562C316.17156982421875 630.5380859375 321.80767822265625 617.9036254882812 344.978515625 610.6839599609375C368.77557373046875 602.8626098632812 381.30035400390625 607.6757202148438 382.55279541015625 609.4806518554688C383.8052978515625 611.88720703125 381.30035400390625 623.3184204101562 368.14935302734375 635.3512573242188C355.62451171875 647.384033203125 334.95867919921875 654.603759765625 308.65667724609375 645.5791625976562Z" name="undefined" id="asdNEYT8FGYZ4MZZv" type="complex_path" stroke="#null" stroke-width="1" stroke-opacity="1" fill="#cdd0d2" fill-opacity="1" stroke-linejoin="miter" stroke-linecap="butt" opacity="1"/><path d="M340.1214599609375 621.1026000976562C328.3003845214844 605.4478759765625 266.0009765625 645.3203125 242.20387268066406 700.9721069335938C218.4068145751953 756.6239013671875 255.9871826171875 793.54931640625 270.294189453125 785.9932861328125C284.60113525390625 778.437255859375 268.502197265625 749.1170043945312 270.733154296875 732.9102783203125C272.964111328125 716.70361328125 351.9425354003906 636.75732421875 340.1214599609375 621.1026000976562Z" name="undefined" id="iiQfdtD7mqimXnwjR" type="complex_path" stroke="#000000" stroke-width="0" stroke-opacity="1" fill="#434344" fill-opacity="1" stroke-linejoin="miter" stroke-linecap="butt" opacity="1"/></g></g><g id="B95726Pvarx5K9JuJ" type="layer"><title>B95726Pvarx5K9JuJ</title><path d="M815.9773044868708,133.12511652352052 824.8103733345271,133.12511652352052 825.0293674751521,139.92907160164552 820.3203831001521,139.80832880379396 820.3764744087458,145.4694463575049 816.4264622017146,145.3796789014502 816.2459812446833,147.79345148445802 807.1155491157771,147.7718908155127 807.1155491157771,141.5026037061377 816.2813816353083,141.54973810555177 816.2887668892146,143.8724767530127 819.1436252876521,143.9510137403174 818.8781223579646,139.71473139168458 814.3559055610896,139.63843744637208 814.3952122017146,133.14972895027833Z" id="6ztimaeAou7SziF9L" type="simple_path" name="undefined" stroke="#000000" stroke-width="0" stroke-opacity="1" fill="#000000" fill-opacity="1" stroke-linejoin="miter" stroke-linecap="butt" opacity="0.7"/><g id="32PDC3THebZxNSj7P" type="simpleGroup" transform="matrix(0.1,0,0,0.1,691,113)"><path d="M1390.0589956630822,135.50366438734386 1396.4903921474572,136.6127799879298 1401.8978628505822,138.2248405348048 1408.0338491787072,140.9115623365626 1412.6449941982385,143.58084334242199 1418.0173696865197,147.5850700269923 1423.5127310146447,153.39175642835949 1430.0304922451135,163.18510664808605 1433.4787344326135,171.5053123365626 1434.9701284755822,178.85463179457042 1435.437840877926,183.48230208265636 1435.316014706051,366.9909232984767 1434.4327749599572,373.8030570875392 1432.543065487301,380.44145430433605 1429.6483511318322,386.8377250562892 1425.3324941982385,393.2688163648829 1417.4113516201135,401.6404594312892 1410.0447134365197,406.8752616773829 1402.7130483974572,410.1859916578517 1397.1658071865197,411.9019645582423 1385.2753652919885,413.65239180433605 1114.7355703701132,413.6009696851954 1109.0847524990195,412.9073356519923 1097.8700003017539,410.1165336500392 1090.2779287685507,406.7022575269923 1084.2635244716757,402.5765251051173 1079.6524710048789,398.4166435133204 1075.2153372158164,393.1819633375392 1071.99115508691,388.20756758558605 1069.1831106533164,382.38334883558605 1067.2937673915976,376.7148307691798 1065.5952200283164,365.77824629652355 1065.5952200283164,181.14250410902355 1066.6179251064414,174.41704024183605 1068.31683868066,168.55855025160167 1071.003117977535,162.4223503004298 1073.7072805751914,157.77697981703136 1077.7283987392539,152.40371931898449 1082.2869924892539,147.81022871839855 1087.678136288082,143.7023795973048 1094.4379629482382,140.13150252210949 1105.7388662685507,136.3528922926173 1113.1581777919882,135.13962019789074ZM1113.1407217373007,183.22244490492199 1112.793858944332,183.6729606519923 1112.429601131832,184.48794783460949 1112.1357778896445,186.44655073988292 1112.3955435146445,363.45512617933605 1112.6555532802695,364.7897819410548 1112.8288320888632,365.1707939039454 1113.313878475582,365.7257865797267 1117.5953115810507,366.80021895277355 1383.2291616787072,366.85283125746105 1386.1075796474572,366.35002364027355 1386.557713924801,366.14152754652355 1388.4993032802697,364.09599531996105 1388.7070059169885,362.4322685133204 1388.6383413662072,185.8224967848048 1388.5336050380822,185.30229414808605 1386.8005117763635,182.71985091078136 1386.7829946865197,182.70263899671886 1385.7087759365197,182.23439253675792 1384.1313833583947,181.95706404554699 1116.9540762294882,181.9396842848048Z" id="KwkzDaxRgubnKCXj5" type="simple_path" name="http://lore-mbp.local:3000/icons/black_kitty_1024x1024.jpg" stroke="#000000" stroke-width="0" stroke-opacity="1" fill="#000000" fill-opacity="1" stroke-linejoin="miter" stroke-linecap="butt" opacity="1"/><path d="M1083.4497427333947,507.22831500875805 1089.8811392177697,508.33744586813305 1095.2886099208947,509.94950641500805 1101.4245962490197,512.6362129579768 1106.0358023037072,515.305463446258 1111.4081777919885,519.3097359071955 1116.9034780849572,525.1163765321955 1123.4213003505822,534.9097725282892 1126.8695425380822,543.2299629579767 1128.3608755458947,550.5792671571954 1128.8286489833947,555.2069527040704 1128.7068228115197,738.7155586611019 1127.8235220302697,745.5276924501644 1125.9338735927697,752.1660591493832 1123.0390982021447,758.5623604189144 1118.7233023037072,764.9934517275082 1110.8021597255822,773.3650947939144 1103.4354605068322,778.5998970400082 1096.1037954677697,781.9106270204769 1090.5565542568322,783.6265694032894 1078.6661733974572,785.3769966493832 808.1264089931608,785.3256050478207 802.4755911220669,784.6319404970394 791.2607931484341,781.8411690126644 783.6686910976531,778.4268623720394 777.6542868007782,774.3011299501644 773.0431417812473,770.1412788759457 768.606069027341,764.9065987001644 765.3818868984349,759.9321724306332 762.5737814296849,754.1079536806332 760.6844381679662,748.4394356142269 758.9859518398413,737.5028511415707 758.9859518398413,552.8671699892267 760.00859588281,546.1417061220392 761.7075704921849,540.2831856142267 764.3938497890599,534.1470161806329 767.098012386716,529.5016304384455 771.1191305507786,524.1283394228205 775.6776632656221,519.5348945986018 781.0688986171843,515.427045477508 787.8286642421842,511.85612262594555 799.1297048915982,508.07755817282055 806.5490164150358,506.8642403017268ZM806.5315603603483,554.9470650087579 806.1846975673795,555.3976265321954 805.8204397548795,556.2125679384454 805.526616512692,558.1711861025079 805.786382137692,735.1797310243832 806.046391903317,736.5143867861019 806.2196707119108,736.8954292665707 806.7047170986295,737.4504219423519 810.9861502040983,738.5248237978207 1076.6199087490197,738.5774361025082 1079.4983267177697,738.0746284853207 1079.9485220302697,737.8661323915707 1081.8900503505822,735.8206001650082 1082.0978140224572,734.1569038759457 1082.0290884365197,557.5471626650079 1081.9243521083947,557.0269600282892 1080.1913198818322,554.4445015321954 1080.1737417568322,554.4272896181329 1079.0995230068322,553.9590278993829 1077.5221304287072,553.6816841493829 810.3449148525358,553.6643501650079Z" id="tTeKxzDxQE52dnhLZ" type="simple_path" name="http://lore-mbp.local:3000/icons/black_kitty_1024x1024.jpg" stroke="#000000" stroke-width="0" stroke-opacity="1" fill="#000000" fill-opacity="1" stroke-linejoin="miter" stroke-linecap="butt" opacity="1"/><path d="M1265.2702688564416,631.4466377626644 1113.9487966884726,631.4466377626644 1113.9487966884726,659.6020943056329 1265.2702688564416,659.6020943056329 1265.2702688564416,631.4466377626644ZM1265.1135305751916,466.78935016500805 1237.0485891689416,466.78935016500805 1237.0485891689416,659.2866035829767 1265.1135305751916,659.2866035829767 1265.1135305751916,466.78935016500805ZM1307.019658504879,501.2595039736018 1306.7172903408166,499.74662555563305 1306.2042898525353,498.29154743063305 1305.6442922939416,497.18034137594555 1260.5039724697228,418.99406207907055 1259.6405691494103,417.7159248720393 1258.604619442379,416.5720039736018 1257.4191946376916,415.58622516500805 1256.1049856533166,414.77738727438305 1254.690312801754,414.16068805563305 1253.2036184658166,413.7502266298518 1251.673222958004,413.55375446188305 1250.1308035244103,413.57560504782055 1248.607060848629,413.81352008688305 1247.131230770504,414.26432575094555 1245.7340750087853,414.9181953798518 1244.4426931728478,415.7630440126643 1243.284551083004,416.7814766298518 1242.2803396572228,417.9538399111018 1241.5981497158166,418.99406207907055 1196.4566091884728,497.18034137594555 1195.780888973629,498.5677315126643 1195.3082937587853,500.0358711611018 1195.0474295009728,501.55644000875805 1195.0037283290978,503.09879840719555 1195.1773123134728,504.6313301454768 1195.5659231533166,506.1246162782893 1196.160771786129,507.54801715719555 1196.9499563564416,508.8731514345393 1197.9182180751916,510.0738350282893 1199.0468801845666,511.12614215719555 1200.3120169033166,512.0091987978205 1201.6895193447228,512.7045112978205 1203.1500906337853,513.199018133758 1204.667363583004,513.4828316103205 1205.909551083004,513.553754461883 1296.1914114345666,513.553754461883 1297.7304128994103,513.444623602508 1299.2378591884728,513.1193062196955 1300.6853689540978,512.5855537782893 1302.0432791103478,511.8531319032893 1303.2832693447228,510.93510211813305 1304.382451473629,509.8533760439143 1305.3178762783166,508.6264473329768 1306.0711111415978,507.27946246969555 1306.6266531337853,505.8408028017268 1306.9738211025353,504.33769000875805 1307.1059011806603,502.79972614157055Z" id="wLq7eM3aGE3sSEHvk" type="simple_path" name="http://lore-mbp.local:3000/icons/black_kitty_1024x1024.jpg" stroke="#000000" stroke-width="0" stroke-opacity="1" fill="#000000" fill-opacity="1" stroke-linejoin="miter" stroke-linecap="butt" opacity="1"/></g><g id="TQxjSXf2ypkQmFFHn" type="simpleGroup" transform="matrix(0.4,0,0,0.4,11,-193)"><path d="M1809.011635725964,1112.0241070831871 1815.443032210339,1113.1332379425621 1820.850502913464,1114.7452984894371 1826.986489241589,1117.4320050324059 1831.5976952962765,1120.1012555206871 1836.9700707845577,1124.1055279816246 1842.4653710775265,1129.9121686066246 1848.9831933431515,1139.7055646027184 1852.4314355306515,1148.0257550324059 1853.922768538464,1155.3750592316246 1854.390541975964,1160.0027447784996 1854.268715804089,1343.5113812531088 1853.385415022839,1350.3235150421713 1851.495766585339,1356.96188174139 1848.600991194714,1363.3581830109213 1844.2851952962765,1369.789274319515 1836.3640527181515,1378.1609173859213 1828.9973534994015,1383.395719632015 1821.665688460339,1386.7064496124838 1816.1184472494015,1388.4223919952963 1804.2280663900265,1390.17281924139 1533.6882867269405,1390.1214276398275 1528.0374688558468,1389.4277630890463 1516.822670882214,1386.6369916046713 1509.2305688314327,1383.2226849640463 1503.2161645345577,1379.0969525421713 1498.6050195150265,1374.9371014679525 1494.1679467611202,1369.7024212921713 1490.943764632214,1364.72799502264 1488.135659163464,1358.90377627264 1486.2463159017452,1353.2351971710775 1484.5478295736202,1342.2986737335775 1484.5478295736202,1157.6629620636559 1485.570473616589,1150.9374981964684 1487.269448225964,1145.0789776886559 1489.955727522839,1138.9428082550621 1492.6598901204952,1134.2974225128746 1496.6810082845577,1128.9241314972496 1501.2395409994015,1124.3306866730309 1506.630776350964,1120.2228375519371 1513.390541975964,1116.6519147003746 1524.691582625378,1112.8733502472496 1532.1108941488155,1111.6600323761559ZM1532.093438094128,1159.7428570831871 1531.7465753011593,1160.1934186066246 1531.3823174886593,1161.0083600128746 1531.0884942464718,1162.9669781769371 1531.3482598714718,1339.97555361639 1531.6082696370968,1341.3102093781088 1531.7815484456905,1341.6912518585775 1532.2665948324093,1342.2461834992025 1536.548027937878,1343.3206463898275 1802.181801741589,1343.373258694515 1805.060219710339,1342.8704510773275 1805.510415022839,1342.6619549835775 1807.4519433431515,1340.616422757015 1807.6597070150265,1338.9527264679525 1807.590981429089,1162.3429547394371 1807.486245100964,1161.8227521027184 1805.7532128744015,1159.2402936066246 1805.7356347494015,1159.2230816925621 1804.6614159994015,1158.7548199738121 1803.0840234212765,1158.4774762238121 1535.9067925863155,1158.4601422394371Z" id="FQ9CeMk4ZzkWscjG9" type="simple_path" name="http://lore-mbp.local:3000/icons/black_kitty_1024x1024.jpg" stroke="#000000" stroke-width="0" stroke-opacity="1" fill="#000000" fill-opacity="1" stroke-linejoin="miter" stroke-linecap="butt" opacity="1"/><path d="M1990.8320168905154,1236.2425824249835 1839.5105599813357,1236.2425824249835 1839.5105599813357,1264.3980389679523 1990.8320168905154,1264.3980389679523 1990.8320168905154,1236.2425824249835ZM1990.6752786092654,1071.5852643097496 1962.6103372030154,1071.5852643097496 1962.6103372030154,1264.082548245296 1990.6752786092654,1264.082548245296 1990.6752786092654,1071.5852643097496ZM2032.581406538953,1106.0554181183434 2032.2790383748904,1104.5425397003746 2031.7660378866092,1103.0874615753746 2031.2060403280154,1101.9762555206871 1986.0657205037967,1023.7899762238133 1985.2023171834842,1022.511839016782 1984.166367476453,1021.3679181183445 1982.9809426717654,1020.3821393097508 1981.6667336873904,1019.5733014191258 1980.252060835828,1018.9566022003758 1978.7653664998904,1018.5461407745944 1977.234970992078,1018.3496686066256 1975.6925515584842,1018.3715191925631 1974.168808882703,1018.6094342316256 1972.692978804578,1019.0602398956883 1971.2958230428592,1019.7141095245945 1970.0044412069217,1020.558958157407 1968.846299117078,1021.5773907745945 1967.8420876912967,1022.7497540558445 1967.1598977498904,1023.7899762238133 1922.0183724813357,1101.9762555206871 1921.342652266492,1103.3636456574059 1920.8700570516482,1104.8317853058434 1920.6091927938357,1106.3523541534996 1920.5654916219607,1107.8947125519371 1920.7390756063357,1109.4272442902184 1921.1276864461795,1110.9205304230304 1921.722535078992,1112.3439313019367 1922.5117196493045,1113.6690655792804 1923.4799813680545,1114.8697491730304 1924.6086434774295,1115.9220563019367 1925.8737801961795,1116.8051129425617 1927.2512826375857,1117.5004254425617 1928.7118539266482,1117.9949322784992 1930.229126875867,1118.2787457550617 1931.471314375867,1118.3496686066242 2021.7531594686404,1118.3496686066242 2023.2921609334842,1118.2405377472492 2024.7996072225467,1117.9152203644367 2026.2471169881717,1117.3814679230304 2027.6050271444217,1116.6490460480304 2028.8450173787967,1115.7310162628742 2029.944199507703,1114.6492901886554 2030.8796243123904,1113.422361477718 2031.6328591756717,1112.0753766144367 2032.1884011678592,1110.636716946468 2032.5355691366092,1109.1336041534996 2032.6676492147342,1107.5956402863121Z" id="XiCmDKTeo2XxeQCvn" type="simple_path" name="http://lore-mbp.local:3000/icons/black_kitty_1024x1024.jpg" stroke="#000000" stroke-width="0" stroke-opacity="1" fill="#000000" fill-opacity="1" stroke-linejoin="miter" stroke-linecap="butt" opacity="1"/><path d="M2115.620827620498,740.2995282257654 2122.052224104872,741.4086438263513 2127.459694807997,743.0207043732263 2133.595681136123,745.7074261749841 2138.2068261556533,748.3767071808435 2143.5792016439345,752.3809338654138 2149.0745629720595,758.187620266781 2155.5923242025283,767.9809704865075 2159.0405663900283,776.3011761749841 2160.531960432997,783.6504956329919 2160.999672835341,788.2781659210779 2160.877846663466,971.7868023956872 2159.994606917372,978.5989361847497 2158.104897444716,985.2373334015466 2155.210183089247,991.6336041534997 2150.8943261556533,998.0646649445162 2142.9731835775283,1006.4363385285004 2135.6065453939345,1011.6711407745943 2128.274880354872,1014.9818402374849 2122.7276391439345,1016.6978436554538 2110.8371972494033,1018.4482709015475 1840.2974175863162,1018.3968487824069 1834.6465997152225,1017.7032147492038 1823.4318475179568,1014.9123822296724 1815.8397759847537,1011.4981366242037 1809.8253716878787,1007.3724042023285 1805.2143182210818,1003.2125226105317 1800.7771844320193,997.9778119171724 1797.553002303113,993.0034466827973 1794.7449578695193,987.1792279327966 1792.8556146078006,981.5107098663904 1791.1570672445193,970.5741253937341 1791.1570672445193,785.938367947445 1792.1797723226443,779.2129040802575 1793.878685896863,773.3544140900232 1796.564965193738,767.2182141388513 1799.2691277913943,762.5728436554529 1803.2902459554568,757.199583157406 1807.8488397054568,752.60609255682 1813.239983504285,748.4982434357263 1819.9998101644412,744.927366360531 1831.3007134847537,741.1487561310388 1838.7200250081912,739.9354840363122ZM1838.7025689535037,788.0183087433435 1838.355706160535,788.4688244904138 1837.991448348035,789.283811673031 1837.6976251058475,791.2424145783044 1837.9573907308475,968.2510052765466 1838.2174004964725,969.5856610382654 1838.3906793050662,969.9666424835779 1838.875725691785,970.5216656769372 1843.1571587972537,971.5960980499841 2108.790993636122,971.6487103546716 2111.669411604873,971.1459027374841 2112.1195458822167,970.9374066437341 2114.0611352376854,968.8918744171716 2114.268837874404,967.228147610531 2114.200173323623,790.6183606232263 2114.095436995498,790.0981579865075 2112.362343733779,787.5157147492029 2112.3448266439354,787.4985028351404 2111.2706078939354,787.0302563751794 2109.6932153158095,786.7529278839685 1842.5159234456912,786.7355481232263Z" id="yijEaWyZhAzPCZYEK" type="simple_path" name="http://lore-mbp.local:3000/icons/black_kitty_1024x1024.jpg" stroke="#000000" stroke-width="0" stroke-opacity="1" fill="#000000" fill-opacity="1" stroke-linejoin="miter" stroke-linecap="butt" opacity="1"/></g><g id="WFagqADCnNxNxn8Lj" type="simpleGroup" transform="matrix(1.5,0,0,1.5,-250,-236)"><path d="M676.3970735391501,669.8023724922325 525.0756013711814,669.8023724922325 525.0756013711814,697.9578290352013 676.3970735391501,697.9578290352013 676.3970735391501,669.8023724922325ZM676.2403352579001,505.14508489457626 648.1753938516501,505.14508489457626 648.1753938516501,697.642338312545 676.2403352579001,697.642338312545 676.2403352579001,505.14508489457626ZM718.1464631875876,539.61523870317 717.8440950235251,538.1023602852013 717.3310945352439,536.6472821602013 716.7710969766501,535.5360761055138 671.6307771524314,457.34979680863876 670.7673738321189,456.0716596016075 669.7314241250876,454.92773870317 668.5459993204001,453.94195989457626 667.2317903360251,453.13312200395126 665.8171174844626,452.51642278520126 664.3304231485251,452.10596135942 662.8000276407126,451.90948919145126 661.2576082071189,451.93133977738876 659.7338655313376,452.16925481645126 658.2580354532126,452.62006048051376 656.8608796914939,453.27393010942 655.5694978555564,454.1187787422325 654.4113557657126,455.13721135942 653.4071443399314,456.30957464067 652.7249543985251,457.34979680863876 607.5834138711814,535.5360761055138 606.9076936563376,536.9234662422325 606.4350984414939,538.39160589067 606.1742341836814,539.9121747383263 606.1305330118064,541.4545331367638 606.3041169961814,542.987064875045 606.6927278360251,544.4803510078575 607.2875764688376,545.9037518867638 608.0767610391501,547.2288861641075 609.0450227579001,548.4295697578575 610.1736848672751,549.4818768867638 611.4388215860251,550.3649335273888 612.8163240274314,551.0602460273888 614.2768953164939,551.5547528633263 615.7941682657126,551.8385663398888 617.0363557657126,551.9094891914513 707.3182161172751,551.9094891914513 708.8572175821189,551.8003583320763 710.3646638711814,551.4750409492638 711.8121736368064,550.9412885078575 713.1700837930564,550.2088666328575 714.4100740274314,549.2908368477013 715.5092561563376,548.2091107734825 716.4446809610251,546.982182062545 717.1979158243064,545.6351971992638 717.7534578164939,544.196537531295 718.1006257852439,542.6934247383263 718.2327058633689,541.1554608711388Z" id="WvLZhjkvu6LTf56Mc" type="simple_path" name="http://lore-mbp.local:3000/icons/black_kitty_1024x1024.jpg" stroke="#000000" stroke-width="0" stroke-opacity="1" fill="#000000" fill-opacity="1" stroke-linejoin="miter" stroke-linecap="butt" opacity="1"/><path d="M494.5766131717452,545.5840427531286 501.0080096561202,546.6931736125036 506.4154803592452,548.3052341593786 512.5514666873702,550.9919407023474 517.1626727420577,553.6611911906286 522.5350482303389,557.6654636515661 528.0303485233077,563.4721042765661 534.5481707889327,573.2655002726599 537.9964129764327,581.5856907023474 539.4877459842452,588.9349949015661 539.9555194217452,593.5626804484411 539.8336932498702,777.0712864054724 538.9503924686202,783.8834201945349 537.0607440311202,790.5217868937536 534.1659686404952,796.9180881632849 529.8501727420577,803.3491794718786 521.9290301639327,811.7208225382849 514.5623309451827,816.9556247843786 507.2306659061202,820.2663547648474 501.6834246951827,821.9822971476599 489.7930438358077,823.7327243937536 219.25326417272174,823.6813327921911 213.602446301628,822.9876682414099 202.38764832799518,820.1968967570349 194.79554627721393,816.7825901164099 188.78114198033893,812.6568576945349 184.16999696080768,808.4970066203161 179.73292420690143,803.2623264445349 176.50874207799518,798.2879001750036 173.70063660924518,792.4636814250036 171.81129334752643,786.7951633585974 170.11280701940143,775.8585788859411 170.11280701940143,591.2228977335974 171.13545106237018,584.4974338664099 172.83442567174518,578.6389133585974 175.52070496862018,572.5027439250036 178.22486756627643,567.8573581828161 182.24598573033893,562.4840671671911 186.80451844518268,557.8906223429724 192.19575379674518,553.7827732218786 198.95551942174518,550.2118503703161 210.25656007115924,546.4332859171911 217.67587159459674,545.2199680460974ZM217.65841553990924,593.3027927531286 217.3115527469405,593.7533542765661 216.9472949344405,594.5682956828161 216.653471692253,596.5269138468786 216.913237317253,773.5354587687536 217.173247082878,774.8701145304724 217.34652589147174,775.2511570109411 217.8315722781905,775.8061496867224 222.11300538365924,776.8805515421911 487.7467791873702,776.9331638468786 490.6251971561202,776.4303562296911 491.0753924686202,776.2218601359411 493.0169207889327,774.1763279093786 493.2246844608077,772.5126316203161 493.1559588748702,595.9028904093786 493.0512225467452,595.3826877726599 491.3181903201827,592.8002292765661 491.3006121951827,592.7830173625036 490.2263934451827,592.3147556437536 488.6490008670577,592.0374118937536 221.47177003209674,592.0200779093786Z" id="bJBMHyjSSwfmTsEBn" type="simple_path" name="http://lore-mbp.local:3000/icons/black_kitty_1024x1024.jpg" stroke="#000000" stroke-width="0" stroke-opacity="1" fill="#000000" fill-opacity="1" stroke-linejoin="miter" stroke-linecap="butt" opacity="1"/><path d="M801.1858806157138,173.85939025878906 807.6172771000888,174.968505859375 813.0247478032138,176.58056640625 819.1607341313388,179.2672882080078 823.7718791508701,181.9365692138672 829.1442546391513,185.9407958984375 834.6396159672763,191.7474822998047 841.1573771977451,201.54083251953125 844.6056193852451,209.8610382080078 846.0970134282138,217.21035766601562 846.5647258305576,221.83802795410156 846.4428996586826,405.3466491699219 845.5596599125888,412.1587829589844 843.6699504399326,418.79718017578125 840.7752360844638,425.1934509277344 836.4593791508701,431.6245422363281 828.5382365727451,439.9961853027344 821.1715983891513,445.2309875488281 813.8399333500888,448.5417175292969 808.2926921391513,450.2576904296875 796.4022502446201,452.00811767578125 525.8624553227451,451.9566955566406 520.2116374516513,451.2630615234375 508.99685473680756,448.4722595214844 501.40478320360444,445.0579833984375 495.39037890672944,440.9322509765625 490.77932543993256,436.7723693847656 486.34219165087006,431.5376892089844 483.1180095219638,426.56329345703125 480.30996508837006,420.73907470703125 478.4206218266513,415.070556640625 476.72207446337006,404.13397216796875 476.72207446337006,219.49822998046875 477.74477954149506,212.77276611328125 479.4436931157138,206.91427612304688 482.1299724125888,200.778076171875 484.83413501024506,196.13270568847656 488.85525317430756,190.7594451904297 493.41384692430756,186.16595458984375 498.8049907231357,182.05810546875 505.56481738329194,178.4872283935547 516.8657512211826,174.7086181640625 524.2850627446201,173.49534606933594ZM524.2676066899326,221.5781707763672 523.9207438969638,222.0286865234375 523.5564860844638,222.8436737060547 523.2626628422763,224.80227661132812 523.5224284672763,401.81085205078125 523.7824382329013,403.1455078125 523.9557170414951,403.5265197753906 524.4407634282138,404.0815124511719 528.7221965336826,405.15594482421875 794.3560466313388,405.20855712890625 797.2344646000888,404.70574951171875 797.6845988774326,404.49725341796875 799.6261882329013,402.45172119140625 799.8338908696201,400.7879943847656 799.7652263188388,224.17822265625 799.6604899907138,223.65802001953125 797.9273967289951,221.07557678222656 797.9098796391513,221.05836486816406 796.8356608891513,220.59011840820312 795.2582683110263,220.3127899169922 528.0809611821201,220.29541015625Z" id="dKEdENGhKYeJm3TxL" type="simple_path" name="http://lore-mbp.local:3000/icons/black_kitty_1024x1024.jpg" stroke="#000000" stroke-width="0" stroke-opacity="1" fill="#000000" fill-opacity="1" stroke-linejoin="miter" stroke-linecap="butt" opacity="1"/></g></g></g></svg>