<svg xmlns="http://www.w3.org/2000/svg" xmlns:xlink="http://www.w3.org/1999/xlink" width="724" height="512" onload="init()" id="TXx6LvjycGttc6Pba"><script type="application/javascript"> <![CDATA[ 
function init(){}
 ]]> </script><g id="viewport" transform="matrix(0.5 0 0 0.5 0 0)"><g id="rYEsorWD6xSs4BntE" type="layer"><title>rYEsorWD6xSs4BntE</title><path d="M813.156982421875,0.8893322348594666 818.9869995117188,1.8059256076812744 823.8931274414062,3.1381964683532715 829.4541015625,5.358211517333984 833.636474609375,7.564116477966309 838.51025390625,10.872702598571777 843.4915771484375,15.67126750946045 849.4029541015625,23.76386833190918 852.5293579101562,30.639427185058594 853.8828125,36.7120361328125 854.301025390625,40.536842346191406 854.1932373046875,192.1792449951172 853.3909301757812,197.80772399902344 851.6802978515625,203.29336547851562 849.0574951171875,208.5792236328125 845.1439208984375,213.89306640625 837.9568481445312,220.81158447265625 831.280517578125,225.1368865966797 824.6299438476562,227.8730926513672 819.59814453125,229.29067993164062 808.8153686523438,230.73777770996094 563.4940185546875,230.69493103027344 558.3709716796875,230.12127685546875 548.2034301757812,227.81556701660156 541.3211059570312,224.99403381347656 535.865234375,221.5852813720703 531.687255859375,218.14739990234375 527.6627197265625,213.8212432861328 524.7360229492188,209.71038818359375 522.1908569335938,204.8982391357422 520.4803466796875,200.21438598632812 518.939453125,191.176513671875 518.939453125,38.60281753540039 519.8640747070312,33.04558563232422 521.404052734375,28.204238891601562 523.8442993164062,23.13393211364746 526.292236328125,19.295028686523438 529.9395751953125,14.854580879211426 534.0730590820312,11.05893611907959 538.9625244140625,7.664572715759277 545.0904541015625,4.7137227058410645 555.3424682617188,1.5912144184112549 562.0696411132812,0.5885786414146423ZM562.0485229492188,40.321533203125 561.7352294921875,40.69401168823242 561.4085083007812,41.3671760559082 561.1397705078125,42.985679626464844 561.3751831054688,189.25729370117188 561.6109619140625,190.35972595214844 561.772216796875,190.67445373535156 562.210693359375,191.13333129882812 566.09326171875,192.02134704589844 806.959228515625,192.06399536132812 809.5693969726562,191.64878845214844 809.984130859375,191.4768829345703 811.7418823242188,189.78656005859375 811.927734375,188.4120635986328 811.8656005859375,42.4703254699707 811.7740478515625,42.04034423828125 810.2013549804688,39.90636444091797 810.1865844726562,39.89215850830078 809.206787109375,39.505130767822266 807.7842407226562,39.275978088378906 565.5086669921875,39.262020111083984ZM973.4217529296875,633.1190185546875 977.659423828125,637.5780029296875 980.3921508789062,641.8624267578125 982.4339599609375,647.3988647460938 983.1636352539062,652.0709228515625 982.9215087890625,658.2225952148438 980.5731811523438,665.85595703125 974.214111328125,677.1988525390625 966.9966430664062,685.6715698242188 959.264404296875,692.28515625 953.9862670898438,696.188720703125 728.3989868164062,840.5530395507812 719.2592163085938,845.4205322265625 709.4613647460938,849.5908203125 699.076171875,853.0132446289062 687.4191284179688,855.6655883789062 670.237548828125,857.8365478515625 657.388916015625,857.84619140625 646.9409790039062,856.364990234375 639.9991455078125,854.6211547851562 627.4944458007812,849.3682861328125 391.98883056640625,698.428466796875 387.9209289550781,694.7327880859375 381.5802917480469,686.2821655273438 379.1666564941406,679.3596801757812 378.99444580078125,672.7594604492188 380.092529296875,666.913330078125 382.6595153808594,660.3211669921875 385.9662170410156,654.6041870117188 390.6795654296875,648.4541625976562 395.9951171875,642.941650390625 407.958251953125,633.3831176757812 634.823486328125,488.0673522949219 643.978759765625,483.34381103515625 652.65380859375,479.681396484375 662.5293579101562,476.3491516113281 670.5953369140625,474.20233154296875 680.6948852539062,472.2143249511719 690.3143920898438,471.1434631347656 700.0556640625,470.9159851074219 710.3229370117188,471.8768310546875 724.813232421875,475.2056579589844 732.7633056640625,478.3895263671875ZM673.6634521484375,516.2230834960938 672.8080444335938,516.3844604492188 671.49365234375,516.82275390625 668.83154296875,518.1991577148438 451.55926513671875,657.6580200195312 450.1460266113281,658.8522338867188 449.8318786621094,659.2509765625 449.573486328125,659.959716796875 451.9813537597656,663.1936645507812 683.2172241210938,811.39306640625 686.3357543945312,812.5986938476562 686.9850463867188,812.689208984375 691.1893920898438,812.1599731445312 693.414794921875,810.9683227539062 910.3555297851562,671.930419921875 910.9067993164062,671.4620361328125 912.57373046875,668.4599609375 912.5774536132812,668.4395141601562 912.21484375,667.4708862304688 911.1835327148438,666.3739013671875 678.5634155273438,517.3413696289062ZM664.9539184570312,228.0499267578125 709.0628662109375,228.0499267578125 709.0628662109375,505.12506103515625 664.9539184570312,505.12506103515625 664.9539184570312,228.0499267578125ZM181.2379150390625,650.8213500976562 225.3528289794922,650.8213500976562 225.3528289794922,914.3671264648438 181.2379150390625,914.3671264648438 181.2379150390625,650.8213500976562ZM182.4810028076172,648.5618896484375 408.4444580078125,648.5618896484375 408.4444580078125,688.889892578125 182.4810028076172,688.889892578125 182.4810028076172,648.5618896484375ZM294.2684326171875,896.5679321289062 293.79669189453125,898.7379760742188 292.9837646484375,900.8211669921875 292.1080627441406,902.41259765625 221.15505981445312,1014.4031982421875 219.7982940673828,1016.2340698242188 218.17308044433594,1017.8722534179688 216.31175231933594,1019.2818603515625 214.24111938476562,1020.4421997070312 212.01658630371094,1021.32470703125 209.68505859375,1021.9121704101562 207.2773895263672,1022.19482421875 204.8506317138672,1022.1621704101562 202.46121215820312,1021.8198852539062 200.14166259765625,1021.1773681640625 197.94505310058594,1020.2409057617188 195.91070556640625,1019.03271484375 194.08961486816406,1017.5687255859375 192.51390075683594,1015.8941650390625 191.4403839111328,1014.4031982421875 120.48712921142578,902.41259765625 119.42768859863281,900.4258422851562 118.68875885009766,898.3246459960938 118.27375793457031,896.1468505859375 118.20673370361328,893.935302734375 118.47701263427734,891.740234375 119.0928726196289,889.599853515625 120.02347564697266,887.5624389648438 121.2676773071289,885.6647338867188 122.78589630126953,883.9442138671875 124.56452941894531,882.439697265625 126.54708862304688,881.171630859375 128.71600341796875,880.1771240234375 131.01158142089844,879.4684448242188 133.39247131347656,879.0609741210938 135.34713745117188,878.960205078125 277.2472839355469,878.960205078125 279.6657409667969,879.1192626953125 282.0351257324219,879.5821533203125 284.3117980957031,880.3483276367188 286.4449157714844,881.3966064453125 288.3945617675781,882.709716796875 290.1211242675781,884.2598876953125 291.593505859375,886.019775390625 292.7771911621094,887.94677734375 293.6512756347656,890.008544921875 294.1990966796875,892.1608276367188 294.4044494628906,894.3659057617188ZM951.9598999023438,638.4169921875 1177.925048828125,638.4169921875 1177.925048828125,678.7467651367188 951.9598999023438,678.7467651367188 951.9598999023438,638.4169921875ZM1185.517822265625,578.2382202148438 1187.89599609375,578.6732177734375 1190.178466796875,579.406982421875 1191.923828125,580.208251953125 1314.8160400390625,644.8645629882812 1316.82470703125,646.1029663085938 1318.61865234375,647.58642578125 1320.1751708984375,649.2837524414062 1321.44384765625,651.1671752929688 1322.4156494140625,653.19140625 1323.054931640625,655.3201293945312 1323.36083984375,657.513671875 1323.327392578125,659.7235717773438 1322.954345703125,661.90576171875 1322.24853515625,664.0194702148438 1321.2177734375,666.0208129882812 1319.9002685546875,667.8710327148438 1318.2972412109375,669.529541015625 1316.455078125,670.966064453125 1314.8160400390625,671.9442749023438 1191.923828125,736.6033935546875 1189.7442626953125,737.5716552734375 1187.4359130859375,738.2471923828125 1185.0426025390625,738.6211547851562 1182.6187744140625,738.6843872070312 1180.2088623046875,738.4363403320312 1177.8648681640625,737.8804321289062 1175.6251220703125,737.0260620117188 1173.544921875,735.8963623046875 1171.662841796875,734.508056640625 1170.001220703125,732.8947143554688 1168.6195068359375,731.0800170898438 1167.52978515625,729.1080322265625 1166.74560546875,727.0155029296875 1166.302978515625,724.843017578125 1166.184814453125,723.0631103515625 1166.184814453125,593.7470092773438 1166.3597412109375,591.5443115234375 1166.8748779296875,589.3847045898438 1167.71435546875,587.3113403320312 1168.8587646484375,585.36669921875 1170.3018798828125,583.5905151367188 1172.00537109375,582.0159912109375 1173.9361572265625,580.6762084960938 1176.052734375,579.5980224609375 1178.306640625,578.8024291992188 1180.674560546875,578.3043212890625 1183.088623046875,578.11572265625Z" id="4CeAwqbsNZsJTS5pu" type="simple_path" name="undefined" stroke="#000000" stroke-width="0" stroke-opacity="1" fill="#000000" fill-opacity="1" stroke-linejoin="miter" stroke-linecap="butt" opacity="1"/><path d="M673.4879150390625,506.9730224609375 922.7247314453125,665.1774291992188 688.9599609375,819.2684936523438 438.9360046386719,661.8511352539062 673.4879150390625,506.9730224609375Z" id="97DPcjv9ybTvMSypE" type="simple_path" name="http://lore-mbp.local:3000/icons/black_kitty_1024x1024.jpg" stroke="#000000" stroke-width="0" stroke-opacity="1" fill="#bec8c2" fill-opacity="1" stroke-linejoin="miter" stroke-linecap="butt" opacity="1"/><path d="M445.5,330.5 445.5,636.5" id="ArYvF6AAXG4Hi7L82" type="simple_path" name="undefined" stroke="#black" stroke-width="2" stroke-opacity="1" fill="#null" fill-opacity="1" stroke-linejoin="miter" stroke-linecap="butt" opacity="1"/><path d="M1175.4912109375,821.0830078125Z" id="S3mrQhNmSMd98TNvw" type="simple_path" name="http://lore-mbp.local:3000/icons/black_kitty_1024x1024.jpg" stroke="#000000" stroke-width="0" stroke-opacity="1" fill="#000000" fill-opacity="1" stroke-linejoin="miter" stroke-linecap="butt" opacity="1"/><path d="M560.9345267762795,36.29506202480812 818.0421927919045,36.29506202480812 818.0421927919045,192.7473668648961 560.9345267762795,192.7473668648961 560.9345267762795,36.29506202480812Z" id="WbQkmWpEMoz5B7dth" type="simple_path" name="http://lore-mbp.local:3000/icons/black_kitty_1024x1024.jpg" stroke="#000000" stroke-width="0" stroke-opacity="1" fill="#bec8c2" fill-opacity="1" stroke-linejoin="miter" stroke-linecap="butt" opacity="1"/><path d="M445.5,330.5 445.5,636.5" id="kKtqzf7RoLCRoJyY9" type="simple_path" name="undefined" stroke="#black" stroke-width="2" stroke-opacity="1" fill="#null" fill-opacity="1" stroke-linejoin="miter" stroke-linecap="butt" opacity="1"/><path d="M445.5,330.5 445.5,636.5" id="oSHk53xqJjS99woPG" type="simple_path" name="undefined" stroke="#black" stroke-width="2" stroke-opacity="1" fill="#null" fill-opacity="1" stroke-linejoin="miter" stroke-linecap="butt" opacity="1"/><path d="M824.2508544921875,190.41151428222656Z" id="pbC2uEbtWaLW9SYXA" type="simple_path" name="http://lore-mbp.local:3000/icons/black_kitty_1024x1024.jpg" stroke="#000000" stroke-width="0" stroke-opacity="1" fill="#000000" fill-opacity="1" stroke-linejoin="miter" stroke-linecap="butt" opacity="1"/><g id="NApJRBC9NJXheEvZ9" type="simpleGroup"/><g id="ZCN4FGHSpshJuFBmW" type="simpleGroup"/><g id="mu2hLdYGCHNRwq5Bv" type="simpleGroup"/></g></g></svg>