<svg xmlns="http://www.w3.org/2000/svg" xmlns:xlink="http://www.w3.org/1999/xlink" width="72.4" height="51.2" onload="init()" id="uKrNHyXAogKvr3ruK"><script type="application/javascript"> <![CDATA[ 
function init(){}
 ]]> </script><g id="viewport" transform="matrix(0.05 0 0 0.05 0 0)"><g id="oufKnczSN4JRfTeCT" type="layer"><title>oufKnczSN4JRfTeCT</title><path d="M1140.3244096901137 105.40253721760567L1134.0192339088637 99.47292601155098C1142.6896440651137 91.76452909992989 1154.5108110573012 89.59025084065254 1166.9246294166762 91.56676756428536C1179.3374712135512 93.54329954670723 1185.4480669166762 98.6819409041291 1189.9780962135512 103.22829710530098C1194.5121538307387 107.77383696125801 1200.0281450416762 123.19067656086739 1199.8880083229262 123.04784666584786L1192.2029497291762 127.19871794270333C1192.0598833229262 127.0566204695588 1190.3722612526137 115.28441130207833 1185.0519487526137 110.34352385090645C1179.7313921119887 105.40253721760567 1176.3819048073012 101.25172697590645 1166.3330766823012 99.86841093586739C1156.2838823463637 98.48501860188301 1147.0231401588637 99.07756315754708 1140.3244096901137 105.40253721760567ZM1174.2152788307387 114.09864317463692L1166.9798051979262 118.50216948078926C1166.9798051979262 118.50216948078926 1162.9829790260512 116.6681698470002 1158.4528276588637 117.06342588948067C1158.4528276588637 121.21387754963692 1158.2539751198012 128.3291348128205 1161.9981157448012 131.29379545735176C1165.7433550026137 134.25847136067208 1175.7930376198012 136.23497282551583 1175.6502153541762 136.0926540999299C1175.5067827369887 135.95036589192208 1180.1283647682387 145.12900053547676 1179.9848100807387 144.98680388020333C1179.8425981666762 144.8444851546174 1170.2743608619887 145.12900053547676 1164.9536821510512 143.3501766829377C1159.6334917213637 141.57135283039864 1152.9339067604262 134.851473680008 1151.1612016823012 128.72445951985176C1149.3884966041762 122.59743010090645 1149.7821733619887 117.65634428547676 1151.2166216041762 113.16571318196114C1154.6218950416762 110.45398222492989 1161.2100298073012 108.36690794514473 1165.5454790260512 109.15758024739083C1169.8809282448012 109.94816862629708 1174.2152788307387 114.09864317463692 1174.2152788307387 114.09864317463692ZM1182.6875688698012 109.15758024739083L1188.0633012916762 114.94462858723458L1163.4325639869887 131.5468319563752L1159.0995561744887 124.43165098713692L1182.6875688698012 109.15758024739083ZM1184.4622270729262 133.46791349934395L1188.4566118385512 140.83615385578926L1214.8612749244887 125.02454649494942L1211.7095415260512 116.5257137923127L1184.4622270729262 133.46791349934395ZM1178.7467729713637 122.20214354084786L1171.7081987526137 126.21039091633614C1171.7081987526137 126.21039091633614 1177.3672563698012 138.80438505696114 1179.9291460182387 143.54791533039864C1182.4921342994887 148.2913845686799 1185.0519487526137 150.46559416340645 1190.1768266823012 151.84892546223458C1195.2987749244887 153.23248564289864 1200.6199419166762 151.25604521321114 1200.4774858619887 151.11374174641426C1200.3369829323012 150.9714382796174 1198.4512407448012 143.54791533039864 1198.3103716041762 143.40568815754708C1198.1684038307387 143.26336943196114 1192.5412065651137 144.5361355452424 1189.5853960182387 142.7573269514924C1186.6292192604262 140.9783505110627 1178.7467729713637 122.20214354084786 1178.7467729713637 122.20214354084786ZM1191.3578569557387 103.22819029377754L1195.5530473854262 110.5963925032502C1195.5530473854262 110.5963925032502 1201.6044389869887 109.3551586775666 1207.5170366432387 111.33165251301583C1213.4273149635512 113.3080853133088 1213.4273149635512 117.26101194905098 1214.8060991432387 119.83038603352364C1216.1851274635512 122.3997601179963 1215.2017290260512 139.99028288410958 1215.0589067604262 139.84807097004708C1214.9164507057387 139.7055996565705 1224.6597368385512 138.6066464095002 1224.5167925026137 138.46437346028145C1224.3756792213637 138.32208525227364 1225.2509233619887 124.96920286701973 1224.2663042213637 120.02797972248848C1223.2798540260512 115.08691679524239 1222.2951128151137 109.94816862629708 1215.0038530494887 105.59981810139473C1207.7129594948012 101.25162779377754 1196.4827348854262 101.05396544026192 1191.3578569557387 103.22819029377754ZM1204.1670610573012 132.6773708968049L1196.5355913307387 136.290438523758L1204.2199175026137 164.15829741047676L1213.4816362526137 164.7512539534455L1204.1670610573012 132.6773708968049ZM1207.1209184791762 141.96666227864083L1209.7388384010512 150.12542997883614L1233.5805132057387 145.9750546126252L1235.9452592994887 137.08092009114083L1207.1209184791762 141.96666227864083ZM1133.4274370338637 156.39479338215645L1141.3097612526137 161.33571135090645C1143.0829546119887 158.56914030598458 1147.8113481666762 152.83671843098458 1158.6480180885512 154.41827665852364C1169.4870073463637 155.9999569563752 1175.2017290260512 169.83427702473458 1175.0582964088637 169.69230925129708C1174.9173051979262 169.55035673664864 1183.2794878151137 167.46319853352364 1183.1361772682387 167.3204373030549C1182.9961626198012 167.17819487141426 1178.5508501198012 151.25604521321114 1161.6045610573012 147.30299650715645C1144.6598589088637 143.3501766829377 1133.4274370338637 156.39479338215645 1133.4274370338637 156.39479338215645ZM1224.0676958229262 115.2844799666291L1225.3063432838637 124.23395811604317C1225.3063432838637 124.23395811604317 1234.9043657448012 128.52679716633614 1236.0873491432387 134.06090055989083C1237.2709428932387 139.59486662434395 1234.9043657448012 149.27965055989083 1229.1902544166762 152.8371151595002C1227.0239946510512 151.4535702376252 1224.6597368385512 148.09373747395333 1224.5167925026137 147.95135771321114C1224.3756792213637 147.80917631672676 1215.7918169166762 149.08188139485176 1215.6504594948012 148.93962370442208C1217.2809526588637 154.13389860676583 1221.5058061744887 158.9642361311799 1231.1605913307387 161.73124968098458C1238.4519731666762 157.18532072590645 1245.1509477760512 149.6749294905549 1245.9389116432387 140.5832089095002C1246.7290727760512 131.4914883284455 1239.0437700416762 120.2256878523713 1224.0676958229262 115.2844799666291ZM1175.9888384010512 154.2205380110627C1180.3234331276137 152.63946806477364 1186.2361528541762 153.03488432453926 1193.3284380104262 156.98793303059395C1200.4220659401137 160.94032560871895 1202.3924028541762 164.4978817610627 1203.1823198463637 169.83427702473458C1203.9695512916762 175.17082487629708 1200.6199419166762 184.46014677571114 1196.0860063698012 186.832186570633C1187.6143266823012 189.79718290852364 1180.1283647682387 182.28639494465645 1177.5653764869887 178.92644011067208L1186.2361528541762 176.3570126204377C1188.2061235573012 177.93846403645333 1188.9935991432387 178.135897508133 1192.3433305885512 179.9148281721955C1194.3142778541762 178.135897508133 1196.0860063698012 174.3806179671174 1194.9058305885512 169.24188505696114C1193.7223589088637 164.10328947590645 1185.8418657448012 161.33571135090645 1181.1133501198012 160.94032560871895L1175.9888384010512 154.2205380110627ZM1172.4430620338637 166.27714811848458L1166.7838823463637 159.61261259602364C1166.7838823463637 159.61261259602364 1158.2539751198012 169.43942534016426 1161.2099077369887 183.07687651203926C1164.1665727760512 196.7144344954377 1181.1131059791762 204.8177517561799 1180.9706499244887 204.67572294758614C1180.8272173073012 204.53337370442208 1184.4622270729262 197.10978972004708 1184.3203813698012 196.9674862532502C1184.1769487526137 196.8251980452424 1171.8511430885512 193.35441862629708 1169.2886430885512 181.891024461258C1166.7289507057387 170.42770659016426 1172.4430620338637 166.27714811848458 1172.4430620338637 166.27714811848458ZM1192.1476518776137 166.27714811848458L1194.5672075416762 173.8430508284455C1185.5012895729262 173.64535795735176 1174.6091997291762 177.93808256672676 1170.0785600807387 181.69342314289864C1169.8809282448012 177.34515654133614 1169.8809282448012 175.36874662922676 1170.2743608619887 172.7993496565705C1173.6234819557387 171.21832548664864 1186.8275835182387 166.8700741438752 1192.1476518776137 166.27714811848458ZM1227.2899858619887 169.40069853352364L1223.9174272682387 175.96531950520333C1218.6205522682387 173.49656950520333 1209.0955278541762 172.01886259602364 1204.1736528541762 172.841463914383L1202.9790727760512 165.28673063801583C1210.8093950416762 165.06235014485176 1221.3223344948012 167.3061550764924 1227.2899858619887 169.40069853352364ZM1253.2028276588637 180.34291349934395L1245.7832719948012 176.25956999348458C1245.7832719948012 176.25956999348458 1245.3681108619887 171.87102018879708 1242.7606889869887 168.1318691878205C1239.1782915260512 170.20724760578926 1232.9370805885512 173.5937069563752 1232.2497026588637 178.32817350910958C1231.5603716041762 183.06280790852364 1234.8798296119887 192.78036772297676 1234.9310991432387 192.58615385578926C1234.9841997291762 192.39157377766426 1229.3665239479262 200.9931973128205 1229.4202348854262 200.79864775227364C1229.4713823463637 200.6042812971955 1224.4428178932387 192.43487822102364 1223.3164751198012 186.92389189289864C1222.1928178932387 181.41298185871895 1224.6442339088637 172.23341642903145 1229.0493852760512 167.6292294173127C1233.4513628151137 163.02540861653145 1237.9147417213637 160.89714323567208 1242.5095903541762 159.89799772785958C1246.5523149635512 161.4998348860627 1251.6503374244887 166.18014799641426 1253.1345903541762 170.34099089192208C1254.6184770729262 174.50200163410958 1253.2028276588637 180.34291349934395 1253.2028276588637 180.34291349934395ZM1207.5170366432387 174.38054167317208L1216.8324663307387 175.42412077473458C1216.8324663307387 175.42412077473458 1224.0676958229262 195.92384611653145 1224.2663042213637 202.84149443196114C1224.4619829323012 209.759188523758 1222.4910356666762 218.45541655110176 1217.5658647682387 223.1989315657502C1212.6394731666762 227.94243132160958 1204.1673051979262 231.69784819172676 1194.9058305885512 229.52354704426583C1198.8467485573012 226.75656401203926 1201.9989702369887 224.38493620442208 1205.1508257057387 220.8272274641877C1210.6690141823012 219.04826628254708 1214.6102983619887 215.88617216633614 1215.7918169166762 208.77089201496895C1216.9744341041762 201.6554745345002 1207.5170366432387 174.38054167317208 1207.5170366432387 174.38054167317208ZM1159.4376909401137 178.72882353352364C1150.9635698463637 182.28639494465645 1142.0976030494887 198.29564177082833 1142.4912798073012 206.59689604328926L1151.1612016823012 204.02757536457833C1151.1612016823012 197.10978972004708 1157.0731889869887 189.99457060383614 1161.0122759010512 186.6346462874299L1159.4376909401137 178.72882353352364ZM1261.7056352760512 185.2325009016877L1259.3969194557387 192.7954434065705L1232.7478716041762 179.70079313801583L1236.7239458229262 172.37758146809395L1261.7056352760512 185.2325009016877ZM1248.4729692604262 188.33139311360176L1241.4922563698012 184.22149931477364C1241.4922563698012 184.22149931477364 1233.4478227760512 195.4342831282502 1230.6337358619887 200.031161180008C1227.8202592994887 204.62826811360176 1227.2234575416762 207.9403866438752 1228.5906450416762 213.08241545246895C1229.9581987526137 218.22441374348458 1230.5122759010512 217.58568083332833 1233.2543413307387 220.0896328596955L1238.8273393776137 214.35264860676583C1238.8784868385512 214.15831266926583 1236.0873491432387 211.47996794270333 1236.1441118385512 208.0231960921174C1236.2035600807387 204.56618010090645 1248.4729692604262 188.33139311360176 1248.4729692604262 188.33139311360176ZM1193.3284380104262 218.6531094221955L1186.0375444557387 222.210604539383C1178.7467729713637 215.2930477766877 1179.9291460182387 207.38742338703926 1182.8854448463637 201.8532742171174C1187.0232622291762 192.7614315657502 1196.4827348854262 189.00628935383614 1201.2108842994887 190.58757292317208C1205.9398882057387 192.1687039046174 1209.4854204323012 200.07440458821114 1209.4855425026137 210.35211454914864L1201.9988481666762 205.01561247395333C1201.4065630104262 202.84137236164864 1201.8006059791762 199.086336961258 1198.8467485573012 198.0979336409455C1195.8904497291762 197.10978972004708 1191.9497759010512 201.6554745345002 1190.1768266823012 205.41086088703926C1188.4018022682387 209.16615568684395 1190.3722612526137 216.47905241535958 1193.3284380104262 218.6531094221955ZM1243.7665483619887 146.55392729328926L1245.7318803932387 138.1121853499299C1256.7227251198012 141.78917204426583 1264.5117876198012 150.97185026692208 1269.0122759010512 162.74362455891426C1273.5105669166762 174.51518522785958 1272.1298296119887 182.391024461258 1270.4701616432387 188.60069548176583C1268.8130571510512 194.81061064289864 1258.2606889869887 207.31183134602364 1258.3119585182387 207.117342820633L1250.8865434791762 202.51713835285958C1250.9369585182387 202.3224667220002 1260.2592241432387 194.9712246565705 1261.8653032448012 187.8793972639924C1263.4711382057387 180.7873562483674 1265.3775102760512 175.80205046223458 1261.5495073463637 166.3813046126252C1257.7190630104262 156.959627976883 1252.5757524635512 149.21103178547676 1243.7665483619887 146.55392729328926ZM1241.6032182838637 198.928133836258L1237.2395708229262 206.08355986164864L1264.0927202369887 221.11386381672676L1269.8548051979262 214.12582670735176L1241.6032182838637 198.928133836258ZM1271.1613237526137 189.79909025715645L1266.8946001198012 197.12559782551583C1266.8946001198012 197.12559782551583 1270.9942094948012 201.76307951496895 1272.2421342994887 207.88632475422676C1273.4925005104262 214.00961576985176 1270.0783159401137 215.98597990559395 1268.5496294166762 218.46873747395333C1267.0206987526137 220.9516934065705 1251.3416216041762 228.89116179035958 1251.3921587135512 228.69676481770333C1251.4455034401137 228.50230680989083 1257.2656938698012 236.4153622298127 1257.3164751198012 236.22091948078926C1257.3698198463637 236.02646147297676 1269.3351518776137 230.10995756672676 1273.1096880104262 226.78380095051583C1276.8815385963637 223.45729338215645 1280.8270952369887 220.0319393782502 1280.9347612526137 211.52475248860176C1281.0443803932387 203.017489305008 1275.5989458229262 193.16220366047676 1271.1613237526137 189.79909025715645ZM1193.7219926979262 201.6554745345002L1190.1768266823012 208.77089201496895C1193.3284380104262 209.75902067707833 1202.9841997291762 215.2930477766877 1205.6022417213637 220.2895840315705L1212.4408647682387 214.7003201155549C1209.6834184791762 209.9567898421174 1200.8172075416762 204.42271696614083 1193.7219926979262 201.6554745345002ZM1251.0178911354262 214.52519499348458L1244.0829546119887 209.70408903645333C1237.9483110573012 216.77394377278145 1229.7975542213637 225.4924343733674 1226.5763628151137 231.13820158528145C1223.3568803932387 236.78404509114083 1224.1718217994887 245.352206101883 1223.4153520729262 252.57191740559375L1230.8960649635512 252.59404264973438C1231.5598833229262 246.2494686751252 1230.4303667213637 239.00541960285958 1233.7841264869887 233.7846707014924C1237.1389848854262 228.56390654133614 1244.9739458229262 220.87016569660958 1251.0178911354262 214.52519499348458ZM1153.3279497291762 214.8979519514924L1145.1087114479262 217.52263151692208C1145.1087114479262 217.52263151692208 1146.6281206276137 226.75656401203926 1158.0584184791762 231.3023708968049C1169.4870073463637 235.8481777815705 1175.3974077369887 232.88365446614083 1175.2559282448012 232.74135099934395C1175.1134721901137 232.59904753254708 1171.8511430885512 224.38493620442208 1171.7081987526137 224.24254118489083C1171.5684282448012 224.100252976883 1165.5454790260512 224.5824001936799 1160.8165971901137 222.4082821516877C1156.0885698463637 220.23427092121895 1153.3279497291762 214.8979519514924 1153.3279497291762 214.8979519514924ZM1182.6876909401137 223.3966091780549L1185.3056108619887 230.5671719221955C1193.6480180885512 229.315340867508 1198.8364946510512 227.0756863264924 1204.6156694557387 220.28998076008614L1197.7193071510512 214.3603085188752C1194.0869829323012 220.53500639485176 1190.2604448463637 221.96522795246895 1182.6876909401137 223.3966091780549ZM1277.1048051979262 224.24074064778145L1269.9982378151137 229.79025541828926C1269.9982378151137 229.79025541828926 1271.0900346901137 240.27585112141426 1266.9036333229262 244.0700710921174C1262.7172319557387 247.86398588703926 1253.1734087135512 250.65230070637512 1247.2439653541762 247.46737944172676C1247.3554155494887 244.89279448078926 1249.0752641823012 241.1588162093049 1249.1264116432387 240.96452604817208C1249.1773149635512 240.77003752278145 1243.7886430885512 233.9504421858674 1243.8388139869887 233.7558621077424C1240.1697466041762 237.77031218098458 1238.1129839088637 243.85556303547676 1240.5504839088637 253.62605558918747C1248.1198198463637 257.686251512039 1257.9562456276137 259.7506741194609 1266.1992876198012 255.88946806477338C1274.4439165260512 252.02829252766415 1280.3266069557387 239.7202175764924 1277.1048051979262 224.24074064778145ZM1245.3720171119887 221.9621609358674L1239.6360551979262 228.31474577473458L1255.1400835182387 246.95067106770333L1264.0020219948012 244.55748259114083L1245.3720171119887 221.9621609358674ZM1259.6698686744887 257.65576445149213L1268.0486528541762 255.25406157063276C1270.5060503151137 266.48721586750776 1266.5111772682387 277.63562284992963 1258.5629350807387 287.21219145344526C1250.6144487526137 296.7889126448515 1243.0305864479262 299.41983305500776 1236.7589800026137 301.0026272444609C1230.4873735573012 302.58813749836713 1214.1427690651137 299.5743130354765 1214.3388139869887 299.52627836750776L1214.5241167213637 290.91028105305463C1214.7207719948012 290.85986601399213 1225.9378130104262 295.3096340803984 1232.9525835182387 293.2520474104765C1239.9662553932387 291.1945217757109 1245.2993852760512 290.4191311507109 1251.5430376198012 282.5584133772734C1257.7862016823012 274.69693266438276 1261.8941118385512 266.52005278157026 1259.6698686744887 257.65576445149213ZM1235.0613481666762 282.1519497542265L1234.7987749244887 273.79178129719526C1234.7987749244887 273.79178129719526 1238.4132768776137 271.307589402664 1240.3305132057387 267.25369535969526C1236.6731645729262 265.17850004719526 1230.5010454323012 261.45227324055463 1226.0167925026137 263.1561001448515C1221.5324175026137 264.8613918928984 1214.7653276588637 272.42590605305463 1214.9623491432387 272.37561308430463C1215.1590044166762 272.32535063313276 1204.7605669166762 271.6683987288359 1204.9572221901137 271.61804472492963C1205.1538774635512 271.56778227375776 1209.6867143776137 263.282198777664 1213.9151079323012 259.64358793782026C1218.1427690651137 256.0049008040312 1227.4142534401137 253.6631497053984 1233.7002641823012 255.21785246418744C1239.9850542213637 256.77261625813276 1244.1431352760512 259.57815825032026 1247.3828813698012 263.0443752913359C1248.0703813698012 267.29809843586713 1246.6149370338637 273.94922148274213 1243.7511675026137 277.24344145344526C1240.8860551979262 280.537569871414 1235.0613481666762 282.1519497542265 1235.0613481666762 282.1519497542265ZM1235.1795122291762 291.83291899250776L1227.3917925026137 293.51443754719526L1225.0770952369887 264.2501858382109L1233.5133745338637 264.120089402664L1235.1795122291762 291.83291899250776ZM1212.8688432838637 281.18814360188276L1204.3786089088637 280.9037502913359L1205.1105425026137 311.28161894367963L1214.1759721901137 312.84863554524213L1212.8688432838637 281.18814360188276ZM1225.6549760963637 281.95621000813276L1225.6417925026137 273.9622219710234C1225.6417925026137 273.9622219710234 1211.7136919166762 272.48147856282026 1206.2527544166762 272.29028593586713C1200.7918169166762 272.09952055500776 1197.5952837135512 273.1913479475859 1193.8136675026137 276.86111723469526C1190.0337602760512 280.52884184407026 1189.1151811744887 286.04519926594526 1189.3114702369887 285.99490629719526C1189.5071489479262 285.94653593586713 1196.9920122291762 288.05346952961713 1197.1875688698012 288.00503813313276C1197.3844682838637 287.95474516438276 1199.0759966041762 282.5298489241484 1202.1220171119887 280.903292527664C1205.1673051979262 279.27685820149213 1225.6549760963637 281.95621000813276 1225.6549760963637 281.95621000813276ZM1236.0692827369887 302.17642485188276L1227.4796831276137 302.06225859211713C1227.4796831276137 302.06225859211713 1225.5466997291762 307.834200730789 1220.8485796119887 311.8775356917265C1216.1524126198012 315.9190395979765 1212.6690141823012 313.9425686507109 1209.7154009010512 313.83182035969526C1206.7614214088637 313.72061430500776 1191.7520219948012 304.08853422688276 1191.9487993385512 304.0384243636015C1192.1453325416762 303.98803984211713 1188.2421342994887 312.829562058914 1188.4389116432387 312.7792385725859C1188.6344682838637 312.73086821125776 1199.9643022682387 320.15188871907026 1204.8107378151137 321.7837856917265C1209.6579057838637 323.41568266438276 1214.6795122291762 325.146456590164 1222.1569292213637 321.1153286604765C1229.6338579323012 317.0841702132109 1235.4234087135512 307.62512480305463 1236.0692827369887 302.17642485188276ZM1203.7134477760512 298.35379301594526L1204.3452837135512 290.0520962386015L1175.9451372291762 282.6586331038359L1170.7913286354262 290.2444790511015L1203.7134477760512 298.35379301594526ZM1194.0503618385512 296.2233303694609L1185.5519487526137 294.37146269367963L1177.2882768776137 316.73791777180463L1183.9444048073012 323.1973599104765L1194.0503618385512 296.2233303694609ZM1218.1825639869887 226.28981291340645L1209.8873979713637 230.52794157551583C1211.4387895729262 233.420077195633 1214.1262895729262 240.3106259016877 1207.3141557838637 248.74264799641426C1200.5010454323012 257.17663847492963 1185.4528276588637 255.1226986555937 1185.6496050026137 255.07225309895307C1185.8451616432387 255.02337919758588 1183.5027544166762 263.1834438948515 1183.7000200416762 263.133517137039C1183.8953325416762 263.0851467757109 1200.1492387916762 267.2627895979765 1212.1061479713637 254.81640898274213C1224.0611040260512 242.37184416340645 1218.1825639869887 226.28981291340645 1218.1825639869887 226.28981291340645ZM1209.0907671119887 323.98721586750776L1200.5845415260512 320.5663479475859C1200.5845415260512 320.5663479475859 1192.0021440651137 326.58874784992963 1186.5337602760512 324.82876860188276C1181.0656206276137 323.0686978011015 1173.7150346901137 316.21240507649213 1173.4363481666762 309.5704983382109C1175.7388384010512 308.41836821125776 1179.8819048073012 308.0860012678984 1180.0789262916762 308.0357082991484C1180.2743608619887 307.98730742024213 1183.4447710182387 300.0445278792265 1183.6403276588637 299.99609648274213C1178.2483598854262 298.78637968586713 1171.8794634010512 299.96655546711713 1164.6132280494887 306.80041777180463C1164.9738237526137 315.27871977375776 1168.2429887916762 324.73562895344526 1175.8600542213637 329.9519680647734C1183.4778520729262 335.16968046711713 1197.2482378151137 334.2623013167265 1209.0907671119887 323.98721586750776ZM1198.8183061744887 263.59985624836713C1198.0438921119887 268.0796536116484 1194.7392046119887 272.913546433914 1187.7088091041762 276.9739712386015C1180.6804887916762 281.03479277180463 1176.5590288307387 280.932833543289 1171.4625932838637 278.93655668782026C1166.3657915260512 276.93863188313276 1159.8541948463637 269.44311796711713 1160.0305864479262 264.3989895491484C1161.6537553932387 255.7060726790312 1172.0160600807387 253.08986174153125 1176.2584917213637 252.588824143875L1174.1873247291762 261.25256620930463C1171.8082964088637 262.1392239241484 1171.2406694557387 262.71032988117963 1167.9983598854262 264.6716946272734C1168.5801469948012 267.2385891585234 1171.0032426979262 270.6248196272734 1176.1222612526137 272.1891506819609C1181.2417680885512 273.75146757649213 1187.6217729713637 268.4281643538359 1190.3339311744887 264.6013821272734L1198.8183061744887 263.59985624836713ZM1189.9662553932387 254.55389677571088L1198.6684038307387 253.06987272785938C1198.6684038307387 253.06987272785938 1194.2739946510512 240.89714323567208 1180.7781450416762 236.5943173079377C1167.2821733619887 232.29135405110176 1151.6681596901137 242.66244780110176 1151.8644487526137 242.61210905598458C1152.0614702369887 242.5617245345002 1156.7855913307387 249.36729704426583 1156.9823686744887 249.31712614582833C1157.1790239479262 249.26678740071114 1166.4008257057387 240.51181303547676 1177.7842485573012 244.0625790266877C1189.1662065651137 247.61529814289864 1189.9662553932387 254.55389677571088 1189.9662553932387 254.55389677571088ZM1180.1140825416762 271.32400785969526L1172.2366411354262 269.6004360823515C1176.9441606666762 261.98340117024213 1178.6073686744887 250.5671414046173 1177.5629350807387 244.83339201496895C1181.4937212135512 246.83909880207833 1183.2355425026137 247.827303758133 1185.3030473854262 249.44699369953926C1185.0219194557387 253.08848845051563 1182.2520219948012 266.499483933914 1180.1140825416762 271.32400785969526ZM1159.7901079323012 299.67151152180463L1155.6913530494887 293.5186184553984C1160.5150835182387 290.2453030257109 1166.5803911354262 282.87747465657026 1168.3169634010512 278.27698027180463L1175.5712358619887 281.0379055647734C1171.8539507057387 287.8140286116484 1164.6195757057387 295.64029203938276 1159.7901079323012 299.67151152180463ZM1137.1914751198012 316.2540920882109L1144.4993364479262 311.98095976399213C1144.4993364479262 311.98095976399213 1148.5744096901137 313.8224514632109 1153.1729204323012 313.47290312336713C1153.1362993385512 309.38553129719526 1153.2716753151137 302.3808010725859 1149.4431841041762 299.4287747053984C1145.6151811744887 296.4746731428984 1135.3925249244887 294.4411038069609 1135.5380327369887 294.581759324539C1135.6829301979262 294.7243069319609 1130.9118120338637 285.64282499836713 1131.0557329323012 285.785616746414C1131.2022173073012 285.92642485188276 1140.9149858619887 285.73071562336713 1146.3349077369887 287.52798735188276C1151.7531206276137 289.3265103011015 1158.6170122291762 296.0035122542265 1160.4717485573012 302.0543850569609C1162.3274614479262 308.10342680500776 1161.9711382057387 312.96570097492963 1160.5542680885512 317.37585722492963C1157.1215288307387 320.0156887678984 1150.4480669166762 322.01416288899213 1146.0392534401137 321.19717680500776C1141.6304399635512 320.3799465803984 1137.1914751198012 316.2540920882109 1137.1914751198012 316.2540920882109ZM1165.2883989479262 280.3531216292265L1159.7114946510512 287.7589749007109C1159.7114946510512 287.7589749007109 1138.0285112526137 283.66736113117963 1131.8331987526137 280.3770168928984C1125.6393510963637 277.0846584944609 1118.9612505104262 271.0596645979765 1117.2433550026137 264.4966457991484C1115.5261919166762 257.93171965168744 1116.4535600807387 248.84361540364083 1122.9997026588637 242.04823576496895C1123.4680864479262 246.7861660628205 1123.9820024635512 250.65439116047668 1125.5412065651137 255.1158627180937C1124.3498003151137 260.70169340657026 1125.1662065651137 265.6373013167265 1130.8451616432387 270.19998442219526C1136.5241167213637 274.76480375813276 1165.2883989479262 280.3531216292265 1165.2883989479262 280.3531216292265ZM1185.4964067604262 237.25953947590645C1186.5983354713637 228.26854216145333 1176.9236528541762 212.7182644514924 1169.4114458229262 208.90272795246895L1167.3402788307387 217.5662869124299C1173.4363481666762 221.0251797346955 1176.7504350807387 229.61444365071114 1177.7411577369887 234.6470059065705L1185.4964067604262 237.25953947590645ZM1128.6305620338637 321.04614531086713L1123.1204301979262 315.29956327961713L1147.9841997291762 299.166720262039L1152.4500200416762 306.21191679524213L1128.6305620338637 321.04614531086713ZM1132.5169145729262 308.23453032063276L1139.6279985573012 304.3485745100859C1139.6279985573012 304.3485745100859 1133.7697221901137 291.89563261555463 1131.1258012916762 287.20239531086713C1128.4813921119887 282.5089749007109 1125.8609087135512 280.34475981282026 1120.6463091041762 278.9375637678984C1115.4312212135512 277.53015409992963 1115.7164995338637 278.3218411116484 1112.1391069557387 279.4030178694609L1114.4085161354262 287.014620652664C1114.5542680885512 287.15503202961713 1118.3101274635512 286.118868699539 1121.3283159401137 287.89578520344526C1124.3450395729262 289.674532762039 1132.5169145729262 308.23453032063276 1132.5169145729262 308.23453032063276ZM1133.3678667213637 246.14120756672676L1133.8781206276137 238.15727507160958C1143.6194536354262 235.41075407551583 1149.9954301979262 240.370760789383 1153.3941118385512 245.65353666828926C1159.3375932838637 253.72043119953904 1157.9165727760512 263.6490200667265 1154.1590044166762 266.88318144367963C1150.4018022682387 270.1168850569609 1141.6616899635512 269.181612840164 1132.6046831276137 264.0428188948515L1141.0513384010512 260.3389309553984C1143.2622759010512 260.92251860188276 1146.3745805885512 263.13528715657026 1148.7227251198012 261.11548124836713C1151.0714800026137 259.0938900618437 1149.0363237526137 253.4664181380156 1146.6134721901137 250.08006559895333C1144.1920854713637 246.69191252278145 1136.7620317604262 244.71237455891426 1133.3678667213637 246.14120756672676ZM1171.6858598854262 325.11734282063276L1178.1416704323012 331.01172148274213C1169.4058305885512 338.52688871907026 1157.4193803932387 340.5647915511015 1144.7951128151137 338.5093716292265C1132.1726762916762 336.45215117024213 1125.9227983619887 331.3389614729765 1121.2800981666762 326.82120024250776C1116.6371538307387 322.30591093586713 1110.8964311744887 307.074435105789 1111.0424272682387 307.2152737288359L1118.8085405494887 303.19571196125776C1118.9546587135512 303.33618437336713 1120.7717973854262 314.94558989094526 1126.2189409401137 319.85818754719526C1131.6655962135512 324.7708462386015 1135.1052934791762 328.88675200032026 1145.3212358619887 330.3387173323515C1155.5396196510512 331.78906523274213 1164.9387895729262 331.28665434407026 1171.6858598854262 325.11734282063276ZM1126.6139604713637 297.089083543289L1122.4893266823012 289.79764067219526L1095.8179399635512 305.1368130354765L1099.0939409401137 313.53518950032026L1126.6139604713637 297.089083543289ZM1119.8795854713637 326.81006132649213L1115.5559770729262 319.51574980305463C1115.5559770729262 319.51574980305463 1109.4186479713637 320.6863430647734 1103.3987505104262 318.68652617024213C1097.3782426979262 316.68887602375776 1097.3439409401137 312.7949856428984 1095.9202348854262 310.25259672688276C1094.4962846901137 307.7102688460234 1095.3391801979262 290.3958157210234 1095.4854204323012 290.5364407210234C1095.6300737526137 290.6790188460234 1085.7472612526137 291.6753567366484 1085.8930132057387 291.8160122542265C1086.0377885963637 291.95874296711713 1085.2688676979262 305.10058867024213 1086.3126909401137 309.97607695149213C1087.3574907448012 314.84985624836713 1088.4036333229262 319.9205959944609 1095.8462602760512 324.26541410969526C1103.2891313698012 328.6124905257109 1114.6967241432387 328.90494047688276 1119.8795854713637 326.81006132649213ZM1148.1500932838637 254.97510038899213L1143.6525346901137 248.40007292317208C1141.2062456276137 250.588305345047 1131.5012895729262 256.03877531574994 1125.7894975807387 255.7684048323515L1127.2949907448012 264.38443266438276C1132.8540727760512 264.40884672688276 1142.1638872291762 259.6302212386015 1148.1500932838637 254.97510038899213ZM1108.1612016823012 297.30383574055463L1115.8771440651137 293.81167875813276C1112.7143022682387 285.0558499007109 1109.1060259010512 273.7598293928984 1105.7415239479262 268.19531523274213C1102.3759233619887 262.6328762678984 1094.4184038307387 259.0416897444609 1088.4341509010512 254.788302293289L1084.6747514869887 261.14358793782026C1089.9335405494887 264.88098417805463 1096.8820268776137 267.541720262039 1099.8057329323012 273.0066555647734C1102.7289507057387 278.47171293782026 1105.5914995338637 288.98733793782026 1108.1612016823012 297.30383574055463ZM1156.6776811744887 213.97494780110176L1158.4743120338637 205.6675594954377C1158.4743120338637 205.6675594954377 1149.5770952369887 202.34393583821114 1139.8563921119887 209.7991512923127C1130.1361772682387 217.25255095051583 1129.7937700416762 223.76457487629708 1129.9895708229262 223.71620451496895C1130.1864702369887 223.6658047346955 1139.0562212135512 224.996493211258 1139.2526323463637 224.94609343098458C1139.4483110573012 224.8977841048127 1142.0344926979262 219.5310085921174 1146.3141557838637 216.5935085921174C1150.5951616432387 213.6560085921174 1156.6776811744887 213.97494780110176 1156.6776811744887 213.97494780110176ZM1134.5082475807387 234.71364103840645L1126.8806841041762 233.3559597639924C1123.8125688698012 241.08183561848458 1123.1915971901137 246.617586961258 1126.2815630104262 254.92967497395307L1134.9555132057387 252.02434050129696C1131.3300249244887 245.8462246565705 1131.9832231666762 241.87401091145333 1134.5082475807387 234.71364103840645ZM1086.5559770729262 314.64761625813276L1085.2194292213637 305.8248928694609C1085.2194292213637 305.8248928694609 1075.4330522682387 301.511690965164 1074.1821977760512 296.0516995100859C1072.9321977760512 290.591769090164 1075.2470171119887 281.0746487288359 1081.0180132057387 277.620821824539C1083.2315141823012 279.00232206867963 1085.6625444557387 282.33316313313276 1085.8078081276137 282.4738186507109C1085.9536821510512 282.614718308914 1094.6577837135512 281.43777739094526 1094.8039018776137 281.57840239094526C1093.1008989479262 276.44812284992963 1088.7664262916762 271.655245652664 1078.9380571510512 268.844454637039C1071.5752641823012 273.2568997053984 1064.8380815651137 280.5956448225859 1064.1183550026137 289.542452683914C1063.3994829323012 298.48941313313276 1071.3042680885512 309.6500881819609 1086.5559770729262 314.64761625813276ZM1104.4304887916762 288.77981840657026L1101.7002641823012 280.72192656086713L1077.5259477760512 284.598849168289L1075.2034380104262 293.3381985335234L1104.4304887916762 288.77981840657026ZM1065.8269731666762 283.102022996414L1063.7543413307387 291.43335234211713C1052.6267778541762 287.9085415511015 1044.7995073463637 278.93432890461713 1040.3347856666762 267.3814419417265C1035.8689653541762 255.82829557942182 1037.3429643776137 248.05865751789864 1039.0842973854262 241.92936979817208C1040.8229448463637 235.7984646468049 1051.6505815651137 223.39531218098458 1051.5946733619887 223.58616911457833L1059.0956499244887 228.05125700520333C1059.0416948463637 228.24400602864083 1049.5114214088637 235.5661648421174 1047.8172075416762 242.56474577473458C1046.1236040260512 249.56315886067208 1044.1404497291762 254.489474168289 1047.9458696510512 263.73364531086713C1051.7514116432387 272.97839628742963 1056.9036333229262 280.56289946125776 1065.8269731666762 283.102022996414ZM1056.5446245338637 249.909823289383L1064.0432817604262 253.86641203449997C1064.0432817604262 253.86641203449997 1064.4245073463637 258.1846340803984 1067.0390092994887 261.8431118636015C1070.6964800026137 259.7680081038359 1077.0654985573012 256.37898527668744 1077.8060991432387 251.71057402180477C1078.5462114479262 247.04054533528145 1075.2630083229262 237.49945341633614 1075.2090532448012 237.69212614582833C1075.1550981666762 237.88466154621895 1080.9335405494887 229.36300932453926 1080.8797075416762 229.55560576008614C1080.8253862526137 229.74811064289864 1085.8602983619887 237.74913298176583 1086.9530717994887 243.16667448567208C1088.0454790260512 248.58407866047676 1085.4735796119887 257.6458004622343 1080.9601518776137 262.21802031086713C1076.4477007057387 266.790255418289 1071.8965532448012 268.92566191242963 1067.2218706276137 269.95047270344526C1063.1299516823012 268.40835844563276 1057.9960405494887 263.84414946125776 1056.5250932838637 259.75940214680463C1055.0545122291762 255.67459379719526 1056.5446245338637 249.909823289383 1056.5446245338637 249.909823289383ZM1047.9541704323012 245.16989409016426L1050.3660356666762 237.70135771321114L1077.3124467994887 250.36329924153137L1073.2085649635512 257.60864531086713L1047.9541704323012 245.16989409016426ZM1068.4899370338637 231.50425993489083L1072.9861528541762 224.42042814778145L1045.8500444557387 209.85418974446114L1039.9362260963637 216.78599821614083L1068.4899370338637 231.50425993489083ZM1061.4202348854262 242.00200163410958L1068.4717485573012 245.9877957014924C1068.4717485573012 245.9877957014924 1076.7403032448012 234.87452971028145 1079.6394731666762 230.32206999348458C1082.5380327369887 225.76947294758614 1083.1740190651137 222.50355803059395 1081.8308794166762 217.45042692707833C1080.4888384010512 212.399081101883 1076.0866167213637 208.8592098860627 1076.0327837135512 209.05173002766426C1075.9779741432387 209.2424343733674 1070.3782426979262 214.55885588215645 1070.3235551979262 214.74956022785958C1070.2696001198012 214.94232451008614 1074.2044145729262 219.09453093098458 1074.1146928932387 222.49974333332833C1074.0254594948012 225.90507780598458 1061.4202348854262 242.00200163410958 1061.4202348854262 242.00200163410958ZM1038.3939897682387 240.7556942610627L1042.7896196510512 233.50168119953926C1042.7896196510512 233.50168119953926 1038.6696245338637 228.97096525715645 1037.4553911354262 222.9511746077424C1036.2421342994887 216.93319975422676 1039.7256548073012 214.95675932453926 1041.3004839088637 212.49821745442208C1042.8750688698012 210.03990446614083 1058.8681108619887 202.08153044270333 1058.8140337135512 202.27398954914864C1058.7598344948012 202.4667538313752 1052.9201128151137 194.72409330891426 1052.8659135963637 194.9167812971955C1052.8103716041762 195.1074246077424 1040.6062700416762 201.0393398909455 1036.7444536354262 204.348543992508C1032.8833696510512 207.65770231770333 1028.8472368385512 211.06569181965645 1028.6610796119887 219.4451473860627C1028.4744341041762 227.82452665852364 1033.9157182838637 237.48129545735176 1038.3939897682387 240.7556942610627ZM1057.9412309791762 215.12924467610176L1064.9404985573012 219.81788908528145L1085.6561967994887 199.343417039383L1081.5480425026137 191.1646755843049L1057.9412309791762 215.12924467610176ZM1064.6499712135512 207.9704617171174L1070.5308305885512 201.6634091048127L1054.9527055885512 183.44745146321114L1045.9330522682387 185.88197599934395L1064.6499712135512 207.9704617171174ZM1114.2116167213637 263.47571074055463L1114.6239702369887 254.2966488509062C1111.2997514869887 254.17109953449994 1103.8837358619887 253.0130642561797 1099.8591997291762 242.999422898758C1095.8341753151137 232.98370634602364 1105.1684038307387 221.20338713215645 1105.1142046119887 221.39576994465645C1105.0595171119887 221.5866726546174 1099.0392534401137 215.51378141926583 1098.9854204323012 215.7063778548127C1098.9297563698012 215.89691435383614 1087.1210405494887 227.64157377766426 1092.1109087135512 244.04103361653145C1097.0993120338637 260.43826567219526 1114.2116167213637 263.47571074055463 1114.2116167213637 263.47571074055463ZM1032.6633989479262 206.88885771321114L1039.9310991432387 201.36007963703926C1039.9310991432387 201.36007963703926 1038.9144975807387 191.04478727864083 1043.2000200416762 187.27061735676583C1047.4849321510512 183.4966610579377 1057.2030717994887 180.66832243489083 1063.1950151588637 183.75270353840645C1063.0586626198012 186.2883633284455 1061.2800981666762 189.9805477766877 1061.2263872291762 190.1732968001252C1061.1712114479262 190.3638943343049 1066.5851518776137 197.0340603499299 1066.5303423073012 197.22465788410958C1070.2924272682387 193.2400692610627 1072.4368364479262 187.2294949202424 1070.0473100807387 177.62860380696114C1062.3954546119887 173.69630705403145 1052.4281694557387 171.7497585921174 1044.0217973854262 175.62521635578926C1035.6151811744887 179.49919401692208 1029.5298540260512 191.6723660139924 1032.6633989479262 206.88885771321114ZM1091.0149614479262 228.33998381184395C1087.4541704323012 225.44139372395333 1084.8466264869887 220.21176420735176 1084.7840044166762 212.19841276692208C1084.7196733619887 204.18536650227364 1086.8695757057387 200.7294949202424 1091.1776811744887 197.38946806477364C1095.4865190651137 194.05079924153145 1105.3476030494887 192.25697599934395 1109.7044145729262 194.9292019514924C1116.5537798073012 200.6570156721955 1113.6779253151137 210.78412138508614 1111.9979936744887 214.64503752278145L1105.3987505104262 208.55082975910958C1105.8065874244887 206.08265959309395 1105.5873491432387 205.31415068196114 1105.4806596901137 201.5739315657502C1102.9271928932387 200.78581511067208 1098.7317583229262 201.15501677082833 1094.7935259010512 204.72935759114083C1090.8568803932387 208.30548368977364 1092.3585893776137 216.3964871077424 1094.3748247291762 220.61859404133614L1091.0149614479262 228.33998381184395ZM1103.4127885963637 225.32928740071114L1100.3685991432387 233.4777401595002C1100.3685991432387 233.4777401595002 1113.2930376198012 235.82384001301583 1123.8328325416762 226.4893368391877C1134.3731157448012 217.15463530110176 1133.0404741432387 198.6801327376252 1132.9871294166762 198.87250029133614C1132.9326860573012 199.06523405598458 1124.5735551979262 199.6833523421174 1124.5193559791762 199.87584196614083C1124.4651567604262 200.06845366047676 1127.5695268776137 212.29416166828926 1118.7492143776137 220.20680510090645C1109.9270708229262 228.117342820633 1103.4127885963637 225.32928740071114 1103.4127885963637 225.32928740071114ZM1093.5600053932387 208.55922209309395L1099.0170366432387 202.71684538410958C1103.3764116432387 210.53166472004708 1112.6055376198012 217.6550625471955 1118.1798784401137 219.6335476546174C1114.4469682838637 221.97609221028145 1112.7050249244887 222.96425138996895 1110.2442094948012 223.91391264485176C1107.1757280494887 221.8535946516877 1096.7421342994887 212.7907284407502 1093.5600053932387 208.55922209309395ZM1078.7412798073012 177.08819853352364L1086.2128374244887 176.67644011067208C1086.6853716041762 182.41835295246895 1090.1458208229262 191.26422392414864 1093.3318559791762 195.041903367508L1087.2715532448012 199.8357266096955C1083.1587602760512 193.2840145735627 1079.8787309791762 183.2138699202424 1078.7412798073012 177.08819853352364ZM1075.4276811744887 149.56334196614083L1075.5388872291762 157.9198025374299C1075.5388872291762 157.9198025374299 1071.8790971901137 160.4668301253205 1069.8876421119887 164.55565153645333C1073.5076372291762 166.5675076155549 1079.6127397682387 170.185702195633 1084.1288530494887 168.403475633133C1088.6455766823012 166.62291227864083 1095.5493852760512 158.93881498860176 1095.3530962135512 158.9926327376252C1095.1546098854262 159.04448210285958 1105.5434038307387 159.52427946614083 1105.3450395729262 159.5761746077424C1105.1485063698012 159.6299160628205 1100.4634477760512 167.99469267414864 1096.1706010963637 171.7085751204377C1091.8756792213637 175.42084013508614 1082.5603716041762 177.92338835285958 1076.3006059791762 176.4766415266877C1070.0421831276137 175.03158842610176 1065.9354936744887 172.29747282551583 1062.7575151588637 168.8865078596955C1062.1480180885512 164.6447323470002 1063.7229692604262 157.96596037434395 1066.6478960182387 154.6221951155549C1069.5724565651137 151.27833830403145 1075.4276811744887 149.56334196614083 1075.4276811744887 149.56334196614083ZM1093.0165483619887 191.42673002766426L1089.2783891823012 182.9773281721955C1089.2783891823012 182.9773281721955 1103.7258989479262 166.56910978840645 1109.7227251198012 162.94175993489083C1115.7207719948012 159.31642424153145 1124.3690874244887 156.6453426985627 1131.0119096901137 158.4648007063752C1137.6553423073012 160.28607451008614 1145.2007524635512 165.6189297346955 1147.9160844948012 174.588534226883C1143.5069048073012 172.6176327376252 1139.8405229713637 171.12108122395333 1135.1292192604262 170.21739470051583C1130.8028032448012 166.4104031233674 1126.0456010963637 164.63701139973458 1119.1850053932387 167.18951689289864C1112.3230669166762 169.7400692610627 1093.0165483619887 191.42673002766426 1093.0165483619887 191.42673002766426ZM1120.8870317604262 230.1719998030549C1128.2599565651137 235.60553251789864 1146.8012163307387 235.146395555008 1153.9196245338637 230.66081511067208L1147.3198930885512 224.56650053547676C1141.2239458229262 228.02537809895333 1131.9976274635512 226.5513943343049 1127.0670854713637 224.87872587727364L1120.8870317604262 230.1719998030549ZM1075.4849321510512 139.8817928938752L1083.3040239479262 138.0651425032502L1085.0886919166762 167.29283415364083L1076.6481401588637 167.57091032551583L1075.4849321510512 139.8817928938752ZM1084.8321001198012 149.59450041340645L1084.7006303932387 157.59039579914864C1084.7006303932387 157.59039579914864 1098.6039507057387 158.8303249983674 1104.0620805885512 158.9268826155549C1109.5199663307387 159.0230740218049 1112.7374956276137 157.87514006184395 1116.5845415260512 154.1404598860627C1120.4325639869887 150.40565763996895 1119.5914995338637 150.2527645735627 1120.4285356666762 146.66762053059395L1112.5861284401137 144.79315458821114C1112.3891069557387 144.8468807845002 1111.4243852760512 148.5616482405549 1108.3494341041762 150.2415798811799C1105.2737505104262 151.9197109846955 1084.8321001198012 149.59450041340645 1084.8321001198012 149.59450041340645ZM1139.1248247291762 181.36598478840645L1145.9052202369887 185.7924374251252C1143.4549028541762 195.45651518391426 1135.8964311744887 198.40236174153145 1129.5424272682387 198.65353666828926C1119.4611284401137 199.6785458235627 1111.4220659401137 193.50511442707833 1110.4514848854262 188.689852586258C1109.4801714088637 183.87477385090645 1114.6747514869887 176.90439116047676 1123.7317583229262 171.76544462727364L1122.7722856666762 180.8056973128205C1121.1520464088637 182.3965176253205 1117.6458208229262 183.9387234358674 1118.2521440651137 186.94696318196114C1118.8590776588637 189.9568203596955 1124.8353960182387 191.0384091048127 1129.0313188698012 190.66948210285958C1133.2278520729262 190.302401414383 1138.6869585182387 184.96884428547676 1139.1248247291762 181.36598478840645ZM1050.3703081276137 174.48910795735176L1041.9477007057387 177.0364559798127C1039.6930620338637 165.84437834309395 1043.8899614479262 154.6239040999299 1052.0138628151137 144.9075039534455C1060.1382524635512 135.19305693196114 1067.7692339088637 132.43034636067208 1074.0709917213637 130.73842131184395C1080.3717729713637 129.04381071614083 1096.6640092994887 131.774081101883 1096.4674760963637 131.8277157454377L1096.1264116432387 140.44743620442208C1095.9295122291762 140.50163542317208 1084.7904741432387 136.24354826496895 1077.7379839088637 138.4228085188752C1070.6846391823012 140.60223661946114 1065.3388139869887 141.471590867508 1058.9507524635512 149.44035612629708C1052.5637895729262 157.41151701496895 1048.3063432838637 165.6626766829377 1050.3703081276137 174.48910795735176ZM1097.6055376198012 150.14323698567208L1106.0928423073012 150.27911650227364L1105.9119341041762 119.90967833088692L1096.8726274635512 118.49937712239083L1097.6055376198012 150.14323698567208ZM1074.7814409401137 129.55125700520333L1083.3712846901137 129.5190991072541C1083.3712846901137 129.5190991072541 1085.4082719948012 123.71094786213692 1090.1801225807387 119.58747374104317C1094.9511186744887 115.46178709553536 1098.4002153541762 117.37927519367989 1101.3519975807387 117.43891417073067C1104.3042680885512 117.49833189534004 1119.1411821510512 126.8735150008088 1118.9440385963637 126.92704283284004C1118.7460405494887 126.97896849201973 1122.8095171119887 118.06965147541817 1122.6123735573012 118.12330900715645C1122.4138872291762 118.17529570149239 1111.2177202369887 110.94980131672676 1106.3993608619887 109.40040861653145C1101.5816118385512 107.85330473469551 1096.5900346901137 106.20785795735176 1089.0396196510512 110.37012754963692C1081.4879839088637 114.5303524641877 1075.5268022682387 124.0932186751252 1074.7814409401137 129.55125700520333ZM1123.9497759010512 189.529696336258L1131.9922563698012 188.98948942707833C1131.2871782448012 185.8130215315705 1131.3360063698012 174.8284023909455 1134.4304887916762 170.10235868977364L1126.0846635963637 167.0757168440705C1123.2842485573012 171.7947567610627 1122.8399126198012 182.10747038410958 1123.9497759010512 189.529696336258ZM1106.6420366432387 134.3313015608674L1105.8618852760512 142.64450346516426C1115.1588823463637 144.33046232746895 1126.9176714088637 146.9080837874299 1133.5033647682387 146.826815476883C1140.0879594948012 146.74347197102364 1147.2317583229262 141.76640593098458 1153.9716264869887 138.80014311360176L1150.2511675026137 132.42265593098458C1144.3285600807387 135.0298184065705 1138.5091020729262 139.61317717121895 1132.2313921119887 139.3689755110627C1125.9536821510512 139.124667039383 1115.2558061744887 136.30302702473458 1106.6420366432387 134.3313015608674ZM1155.8161089088637 217.28741728352364L1162.2379839088637 222.97011076496895C1162.2379839088637 222.97011076496895 1169.6159135963637 217.05990873860176 1167.9068071510512 205.05890165852364C1166.1985551979262 193.0596493391877 1160.6311723854262 189.5120419173127 1160.5762407448012 189.70277678059395C1160.5214311744887 189.8955105452424 1154.9147417213637 196.778963914383 1154.8609087135512 196.9717129378205C1154.8050005104262 197.16227995442208 1158.2417680885512 202.0469998030549 1158.6904985573012 207.1584805159455C1159.1386186744887 212.27011381672676 1155.8161089088637 217.28741728352364 1155.8161089088637 217.28741728352364ZM1148.6251909401137 188.0501278548127L1153.6349565651137 182.2371395735627C1148.3616411354262 175.76311003254708 1143.7931596901137 172.4670742659455 1134.9235307838637 170.9406765608674L1133.1470415260512 179.7757595686799C1140.4041216041762 179.77910124348458 1143.5775835182387 182.32115446614083 1148.6251909401137 188.0501278548127ZM1102.1609575416762 107.27194487141426L1110.6046831276137 110.54528318928536C1110.6046831276137 110.54528318928536 1119.2985307838637 104.37275206135567 1124.7359087135512 106.03857695149239C1130.1718217994887 107.70456205891426 1137.4009477760512 114.4335507063752 1137.5590288307387 121.0722454695588C1135.2351762916762 122.26527678059395 1131.0845415260512 122.66837584065254 1130.8873979713637 122.72201811360176C1130.6903764869887 122.77568327473458 1127.3758012916762 130.7721737532502 1127.1789018776137 130.82596861409004C1132.5512163307387 131.94183622883614 1138.9419634010512 130.6495922713166 1146.3335649635512 123.68985258625801C1146.1262895729262 115.2173870711213 1143.0272905494887 105.81397520588692 1135.5027544166762 100.7283505110627C1127.9791948463637 95.64271055744942 1114.1907426979262 96.79007231282051 1102.1609575416762 107.27194487141426ZM1116.0191118385512 135.41838347004708L1124.4855425026137 137.1237820296174L1133.1557085182387 114.61085783528145L1126.6156694557387 108.26469694660958L1116.0191118385512 135.41838347004708Z" name="undefined" id="me62vE63QHmiGumSK" type="complex_path" stroke="#2d3935" stroke-width="2" stroke-opacity="1" fill="#bec8c2" fill-opacity="1" stroke-linejoin="round" stroke-linecap="round" opacity="0.8364941055868785"/><text xml:space="preserve" id="4tzqzqbZw8nu7wYMd" x="732.5150636764728" y="449.89212542906506" stroke="#7f7f7f" stroke-width="0" stroke-opacity="1" fill="#000000" fill-opacity="1" stroke-linejoin="round" stroke-linecap="round" opacity="1" font-size="74" font-family="Sans-serif" font-weight="bold" text-anchor="middle"><tspan dy="93.98" x="732.5150636764728">(demo created with our vectorial editor)</tspan></text><path d="M-3.406700372695923,733.6544799804688 1448.4989013671875,733.6544799804688 1448.4989013671875,1027.059326171875 -3.406700372695923,1027.059326171875 -3.406700372695923,733.6544799804688Z" id="JNirGqtPmKTghExrn" type="simple_path" name="http://lore-mbp.local:3000/icons/black_kitty_1024x1024.jpg" stroke="#000000" stroke-width="0" stroke-opacity="1" fill="#bec8c2" fill-opacity="1" stroke-linejoin="miter" stroke-linecap="butt" opacity="1"/><path d="M155.19255419777073,572.9329639355667 301.8174702744309,772.9748721997269 541.1314046006028,554.1561008374222 1340.716914854509,561.5196796338089 738.1367756943528,745.9753604809769" id="DZNo4NeJyD6XHHDa2" type="simple_path" name="http://lore-mbp.local:3000/icons/black_kitty_1024x1024.jpg" stroke="#000000" stroke-width="2" stroke-opacity="0.01588484125483893" fill="#000000" fill-opacity="0" stroke-linejoin="miter" stroke-linecap="butt" opacity="1"/><path d="M273.0797992147202 751.1793579372815C302.82656435143895 732.3048462185315 389.8339801229233 711.1163696560315 439.8169818319077 647.9821533474377C490.48366884362645 589.5088867458752 606.008204976439 549.5265869411877 716.6066546834702 547.0834717068127C922.6010394490952 546.6495727810315 1062.7519793905012 721.0543579372815 1190.9508319295637 752.912634304469" name="http://lore-mbp.local:3000/icons/black_kitty_1024x1024.jpg" id="GKSsxHEmKaBTu2ow4" type="complex_path" stroke="#568756" stroke-width="21" stroke-opacity="0.5718542851742016" fill="#bec8c2" fill-opacity="1" stroke-linejoin="miter" stroke-linecap="round" opacity="1"/><path d="M-38.88151617106132 763.4211339245426C-9.134748173319622 742.2380284557926 56.392760562337116 619.5717686901676 130.21689538899727 610.5020055065738C202.09213952962227 599.5889195690738 294.04686670247384 537.1059483776676 404.6453164095051 534.3640050182926C610.6397011751301 533.8773106823551 750.7906411165363 729.6116856823551 878.9895546907551 765.3664464245426" name="http://lore-mbp.local:3000/icons/black_kitty_1024x1024.jpg" id="jJWruDxt4E84GFvj5" type="complex_path" stroke="#568756" stroke-width="21" stroke-opacity="0.5718542851742016" fill="#bec8c2" fill-opacity="1" stroke-linejoin="miter" stroke-linecap="round" opacity="1"/><path d="M600.434814453125 782.1821899414062C630.1815795898438 759.7138671875 860.997314453125 665.208740234375 934.8214111328125 655.5891723632812C1006.6966552734375 644.0132446289062 970.356201171875 537.4507446289062 1080.95458984375 534.5423583984375C1286.948974609375 534.0258178710938 1390.10693359375 746.32177734375 1518.3057861328125 784.2457275390625" name="http://lore-mbp.local:3000/icons/black_kitty_1024x1024.jpg" id="W9TF6xpQrQ5rKg39T" type="complex_path" stroke="#568756" stroke-width="21" stroke-opacity="0.5718542851742016" fill="#bec8c2" fill-opacity="1" stroke-linejoin="miter" stroke-linecap="round" opacity="1"/><path d="M1154.255447776126 35.903601411192284L1149.445145041751 33.98999667486416C1150.9225620339384 34.881705048887596 1155.665848166751 34.90938449224697 1154.255447776126 35.903601411192284ZM1154.059646994876 36.36756015142666L1134.703934104251 37.26788974127041L1115.799393088626 40.41872287115322L1097.344559104251 45.369848969786034L1079.339920432376 52.57179904302822L1062.2348178933134 61.574393037168846L1046.4816440651884 71.92693209966885L1031.627273948001 84.53035617193447L1018.1234897683134 98.03361392339932L1006.420486838626 113.33770633062588L996.0680088112822 129.54231143316494L987.965652854251 147.09678531011807L981.2141269753447 165.10130191168057L977.1629795144072 184.00633120855557L974.4622959206572 202.91160464605557L974.0121006081572 222.26646304449307L975.8125156472197 241.17158389410244L979.4135898659697 260.07646060308684L984.814773948001 278.53056216558684L992.4668125222197 296.08564639410247L1001.919510276126 312.7405841382431L1013.172195823001 328.49458194097747L1025.7758335183134 342.8977191480087L1040.1796421120634 355.9511554273056L1055.933914573001 367.20503115972747L1072.137771994876 377.10652041753997L1090.142410666751 384.7587726148056L1108.1471714089384 390.6104571851181L1127.0517124245634 394.6617267163681L1146.4071811745634 396.4620196851181L1165.3122715065947 396.01188540777434L1184.6681064675322 393.7611224683212L1203.1222080300322 389.7102191480087L1221.5781406472197 383.4091632398056L1238.6820224831572 375.3067767651962L1255.3365634987822 365.40421939214934L1270.6403965065947 353.70085025152434L1284.5937656472197 340.1969134839462L1297.1975254128447 325.79362368902434L1307.9992832253447 310.03922915777434L1317.0016025612822 292.9350421460556L1324.2044834206572 275.38007998785247L1329.6052402565947 256.9259173901962L1332.7561191628447 237.57002139410244L1334.1071933815947 218.665129426329L1333.2065586159697 199.31062198003994L1330.5057529519072 180.40556216558682L1325.5544590065947 161.95078921636807L1318.8022617409697 143.94602847418057L1310.2508701394072 126.39105105718838L1299.4478916237822 110.63728213628994L1287.7445224831572 95.78327823003994L1273.7906650612822 81.82961154302822L1258.9367832253447 70.12654757818447L1242.7329258034697 59.77370333990322L1225.6284336159697 51.221609834043846L1207.6240390847197 44.46985507330166L1188.7190097878447 39.51850009283291L1169.8139804909697 36.817740205137596ZM1154.059646994876 81.37946200689541L1173.4139560769072 82.72969699224697L1191.8698886940947 86.78089022955166L1209.8742832253447 93.53257632574307L1226.9785312722197 102.53529239019619L1242.2819980690947 114.23811221441494L1255.7862705300322 127.74149966558682L1267.4896396706572 143.04569888433682L1276.9412998269072 160.14997744878994L1283.6934970925322 178.15464663824307L1287.7445224831572 196.60948062261807L1289.0944980690947 215.96511721929775L1287.7445224831572 234.87016177496182L1283.6934970925322 253.7751605542588L1277.3921054909697 271.77973819097747L1267.9391025612822 288.88419986089934L1256.6866611550322 304.1876056226181L1243.1825107644072 318.1412494214462L1227.8789218972197 329.3951556714462L1211.2241367409697 338.84696841558684L1193.2194980690947 345.5991046460556L1174.3143467019072 350.09968448003997L1154.959793479251 351.4506976636337L1136.0546421120634 350.09968448003997L1117.149490744876 346.49919009527434L1099.1447300026884 339.7470843823837L1082.040359885501 330.7450091870712L1066.7362827370634 319.49250674566497L1052.782547385501 305.9882953198837L1041.079910666751 290.68461489996184L1031.627273948001 274.02998233160247L1024.8751987526884 256.0254962476181L1020.8244175026884 237.12058902105557L1019.023758323001 218.21560550054775L1020.374100119876 198.86002993902432L1023.975174338626 179.95536685308682L1030.2768100808134 161.95078921636807L1039.279129416751 144.845793488829L1050.9823764870634 129.54231143316494L1064.035965354251 115.58851504644619L1079.339920432376 103.88520694097744L1095.993973166751 94.43273806890713L1113.9987339089384 87.23114657720791L1132.903885276126 83.17989230474697L1151.8092807839384 81.37946200689541ZM1116.1991733620634 28.784048798887596L1116.1991733620634 28.784048798887596L1118.049637229251 26.46504855474697L1119.850418479251 24.66451144537197L1122.1007846901884 22.86408114752041L1124.3515171120634 21.063643220274315L1126.6017612526884 19.263125184385643L1128.852859885501 17.912737611143456L1131.553055198001 16.562380555479393L1133.803787619876 15.212153199522362L1136.5045932839384 14.311854127256737L1139.2055210183134 13.41160846075283L1141.906326682376 12.511408570616112L1144.6068882058134 12.061220887510643L1147.307449729251 11.611086610166893L1150.458084494876 11.161013367979393L1153.1593784401884 11.161013367979393L1155.860184104251 11.161013367979393L1158.560135276126 11.611086610166893L1161.7106479714384 12.061220887510643L1164.4116367409697 12.511408570616112L1167.1130527565947 13.41160846075283L1169.8139804909697 14.311854127256737L1172.5138095925322 15.212153199522362L1174.7652744362822 16.562380555479393L1177.4651035378447 17.912737611143456L1179.7166904519072 19.263125184385643L1181.9669345925322 21.063643220274315L1184.2171787331572 22.86408114752041L1186.0180820534697 24.66451144537197L1188.2680820534697 26.915198090879784L1190.0688633034697 29.16571688970791L1191.8698886940947 31.416357758848534L1193.2194980690947 33.66695285162197L1194.5694736550322 35.91750216802822L1195.9207920144072 38.61823153814541L1197.2704013894072 41.31891513189541L1198.1707920144072 43.569449189512596L1198.6217197487822 46.27020907720791L1199.5205234597197 49.42114901861416L1199.9715732644072 52.12189364752041L1200.4212802956572 54.822363618223534L1200.4212802956572 57.523108247129784L1200.4212802956572 60.223868134825096L1199.9715732644072 63.374808076231346L1199.9715732644072 66.07553744634853L1199.5205234597197 68.77603793462978L1198.6217197487822 71.47662997564541L1197.7212070534697 74.17751193365322L1196.8209384987822 76.8782870801376L1195.4698642800322 79.57906222662197L1194.1198886940947 81.82961154302822L1192.7700351784697 84.53035617193447L1191.4189609597197 86.78089022955166L1189.6192783425322 89.0314853223251L1187.8186191628447 90.83191562017666L1185.5671543190947 93.08265567144619L1183.3169101784697 94.88291812261807L1181.5161289284697 96.68366885503994L1178.8161777565947 98.48380923589932L1176.5648349831572 99.83416629156338L1174.3143467019072 101.18484378179775L1171.6135410378447 102.08509707769619L1168.9135898659697 103.43510318121182L1166.2124179909697 104.33540225347744L1163.5114902565947 104.78550601324307L1160.8114780495634 105.23571658453213L1158.1105503151884 105.68597293218838L1154.959793479251 106.136076691954L1152.2589878151884 106.136076691954L1149.557938010501 105.68597293218838L1146.857742698001 105.68597293218838L1143.7064975808134 105.23571658453213L1141.0060581276884 104.33540225347744L1138.305252463626 103.88520694097744L1135.6046909401884 102.53529239019619L1133.353836448001 101.63494754156338L1130.653396994876 100.28442263921963L1128.402420432376 98.93403506597744L1125.7021030495634 97.58390689214932L1123.4511264870634 95.78327823003994L1123.204666526126 95.43298220953213L1153.0258335183134 58.606116059629784ZM1154.059646994876 24.214468720762596L1150.458084494876 25.56484103521572L1148.2079624245634 28.71559024175869L1148.6576694558134 32.316565278379784L1150.9088901589384 35.46736789068447L1154.959793479251 36.36756015142666L1158.1105503151884 34.567175629942284L1159.910965354251 30.96619296392666L1159.460525901126 27.36524081548916L1156.309891135501 24.66450381597744Z" name="http://lore-mbp.local:3000/icons/black_kitty_1024x1024.jpg" id="Xv943mShYgeqoEJns" type="complex_path" stroke="#2d3935" stroke-width="2" stroke-opacity="0.7942420627419438" fill="#bec8c2" fill-opacity="1" stroke-linejoin="miter" stroke-linecap="butt" opacity="1"/><g id="8m8k3zXyY4pB2qD54" type="simpleGroup"/><g id="EXWzcTXzkLTEmiXhP" type="simpleGroup"/></g></g></svg>