<svg xmlns="http://www.w3.org/2000/svg" xmlns:xlink="http://www.w3.org/1999/xlink" width="72.4" height="51.2" onload="init()" id="uNavXWyQpL27iqmxs"><script type="application/javascript"> <![CDATA[ 
function init(){}
 ]]> </script><g id="viewport" transform="matrix(0.05 0 0 0.05 0 0)"><g id="B25XdrHrTGo2h2kbz" type="layer"><title>B25XdrHrTGo2h2kbz</title><path d="M-3.406700372695923,733.6544799804688 1448.4989013671875,733.6544799804688 1448.4989013671875,1027.059326171875 -3.406700372695923,1027.059326171875 -3.406700372695923,733.6544799804688Z" id="nCArZBoh9KM7oRLH4" type="simple_path" name="http://lore-mbp.local:3000/icons/black_kitty_1024x1024.jpg" stroke="#000000" stroke-width="0" stroke-opacity="1" fill="#bec8c2" fill-opacity="1" stroke-linejoin="miter" stroke-linecap="butt" opacity="1"/><path d="M824.2508544921875,190.41151428222656Z" id="A6YRpheWApYSsQZ4N" type="simple_path" name="http://lore-mbp.local:3000/icons/black_kitty_1024x1024.jpg" stroke="#000000" stroke-width="0" stroke-opacity="1" fill="#000000" fill-opacity="1" stroke-linejoin="miter" stroke-linecap="butt" opacity="1"/><path d="M1175.4912109375,821.0830078125Z" id="94aEd4DQhBrNsLZeH" type="simple_path" name="http://lore-mbp.local:3000/icons/black_kitty_1024x1024.jpg" stroke="#000000" stroke-width="0" stroke-opacity="1" fill="#000000" fill-opacity="1" stroke-linejoin="miter" stroke-linecap="butt" opacity="1"/><path d="M319.5817494608639 492.24102783203125L1127.867851755786 495.0468444824219C1096.890312693286 480.0826416015625 1160.404228708911 488.8161315917969 1102.1758351542235 478.2697448730469C1083.6521535135985 474.91552734375 1074.502617380786 470.5047912597656 1074.502617380786 470.5047912597656L1150.132011912036 468.7601013183594C1150.132011912036 468.7601013183594 1096.057060740161 458.41741943359375 1079.3018117167235 447.44140625C1071.0811085917235 442.0545959472656 1069.0439992167235 431.3974304199219 1069.0439992167235 431.3974304199219C1069.0439992167235 431.3974304199219 1083.5613332010985 429.206298828125 1087.6431203104735 412.8475036621094C1091.6104054667235 396.9467468261719 1079.298271677661 359.0509033203125 1064.6775441385985 355.8991394042969C1029.8777394510985 348.39703369140625 1021.1180958964108 380.2376403808594 1021.1180958964108 380.2376403808594C1021.1180958964108 380.2376403808594 1062.365410349536 303.6038818359375 1018.2996144510983 273.1537780761719C986.8297658182858 251.40863037109375 964.5642628885983 284.75164794921875 964.5642628885983 284.75164794921875C964.5642628885983 284.75164794921875 871.7110524393795 357.1898498535156 830.1697926737545 300.93060302734375C752.7039723612545 196.00193786621094 840.143791697192 67.53939819335938 904.419426462817 127.82682037353516C924.8733449198483 147.00604248046875 923.9874806620358 210.26116943359375 900.017570994067 234.38482666015625C871.6451344706295 262.93463134765625 853.4288869120358 217.10191345214844 861.7781300760983 205.0541229248047C869.8184743143795 193.4523162841797 878.7647633768795 229.9623565673828 892.017326853442 207.77523803710938C903.7733693339108 188.08975219726562 898.436272165942 147.0537872314453 863.1190724589108 146.73887634277344C834.4493336893795 146.4840545654297 814.2383961893795 216.5400848388672 829.3331227518795 256.5561828613281C854.2173390604733 322.5403747558594 926.7175832010983 285.11383056640625 952.4883351542233 248.38479614257812C1006.3794484354733 171.57174682617188 1009.9351124979733 57.411991119384766 914.1121754862545 4.96958065032959C763.9170460917233 -77.22992706298828 725.0721974589108 151.73118591308594 725.0721974589108 151.73118591308594C725.0721974589108 151.73118591308594 684.863274119067 106.51167297363281 652.6619191385983 174.96627807617188C627.0512013651608 229.4166717529297 677.6008839823483 284.2814636230469 677.6008839823483 284.2814636230469C677.6008839823483 284.2814636230469 665.198235056567 255.6914825439453 638.5181203104733 251.47650146484375C620.467522165942 248.6240234375 604.697990915942 279.0542907714844 604.697990915942 279.0542907714844C604.697990915942 279.0542907714844 612.367424509692 253.9027557373047 604.8641286112545 234.8226776123047C595.1223683573483 210.0579833984375 566.1189503885983 191.28875732421875 526.534172556567 207.42059326171875C463.6249013163326 233.0540313720703 453.9839101053951 283.6240234375 460.8521352030514 314.4247741699219C465.5879140116451 335.6598205566406 480.9146352030514 343.50823974609375 480.9146352030514 343.50823974609375C480.9146352030514 343.50823974609375 456.1817250468014 359.09808349609375 452.6253285624264 383.2417907714844C449.7161488749264 402.99517822265625 467.8543324686764 432.1903991699219 467.8543324686764 432.1903991699219C467.8543324686764 432.1903991699219 457.5533681132076 417.4690246582031 448.2206654764889 419.4612121582031C440.6466298319576 421.0750732421875 433.6723866678951 439.48089599609375 433.6723866678951 439.48089599609375C433.6723866678951 439.48089599609375 435.1068959452389 393.67596435546875 401.6810536600826 397.66827392578125C378.1973500468014 400.4769287109375 369.11345722453575 422.951416015625 370.573723337817 437.6649475097656C371.79766132609825 449.98321533203125 382.0101552225826 455.15447998046875 382.0101552225826 455.15447998046875C382.0101552225826 455.15447998046875 360.5069813944576 469.1906433105469 319.06646015422325 474.8874816894531C233.0586323954342 486.6886901855469 343.4106068827389 476.3412780761719 313.2273793436764 486.62921142578125Z" name="undefined" id="Hg92sDFz2YukLsZTR" type="complex_path" stroke="#000000" stroke-width="0" stroke-opacity="1" fill="#000000" fill-opacity="0.1762545899632803" stroke-linejoin="miter" stroke-linecap="butt" opacity="1"/><path d="M576.6471045316005 728.3030959883645C606.3938696683192 707.9924880782082 664.8375342191005 602.1823074141457 738.6616919339442 593.486079386802C810.5369360745692 583.0223342696145 902.4916479886317 523.1118728438332 1013.0900366605067 520.4829665938332C1219.0842993558192 520.0159255782082 1359.2353003323817 707.6922561446145 1487.4342749417567 741.9744216719582" name="http://lore-mbp.local:3000/icons/black_kitty_1024x1024.jpg" id="42xezJytxSEmrebdc" type="complex_path" stroke="#568756" stroke-width="21" stroke-opacity="0.5718542851742016" fill="#bec8c2" fill-opacity="1" stroke-linejoin="miter" stroke-linecap="round" opacity="1"/><path d="M912.3919204564997 50.88433332478833L658.739820392179 50.88433332478833C653.9676293812693 50.88433332478833 650.0711318784934 54.78968674049487 650.0711318784934 59.56250287467253L650.0711318784934 258.5697001060606C650.0711318784934 263.34319345711 653.9676293812693 267.23885746219696 658.739820392179 267.23885746219696L819.686035955136 267.23885746219696L819.686035955136 267.21088319605394L912.3919204564997 267.21088319605394C917.1654659011547 267.21088319605394 921.0711318784934 263.3145940677007 921.0711318784934 258.5230763291552L921.0711318784934 59.56250287467253C921.0518572444646 54.78968674049487 917.1370227925621 50.8843072779855 912.3919204564997 50.8843072779855ZM908.8635163700535 220.32851363286682C908.8635163700535 224.21526963141696 905.6773672716198 227.40318991243797 901.7896214945665 227.40318991243797L668.3234809925359 227.40318991243797C664.4290672339805 227.40318991243797 661.2490651809943 224.21526963141696 661.2490651809943 220.32851363286682L661.2490651809943 69.40118772066188C661.2490651809943 65.5054716219694 664.4290672339805 62.326381207077446 668.3234809925359 62.326381207077446L901.7896214945665 62.326381207077446C905.6773672716198 62.326381207077446 908.8635163700535 65.5054716219694 908.8635163700535 69.40118772066188L908.8635163700535 220.32851363286682ZM832.9854292472482 298.9807415283585C832.6744304225244 298.65098900566295 832.4010431809617 298.4613161881065 832.3434276532973 298.3953656835673L832.2509094099632 298.3577020068046L832.1744359971182 298.32050717249103C832.1744359971182 298.32050717249103 831.739871140195 298.12218681642474 831.0512978629444 297.73570435736025C830.0326595013692 297.20783985302046 828.3827508285718 296.37731150083556 826.8543244437568 295.5004198397721C825.3254813100955 294.5844058809925 823.8363335038129 293.62296629823356 823.1469267288762 292.94314474670546C823.0718077497723 292.81145211204904 822.8181118910815 292.198466656353 822.6008815562249 291.3394951955751C821.8180188530554 288.3217647236611 821.0818320203948 282.3785615551396 820.5253681266455 276.8226222497647L749.7782927693046 276.8226222497647C749.5599163751302 278.99247719886864 749.3243490911435 281.2281263716953 749.0598177625114 283.3408346355862C748.7307945502907 285.906861454374 748.3716612341057 288.28410104689834 747.9954412153218 290.0949789606322C747.8061330530008 291.0003137302881 747.6271394245681 291.7452522886677 747.4383521983066 292.26457344170854C747.3526061236846 292.50029700651055 747.2679019211726 292.73638522655096 747.211745014464 292.84890741438994C747.1846563396118 292.90584572518105 747.1638188974208 292.94314474670546 747.1454819482902 292.9719004169308C746.2596822806901 293.8773914674034 743.9381828460323 295.29225379227 741.9300785419448 296.3676220902156C740.9202960933012 296.9524769989524 739.9586481361205 297.40589974105967 739.2590310145097 297.7452374871633C738.5624353220145 298.093639520621 738.1381849989777 298.3298319278724 738.1381849989777 298.3298319278724L738.070463311853 298.36713094939694L737.995969456013 298.4054197494254C737.9016800300922 298.49007185833193 737.6381905735703 298.6131169544785 737.3347974152466 298.9901183773453C737.043281598977 299.3391976276738 736.703422916817 299.9613515579349 736.703422916817 300.73520206735634C736.7230101124785 300.7544767013847 736.6661238952934 301.08417713047413 736.64757857174 301.56531367069766C736.64757857174 301.9706540149457 736.7125913913826 302.67798099016835 737.287913170316 303.3099285182594C737.8630265748269 303.8953043630505 738.6379710499639 304.06538998494625 739.3343583680357 304.06538998494625L830.9862850433043 304.06538998494625C831.6745457589209 304.06538998494625 832.4299030383963 303.8674342841181 833.0149142279505 303.3099285182594C833.5990919198139 302.71606141577496 833.6547278904687 301.9706540149457 833.6547278904687 301.56531367069766C833.6466012880132 301.08417713047413 833.5798172857874 300.7544767013847 833.5892983219851 300.73520206735634C833.5990919198139 299.9525477386086 833.269026835486 299.3488870382935 832.9854292472482 298.9807415283585Z" name="undefined" id="x9PwXvCRrDxNWd3Zw" type="complex_path" stroke="#000000" stroke-width="0" stroke-opacity="1" fill="#000000" fill-opacity="1" stroke-linejoin="round" stroke-linecap="round" opacity="1"/><path d="M965.4306087960296 328.1959566154972L917.781667061358 328.1959566154972C912.4408514522999 328.1959566154972 908.1061407984095 332.5259666757765 908.1061407984095 337.87148861787665L908.1061407984095 452.5157441075133C908.1061407984095 457.85655971657155 912.4361451192586 462.1912761098927 917.781667061358 462.1912761098927L965.4306087960296 462.1912761098927C970.7714244050877 462.1912761098927 975.106140798409 457.85655971657155 975.106140798409 452.5157441075133L975.106140798409 337.87148861787665C975.1014459442282 332.5259638060616 970.7714244050877 328.1959566154972 965.4306087960296 328.1959566154972ZM936.7707222243095 338.8399830847231L946.4415536330781 338.8399830847231C946.9163996792787 338.8399830847231 947.3019172285727 339.22080004040566 947.3019172285727 339.6862391599529C947.3019172285727 340.15638174282685 946.9163996792787 340.5324923654677 946.4415536330781 340.5324923654677L936.7707222243095 340.5324923654677C936.300582511151 340.5324923654677 935.9197655554686 340.1516782795003 935.9197655554686 339.6862391599529C935.9197655554686 339.21609657707893 936.300582511151 338.8399830847231 936.7707222243095 338.8399830847231ZM930.028882923568 337.87148861787665C930.9644617562741 337.87148861787665 931.7166944804168 338.63312252924203 931.7166944804168 339.5640007683369C931.7166944804168 340.494884746862 930.9597669020928 341.25651291879683 930.028882923568 341.25651291879683C929.0885977578201 341.25651291879683 928.336365033677 340.49958534047335 928.336365033677 339.5640007683369S929.0885977578201 337.87148861787665 930.028882923568 337.87148861787665ZM941.6084939649301 457.3582164417448C937.8661556763838 457.3582164417448 934.8384396236589 454.32108198350625 934.8384396236589 450.59754606940527C934.8384396236589 446.84112321831617 937.870856269995 443.83221527946745 941.6084939649301 443.83221527946745S948.3785425667708 446.8693267799842 948.3785425667708 450.59754606940527S945.3461144415734 457.3582164417448 941.6084939649301 457.3582164417448ZM971.4766397142558 437.99772829204136C971.4766397142558 438.7969669522974 970.8231481531035 439.45048147117194 970.0239209717093 439.45048147117194L913.1836772497896 439.45048147117194C912.3844385895337 439.45048147117194 911.7356361431317 438.7969669522974 911.7356361431317 437.99772829204136L911.7356361431317 351.9005307788766C911.7356361431317 351.10128637919047 912.3844385895337 350.44779481803766 913.1836772497896 350.44779481803766L970.0239209717093 350.44779481803766C970.8231481531035 350.44779481803766 971.4766397142558 351.09659152500933 971.4766397142558 351.9005307788766L971.4766397142558 437.99772829204136Z" name="undefined" id="PjMaMJ9pxdCpFmgqh" type="complex_path" stroke="#000000" stroke-width="0" stroke-opacity="1" fill="#000000" fill-opacity="1" stroke-linejoin="round" stroke-linecap="round" opacity="1"/><path d="M624.6070724083428 268.72629988988604L498.30586391224904 268.72629988988604C492.58928926781743 268.72629988988604 487.95650650289383 273.3656775816928 487.95650650289383 279.07569564183916L487.95650650289383 446.36475814183916C487.95650650289383 452.0813711288685 492.58928926781743 456.70759730950743 498.30586391224904 456.70759730950743L624.6070724083428 456.70759730950743C630.3237237379702 456.70759730950743 634.9498348908143 452.0813711288685 634.9498348908143 446.36475814183916L634.9498348908143 279.08229056872216C634.9565065028938 273.3656775816928 630.330318664853 268.72629988988604 624.6070724083428 268.72629988988604ZM561.4598039663357 452.9934265112302C559.1731280974449 452.9934265112302 557.3226376251891 451.1495693084555 557.3226376251891 448.8628934395655S559.1797230243282 444.71917051413493 561.4598039663357 444.71917051413493C563.746403150029 444.71917051413493 565.6034885491681 446.5762559132735 565.6034885491681 448.8628934395655S563.746403150029 452.9934265112302 561.4598039663357 452.9934265112302ZM619.022549671964 436.84145366717974C619.022549671964 437.99138652850775 618.0841529246687 438.9034035682712 616.9540431865877 438.9034035682712L505.97215967296586 438.9034035682712C504.8287833959225 438.9034035682712 503.9035765023932 437.9649684783774 503.9035765023932 436.84145366717974L503.9035765023932 287.77950376608817C503.9035765023932 286.63620417424096 504.8287833959225 285.7109589381131 505.97215967296586 285.7109589381131L616.9474482597044 285.7109589381131C618.0841529246687 285.7109589381131 619.009359818198 286.63620417424096 619.009359818198 287.77950376608817L619.022549671964 436.84145366717974L619.022549671964 436.84145366717974Z" name="undefined" id="3fSrWtk6QQD8uWytu" type="complex_path" stroke="#000000" stroke-width="0" stroke-opacity="1" fill="#000000" fill-opacity="1" stroke-linejoin="round" stroke-linecap="round" opacity="1"/><path d="M6.8494672775268555 734.7482820347927C36.59623718261719 715.8737703160427 102.12374877929688 606.574514944949 175.94786071777344 598.493460257449C247.82310485839844 588.7695222691677 339.7778625488281 533.095511038699 450.3763122558594 530.652395804324C656.3707275390625 530.2184968785427 796.5216674804688 704.6232820347927 924.7205810546875 736.4815584019802" name="http://lore-mbp.local:3000/icons/black_kitty_1024x1024.jpg" id="sz2oxJZeL3WYKdGYu" type="complex_path" stroke="#568756" stroke-width="21" stroke-opacity="0.5718542851742016" fill="#bec8c2" fill-opacity="1" stroke-linejoin="miter" stroke-linecap="round" opacity="1"/><text xml:space="preserve" id="iwdABEW74Kbp5Hqio" x="722.9871103810184" y="716.8359987576366" stroke="#7f7f7f" stroke-width="0" stroke-opacity="1" fill="#000000" fill-opacity="1" stroke-linejoin="round" stroke-linecap="round" opacity="1" font-size="45" font-family="Sans-serif" font-weight="bold" text-anchor="middle"><tspan dy="57.15" x="722.9871103810184">We build on any device and keep your business up in the cloud.</tspan></text><g id="DDxDeqeqjKes3XdLq" type="simpleGroup"/></g><g id="CCWgD4yjEnwK6us6h" type="layer"><title>CCWgD4yjEnwK6us6h</title><path d="M911.188232421875,347.9814453125 971.5239868164062,347.9814453125 971.5239868164062,439.8920593261719 911.188232421875,439.8920593261719 911.188232421875,347.9814453125Z" id="3TBEqspNP7Lw5AXSc" type="simple_path" name="http://lore-mbp.local:3000/icons/black_kitty_1024x1024.jpg" stroke="#000000" stroke-width="0" stroke-opacity="1" fill="#bec8c2" fill-opacity="1" stroke-linejoin="miter" stroke-linecap="butt" opacity="1"/><path d="M502.6901550292969,283.4403381347656 621.2700805664062,283.4403381347656 621.2700805664062,439.8923034667969 502.6901550292969,439.8923034667969 502.6901550292969,283.4403381347656Z" id="BR2hGYbFyS5iko9iv" type="simple_path" name="http://lore-mbp.local:3000/icons/black_kitty_1024x1024.jpg" stroke="#000000" stroke-width="0" stroke-opacity="1" fill="#bec8c2" fill-opacity="1" stroke-linejoin="miter" stroke-linecap="butt" opacity="1"/><path d="M659.3204444691735,59.90766941337388 912.4923194691735,59.90766941337388 912.4923194691735,230.52735172538564 659.3204444691735,230.52735172538564 659.3204444691735,59.90766941337388Z" id="fTt22wuAjMqoXzHJv" type="simple_path" name="http://lore-mbp.local:3000/icons/black_kitty_1024x1024.jpg" stroke="#000000" stroke-width="0" stroke-opacity="1" fill="#bec8c2" fill-opacity="1" stroke-linejoin="miter" stroke-linecap="butt" opacity="1"/></g></g></svg>