<svg xmlns="http://www.w3.org/2000/svg" xmlns:xlink="http://www.w3.org/1999/xlink" width="512" height="512" onload="init()" id="vEEpL9nGcRkxE9qNt"><script type="application/javascript"> <![CDATA[ 
function init(){}
 ]]> </script><g id="viewport" transform="matrix(0.5 0 0 0.5 0 0)"><g id="CxGHRqWr75FHCByQJ" type="layer"><title>CxGHRqWr75FHCByQJ</title><path d="M709.03271484375 44.919193267822266C739.4241333007812 57.768680572509766 768.3025512695312 73.4906005859375 795.3280029296875 91.74517059326172C776.0054931640625 121.48141479492188 765.618896484375 134.0288848876953 512.8035888671875 510.1466064453125ZM914.742919921875 205.1979522705078C934.637939453125 231.5216522216797 951.7864990234375 259.576416015625 966.0639038085938 288.8980712890625C934.4620361328125 304.9891662597656 919.1932373046875 310.66229248046875 512.1898803710938 509.98211669921875ZM1012.75390625 446.8585205078125C1016.8216552734375 479.60302734375 1017.645263671875 512.473388671875 1015.34912109375 545.00537109375C979.9354858398438 543.1397094726562 963.8757934570312 540.4183959960938 511.7406005859375 509.53289794921875ZM976.8035888671875 705.1481323242188C963.9541015625 735.53955078125 948.232177734375 764.4180297851562 929.9776000976562 791.4434814453125C900.2413940429688 772.1209716796875 887.6939086914062 761.734375 511.57611083984375 508.919189453125ZM816.5248413085938 910.8584594726562C790.201171875 930.75341796875 762.1463012695312 947.9019775390625 732.8247680664062 962.1793823242188C716.733642578125 930.5775146484375 711.060546875 915.3087158203125 511.7406005859375 508.30548095703125ZM574.8642578125 1008.8694458007812C542.1197509765625 1012.9371948242188 509.249267578125 1013.7609252929688 476.71728515625 1011.4646606445312C478.58294677734375 976.0509643554688 481.30426025390625 959.9912719726562 512.1898803710938 507.856201171875ZM316.57452392578125 972.9191284179688C286.18310546875 960.0696411132812 257.30462646484375 944.34765625 230.27919006347656 926.0930786132812C249.60169982910156 896.3568725585938 259.98828125 883.8093872070312 512.8035888671875 507.6917724609375ZM110.86424255371094 812.6403198242188C90.96922302246094 786.316650390625 73.82066345214844 758.2618408203125 59.54325866699219 728.940185546875C91.14518737792969 712.8490600585938 106.41392517089844 707.1759643554688 513.4172973632812 507.856201171875ZM12.853315353393555 570.979736328125C8.785566329956055 538.2352294921875 7.961957931518555 505.36492919921875 10.258100509643555 472.8328857421875C45.67167282104492 474.69854736328125 61.73136520385742 477.41986083984375 513.8665771484375 508.30548095703125ZM48.80357360839844 312.6900939941406C61.65306091308594 282.2986755371094 77.37498474121094 253.4202423095703 95.62956237792969 226.39479064941406C125.36582946777344 245.7173309326172 137.91331481933594 256.1038818359375 514.031005859375 508.919189453125ZM209.0823516845703 106.97984313964844C235.40602111816406 87.08483123779297 263.46087646484375 69.93630981445312 292.78253173828125 55.65886306762695C308.87359619140625 87.2607650756836 314.54669189453125 102.52955627441406 513.8665771484375 509.53289794921875ZM452.41571044921875 12.314486503601074C480.440185546875 9.267386436462402 542.4114379882812 6.303112506866455 579.46435546875 16.78575897216797L513.6469116210938 508.88818359375C521.1671142578125 488.9637451171875 678 121.45596313476562 709.2294921875 45.06302261352539C708.9713134765625 49.9638786315918 691.0059814453125 115.15287017822266 513.4172973632812 509.98211669921875" name="undefined" id="fFs7wXpY3cBbyzroL" type="complex_path" stroke="#000000" stroke-width="0" stroke-opacity="1" fill="#000000" fill-opacity="0.23827261882258313" stroke-linejoin="miter" stroke-linecap="butt" opacity="1"/><path d="M419.63932406222625,811.8200411409952 164.62488924777313,704.8463472933389 512.1083792380075,199.93542810388578ZM418.5353811911325,811.8200411409952 858.0543326071481,707.4232515902139 512.1083792380075,199.93544336267485Z" id="ZX4yRPyfvP4Mrkt7C" type="simple_path" name="http://lore-mbp.local:3000/icons/black_kitty_1024x1024.jpg" stroke="#000000" stroke-width="7" stroke-opacity="1" fill="#bec8c2" fill-opacity="1" stroke-linejoin="round" stroke-linecap="round" opacity="1"/><path d="M451.44391521245643,605.6378116006581 282.68857463628456,534.8474063272206 512.636450612847,200.72251313874403ZM450.7133854273002,605.6378116006581 741.5654667261283,536.5529727334706 512.636450612847,200.7225283975331Z" id="NEE9KNxsJQxvyrJat" type="simple_path" name="http://lore-mbp.local:3000/icons/black_kitty_1024x1024.jpg" stroke="#000000" stroke-width="7" stroke-opacity="1" fill="#000000" fill-opacity="0.508314920154844" stroke-linejoin="round" stroke-linecap="round" opacity="1"/><path d="M484.67047475687275,380.51724317053674 409.41034292093525,348.946259283818 511.9612157236696,199.93541028479456ZM484.34491323343525,380.51724317053674 614.0574071299196,349.7075202701461 511.9612157236696,199.93542554358362Z" id="FW9RSwrR9Ddwx8bLu" type="simple_path" name="http://lore-mbp.local:3000/icons/black_kitty_1024x1024.jpg" stroke="#000000" stroke-width="7" stroke-opacity="1" fill="#000000" fill-opacity="0.6512784914483939" stroke-linejoin="round" stroke-linecap="round" opacity="1"/></g></g></svg>