<svg xmlns="http://www.w3.org/2000/svg" xmlns:xlink="http://www.w3.org/1999/xlink" width="724" height="512" onload="init()" id="Zs6r8kFHXtsFu89JB"><script type="application/javascript"> <![CDATA[ 
function init(){}
 ]]> </script><g id="viewport" transform="matrix(0.5 0 0 0.5 0 0)"><g id="AaqyDsgyY3spWjgH4" type="layer"><title>AaqyDsgyY3spWjgH4</title><path d="M279.5074073504136 748.2159976710009C313.47441784846046 720.1641788233446 562.824881715648 606.4338931788134 647.1227943133042 594.4232120264696C729.194998903148 579.9720401514696 932.3616248797105 470.9251346338915 1059.4206458758042 467.2720889795946C1233.3030921648667 465.8770694483446 1392.7812415789292 678.1455020655321 1486.6350013445542 751.1747989405321" name="undefined" id="oe6DmrSjPST6TRnqg" type="complex_path" stroke="#568756" stroke-width="21" stroke-opacity="0.5718542851742016" fill="#bec8c2" fill-opacity="1" stroke-linejoin="miter" stroke-linecap="round" opacity="1"/><path d="M824.2508544921875,190.41151428222656" id="QefotsPiELDWdHx5W" type="simple_path" name="undefined" stroke="#000000" stroke-width="0" stroke-opacity="1" fill="#000000" fill-opacity="1" stroke-linejoin="miter" stroke-linecap="butt" opacity="1"/><path d="M-3.406700372695923,733.6544799804688 1448.4989013671875,733.6544799804688 1448.4989013671875,1027.059326171875 -3.406700372695923,1027.059326171875 -3.406700372695923,733.6544799804688" id="hHd43ZghyXHjpgQ22" type="simple_path" name="undefined" stroke="#000000" stroke-width="0" stroke-opacity="1" fill="#bec8c2" fill-opacity="1" stroke-linejoin="miter" stroke-linecap="butt" opacity="1"/><path d="M1175.4912109375,821.0830078125" id="kKxF9ZwtXzdDHW25F" type="simple_path" name="undefined" stroke="#000000" stroke-width="0" stroke-opacity="1" fill="#000000" fill-opacity="1" stroke-linejoin="miter" stroke-linecap="butt" opacity="1"/><path d="M-45.603431701660156 781.5443115234375C-11.647802352905273 751.6770629882812 63.15116882324219 578.7130737304688 147.42071533203125 565.9252319335938C229.4654541015625 550.5382690429688 334.4311218261719 462.4349060058594 460.67803955078125 458.56854248046875C695.8182983398438 457.8819274902344 829.8258666992188 636.2740478515625 976.1634521484375 686.68896484375" name="undefined" id="ZfZdqzwEvCsYK6Nma" type="complex_path" stroke="#568756" stroke-width="21" stroke-opacity="0.5718542851742016" fill="#bec8c2" fill-opacity="1" stroke-linejoin="miter" stroke-linecap="round" opacity="1"/><text xml:space="preserve" id="R8EHgNtFGknkT4ZSv" x="717.8968216738002" y="683.780080552146" stroke="#000000" stroke-width="0" stroke-opacity="1" fill="#000000" fill-opacity="1" stroke-linejoin="round" stroke-linecap="round" opacity="1" font-size="39" font-family="Sans-serif" font-weight="bold" text-anchor="middle"><tspan dy="49.53" x="717.8968216738002">and resolution-independent vectorial tools (SVG and Geo editing)</tspan></text><g id="iktDwa3zjv94f2imF" type="simpleGroup" transform="matrix(0.5,0,0,0.5,0,0)"><path d="M2149.65087890625 589.9073486328125C2156.067626953125 680.2363891601562 1730.050048828125 713.969482421875 1693.46875 809.9657592773438C969.5848999023438 781.3519897460938 1428.8558349609375 527.9120483398438 1567.85009765625 502.08013916015625C1674.5958251953125 466.99786376953125 801.6443481445312 100.45178985595703 928.7894897460938 30.05803871154785C1014.0363159179688 138.3029327392578 1555.5440673828125 153.11471557617188 1798.4508056640625 30.53708839416504C1503.8804931640625 249.86065673828125 1650.6768798828125 622.905517578125 1811.170654296875 500.327880859375Z" name="http://lore-mbp.local:3000/icons/black_kitty_1024x1024.jpg" id="yg8tcd2hLTqioW4sp" type="complex_path" stroke="#6f937d" stroke-width="8" stroke-opacity="1" fill="#bec8c2" fill-opacity="0.6989330152129105" stroke-linejoin="miter" stroke-linecap="butt" opacity="0.8577814277612993"/><path d="M1555.544189453125 131.58688354492188C1567.4337158203125 131.58688354492188 1577.072021484375 141.22523498535156 1577.072021484375 153.11474609375C1577.072021484375 165.00425720214844 1567.4337158203125 174.6426239013672 1555.544189453125 174.6426239013672C1543.6546630859375 174.6426239013672 1534.0162353515625 165.00425720214844 1534.0162353515625 153.11474609375C1534.0162353515625 141.22523498535156 1543.6546630859375 131.58688354492188 1555.544189453125 131.58688354492188Z" name="undefined" id="hmBaTsJMaQgpMhYLM" type="complex_path" stroke="#ffffff" stroke-width="4.305572920997334" stroke-opacity="1" fill="#999999" fill-opacity="1" stroke-linejoin="miter" stroke-linecap="butt" opacity="0.6"/><path d="M1674.5958251953125,466.9978332519531 1567.85009765625,502.0801086425781" id="5NM8Wc6TECfi274Py" type="simple_path" name="undefined" stroke="#000000" stroke-width="2.152786460498667" stroke-opacity="1" fill="#000000" fill-opacity="1" stroke-linejoin="miter" stroke-linecap="butt" opacity="0.6"/><path d="M1428.855712890625,527.9119873046875 1567.85009765625,502.0801086425781" id="z8FtmmZENPJwEq2yP" type="simple_path" name="undefined" stroke="#000000" stroke-width="2.152786460498667" stroke-opacity="1" fill="#000000" fill-opacity="1" stroke-linejoin="miter" stroke-linecap="butt" opacity="0.6"/><path d="M1503.8804931640625 228.33277893066406C1515.77001953125 228.33277893066406 1525.4083251953125 237.9711151123047 1525.4083251953125 249.8606414794922C1525.4083251953125 261.7501525878906 1515.77001953125 271.38848876953125 1503.8804931640625 271.38848876953125C1491.990966796875 271.38848876953125 1482.3525390625 261.7501525878906 1482.3525390625 249.8606414794922C1482.3525390625 237.9711151123047 1491.990966796875 228.33277893066406 1503.8804931640625 228.33277893066406Z" name="undefined" id="yHxrfeCEZE6nw6cQ4" type="complex_path" stroke="#ffffff" stroke-width="4.305572920997334" stroke-opacity="1" fill="#993300" fill-opacity="1" stroke-linejoin="miter" stroke-linecap="butt" opacity="0.6"/><path d="M1428.8558349609375 506.3841247558594C1440.745361328125 506.3841247558594 1450.3836669921875 516.0224609375 1450.3836669921875 527.9119873046875C1450.3836669921875 539.801513671875 1440.745361328125 549.4398803710938 1428.8558349609375 549.4398803710938C1416.96630859375 549.4398803710938 1407.327880859375 539.801513671875 1407.327880859375 527.9119873046875C1407.327880859375 516.0224609375 1416.96630859375 506.3841247558594 1428.8558349609375 506.3841247558594Z" name="undefined" id="jrun9F9enmd6XNTe2" type="complex_path" stroke="#ffffff" stroke-width="4.305572920997334" stroke-opacity="1" fill="#993300" fill-opacity="1" stroke-linejoin="miter" stroke-linecap="butt" opacity="0.6"/><path d="M1980.41064453125 530.0480346679688C1988.7332763671875 530.0480346679688 1995.4801025390625 536.794921875 1995.4801025390625 545.1175537109375C1995.4801025390625 553.440185546875 1988.7332763671875 560.1870727539062 1980.41064453125 560.1870727539062C1972.0880126953125 560.1870727539062 1965.3411865234375 553.440185546875 1965.3411865234375 545.1175537109375C1965.3411865234375 536.794921875 1972.0880126953125 530.0480346679688 1980.41064453125 530.0480346679688Z" name="undefined" id="sHwjmm5esGGp2fiJm" type="complex_path" stroke="#000000" stroke-width="4.305572920997334" stroke-opacity="1" fill="#ffffff" fill-opacity="1" stroke-linejoin="miter" stroke-linecap="butt" opacity="0.6"/><path d="M801.6443481445312 78.92393493652344C813.5338134765625 78.92393493652344 823.1721801757812 88.56228637695312 823.1721801757812 100.45179748535156C823.1721801757812 112.34130859375 813.5338134765625 121.97966003417969 801.6443481445312 121.97966003417969C789.7548217773438 121.97966003417969 780.116455078125 112.34130859375 780.116455078125 100.45179748535156C780.116455078125 88.56228637695312 789.7548217773438 78.92393493652344 801.6443481445312 78.92393493652344Z" name="undefined" id="FK5jP3YKg4XfKJwom" type="complex_path" stroke="#ffffff" stroke-width="4.305572920997334" stroke-opacity="1" fill="#993300" fill-opacity="1" stroke-linejoin="miter" stroke-linecap="butt" opacity="0.6"/><path d="M2149.650634765625 568.37939453125C2161.540283203125 568.37939453125 2171.178466796875 578.0177612304688 2171.178466796875 589.9072875976562C2171.178466796875 601.7968139648438 2161.540283203125 611.4351806640625 2149.650634765625 611.4351806640625C2137.76123046875 611.4351806640625 2128.122802734375 601.7968139648438 2128.122802734375 589.9072875976562C2128.122802734375 578.0177612304688 2137.76123046875 568.37939453125 2149.650634765625 568.37939453125Z" name="undefined" id="JdgPs3ymBTiYED6pt" type="complex_path" stroke="#ffffff" stroke-width="4.305572920997334" stroke-opacity="1" fill="#007fff" fill-opacity="1" stroke-linejoin="miter" stroke-linecap="butt" opacity="0.6"/><path d="M1014.036376953125 116.77508544921875C1025.92578125 116.77508544921875 1035.564208984375 126.41343688964844 1035.564208984375 138.30294799804688C1035.564208984375 150.1924591064453 1025.92578125 159.830810546875 1014.036376953125 159.830810546875C1002.1469116210938 159.830810546875 992.508544921875 150.1924591064453 992.508544921875 138.30294799804688C992.508544921875 126.41343688964844 1002.1469116210938 116.77508544921875 1014.036376953125 116.77508544921875Z" name="undefined" id="MSKXuc3FduwLvqrnc" type="complex_path" stroke="#ffffff" stroke-width="4.305572920997334" stroke-opacity="1" fill="#993300" fill-opacity="1" stroke-linejoin="miter" stroke-linecap="butt" opacity="0.6"/><path d="M1014.0363159179688,138.3029327392578 928.7894897460938,30.058040618896484" id="Ni7SACZpdAuvqLgm5" type="simple_path" name="undefined" stroke="#000000" stroke-width="2.152786460498667" stroke-opacity="1" fill="#000000" fill-opacity="1" stroke-linejoin="miter" stroke-linecap="butt" opacity="0.6"/><path d="M969.5848999023438 759.8240356445312C981.4744262695312 759.8240356445312 991.11279296875 769.46240234375 991.11279296875 781.3519287109375C991.11279296875 793.241455078125 981.4744262695312 802.8798217773438 969.5848999023438 802.8798217773438C957.6953735351562 802.8798217773438 948.0570678710938 793.241455078125 948.0570678710938 781.3519287109375C948.0570678710938 769.46240234375 957.6953735351562 759.8240356445312 969.5848999023438 759.8240356445312Z" name="undefined" id="7RvGmWomqSRxmgqvm" type="complex_path" stroke="#ffffff" stroke-width="4.305572920997334" stroke-opacity="1" fill="#993300" fill-opacity="1" stroke-linejoin="miter" stroke-linecap="butt" opacity="0.6"/><path d="M1674.595947265625 445.4699401855469C1686.4854736328125 445.4699401855469 1696.123779296875 455.1083679199219 1696.123779296875 466.9978942871094C1696.123779296875 478.8874206542969 1686.4854736328125 488.5257873535156 1674.595947265625 488.5257873535156C1662.7064208984375 488.5257873535156 1653.0679931640625 478.8874206542969 1653.0679931640625 466.9978942871094C1653.0679931640625 455.1083679199219 1662.7064208984375 445.4699401855469 1674.595947265625 445.4699401855469Z" name="undefined" id="e3emaFg7xfe8iDwCB" type="complex_path" stroke="#ffffff" stroke-width="4.305572920997334" stroke-opacity="1" fill="#993300" fill-opacity="1" stroke-linejoin="miter" stroke-linecap="butt" opacity="0.6"/><path d="M1235.345947265625 261.2859191894531C1243.6685791015625 261.2859191894531 1250.41552734375 268.03277587890625 1250.41552734375 276.3554382324219C1250.41552734375 284.6781005859375 1243.6685791015625 291.4249572753906 1235.345947265625 291.4249572753906C1227.0233154296875 291.4249572753906 1220.2764892578125 284.6781005859375 1220.2764892578125 276.3554382324219C1220.2764892578125 268.03277587890625 1227.0233154296875 261.2859191894531 1235.345947265625 261.2859191894531Z" name="undefined" id="qJnQLbd32WRc96fnE" type="complex_path" stroke="#000000" stroke-width="4.305572920997334" stroke-opacity="1" fill="#ffffff" fill-opacity="1" stroke-linejoin="miter" stroke-linecap="butt" opacity="0.6"/><path d="M969.5848999023438,781.3519287109375 1693.46875,809.9656982421875" id="Pb3nsSwah7CW2dQ92" type="simple_path" name="undefined" stroke="#000000" stroke-width="2.152786460498667" stroke-opacity="1" fill="#000000" fill-opacity="1" stroke-linejoin="miter" stroke-linecap="butt" opacity="0.6"/><path d="M928.78955078125 8.530177116394043C940.6790771484375 8.530177116394043 950.3174438476562 18.168527603149414 950.3174438476562 30.05803871154785C950.3174438476562 41.94753646850586 940.6790771484375 51.58588790893555 928.78955078125 51.58588790893555C916.9000244140625 51.58588790893555 907.26171875 41.94753646850586 907.26171875 30.05803871154785C907.26171875 18.168527603149414 916.9000244140625 8.530177116394043 928.78955078125 8.530177116394043Z" name="undefined" id="5bygZxywasxv2baFC" type="complex_path" stroke="#ffffff" stroke-width="4.305572920997334" stroke-opacity="1" fill="#000000" fill-opacity="1" stroke-linejoin="miter" stroke-linecap="butt" opacity="0.6"/><path d="M2156.067626953125,680.236328125 2149.650634765625,589.9072875976562" id="SftYyYowntgTaz7Bs" type="simple_path" name="undefined" stroke="#000000" stroke-width="2.152786460498667" stroke-opacity="1" fill="#000000" fill-opacity="1" stroke-linejoin="miter" stroke-linecap="butt" opacity="0.6"/><path d="M1555.5440673828125,153.11471557617188 1798.4508056640625,30.537092208862305" id="7rtbLQ6E8WjWygf9t" type="simple_path" name="undefined" stroke="#000000" stroke-width="2.152786460498667" stroke-opacity="1" fill="#000000" fill-opacity="1" stroke-linejoin="miter" stroke-linecap="butt" opacity="0.6"/><path d="M1650.6768798828125 601.3775634765625C1662.56640625 601.3775634765625 1672.2047119140625 611.0159301757812 1672.2047119140625 622.9054565429688C1672.2047119140625 634.7949829101562 1662.56640625 644.433349609375 1650.6768798828125 644.433349609375C1638.787353515625 644.433349609375 1629.14892578125 634.7949829101562 1629.14892578125 622.9054565429688C1629.14892578125 611.0159301757812 1638.787353515625 601.3775634765625 1650.6768798828125 601.3775634765625Z" name="undefined" id="2uc3q4JRMPdBR3dLb" type="complex_path" stroke="#ffffff" stroke-width="4.305572920997334" stroke-opacity="1" fill="#993300" fill-opacity="1" stroke-linejoin="miter" stroke-linecap="butt" opacity="0.6"/><path d="M2156.0673828125 658.7084350585938C2167.95703125 658.7084350585938 2177.59521484375 668.3468017578125 2177.59521484375 680.236328125C2177.59521484375 692.1258544921875 2167.95703125 701.7642211914062 2156.0673828125 701.7642211914062C2144.177978515625 701.7642211914062 2134.53955078125 692.1258544921875 2134.53955078125 680.236328125C2134.53955078125 668.3468017578125 2144.177978515625 658.7084350585938 2156.0673828125 658.7084350585938Z" name="undefined" id="CZdjdrJiKWYxwtu35" type="complex_path" stroke="#ffffff" stroke-width="4.305572920997334" stroke-opacity="1" fill="#993300" fill-opacity="1" stroke-linejoin="miter" stroke-linecap="butt" opacity="0.6"/><path d="M801.6443481445312,100.45178985595703 928.7894897460938,30.058040618896484" id="rwnAWAWc5fA9Lcckb" type="simple_path" name="undefined" stroke="#000000" stroke-width="2.152786460498667" stroke-opacity="1" fill="#000000" fill-opacity="1" stroke-linejoin="miter" stroke-linecap="butt" opacity="0.6"/><path d="M1811.1705322265625 478.7999572753906C1823.06005859375 478.7999572753906 1832.6983642578125 488.4383239746094 1832.6983642578125 500.3278503417969C1832.6983642578125 512.2173461914062 1823.06005859375 521.855712890625 1811.1705322265625 521.855712890625C1799.281005859375 521.855712890625 1789.6427001953125 512.2173461914062 1789.6427001953125 500.3278503417969C1789.6427001953125 488.4383239746094 1799.281005859375 478.7999572753906 1811.1705322265625 478.7999572753906Z" name="undefined" id="j2CrPwWK35hD5odik" type="complex_path" stroke="#ffffff" stroke-width="4.305572920997334" stroke-opacity="1" fill="#000000" fill-opacity="1" stroke-linejoin="miter" stroke-linecap="butt" opacity="0.6"/><path d="M1798.45068359375 9.00922679901123C1810.3402099609375 9.00922679901123 1819.9786376953125 18.6475772857666 1819.9786376953125 30.53708839416504C1819.9786376953125 42.42658615112305 1810.3402099609375 52.064937591552734 1798.45068359375 52.064937591552734C1786.5611572265625 52.064937591552734 1776.9228515625 42.42658615112305 1776.9228515625 30.53708839416504C1776.9228515625 18.6475772857666 1786.5611572265625 9.00922679901123 1798.45068359375 9.00922679901123Z" name="undefined" id="gES4dhuRBf27qeyMc" type="complex_path" stroke="#ffffff" stroke-width="4.305572920997334" stroke-opacity="1" fill="#000000" fill-opacity="1" stroke-linejoin="miter" stroke-linecap="butt" opacity="0.7"/><path d="M1503.8804931640625,249.86065673828125 1798.45068359375,30.537092208862305" id="e9x3Xrnx27pxsqQjT" type="simple_path" name="undefined" stroke="#000000" stroke-width="2.152786460498667" stroke-opacity="1" fill="#000000" fill-opacity="1" stroke-linejoin="miter" stroke-linecap="butt" opacity="0.6"/><path d="M1925.0057373046875 686.3897094726562C1933.328369140625 686.3897094726562 1940.0751953125 693.1365966796875 1940.0751953125 701.459228515625C1940.0751953125 709.7818603515625 1933.328369140625 716.5287475585938 1925.0057373046875 716.5287475585938C1916.68310546875 716.5287475585938 1909.936279296875 709.7818603515625 1909.936279296875 701.459228515625C1909.936279296875 693.1365966796875 1916.68310546875 686.3897094726562 1925.0057373046875 686.3897094726562Z" name="undefined" id="ydWc3dQxFBkfCF5gg" type="complex_path" stroke="#000000" stroke-width="4.305572920997334" stroke-opacity="1" fill="#ffffff" fill-opacity="1" stroke-linejoin="miter" stroke-linecap="butt" opacity="0.6"/><path d="M1693.4688720703125 788.4378051757812C1705.3583984375 788.4378051757812 1714.9967041015625 798.076171875 1714.9967041015625 809.9656982421875C1714.9967041015625 821.855224609375 1705.3583984375 831.4935913085938 1693.4688720703125 831.4935913085938C1681.579345703125 831.4935913085938 1671.94091796875 821.855224609375 1671.94091796875 809.9656982421875C1671.94091796875 798.076171875 1681.579345703125 788.4378051757812 1693.4688720703125 788.4378051757812Z" name="undefined" id="CwDHkcHQa2qLbnMN3" type="complex_path" stroke="#ffffff" stroke-width="4.305572920997334" stroke-opacity="1" fill="#000000" fill-opacity="1" stroke-linejoin="miter" stroke-linecap="butt" opacity="0.6"/><path d="M1650.677001953125,622.9054565429688 1811.170654296875,500.3278503417969" id="5cwfsbzjhpdHrGp52" type="simple_path" name="undefined" stroke="#000000" stroke-width="2.152786460498667" stroke-opacity="1" fill="#000000" fill-opacity="1" stroke-linejoin="miter" stroke-linecap="butt" opacity="0.6"/><path d="M1567.8502197265625 480.5522155761719C1579.73974609375 480.5522155761719 1589.3780517578125 490.1905822753906 1589.3780517578125 502.0801086425781C1589.3780517578125 513.9696044921875 1579.73974609375 523.6079711914062 1567.8502197265625 523.6079711914062C1555.960693359375 523.6079711914062 1546.322265625 513.9696044921875 1546.322265625 502.0801086425781C1546.322265625 490.1905822753906 1555.960693359375 480.5522155761719 1567.8502197265625 480.5522155761719Z" name="undefined" id="tLXWSenRgf3gdrBKh" type="complex_path" stroke="#ffffff" stroke-width="4.305572920997334" stroke-opacity="1" fill="#000000" fill-opacity="1" stroke-linejoin="miter" stroke-linecap="butt" opacity="0.6"/><path d="M1360.51611328125 101.42869567871094C1368.8387451171875 101.42869567871094 1375.585693359375 108.175537109375 1375.585693359375 116.49819946289062C1375.585693359375 124.82086181640625 1368.8387451171875 131.5677032470703 1360.51611328125 131.5677032470703C1352.1934814453125 131.5677032470703 1345.4466552734375 124.82086181640625 1345.4466552734375 116.49819946289062C1345.4466552734375 108.175537109375 1352.1934814453125 101.42869567871094 1360.51611328125 101.42869567871094Z" name="undefined" id="tn5afwyyXGxwv93js" type="complex_path" stroke="#000000" stroke-width="4.305572920997334" stroke-opacity="1" fill="#ffffff" fill-opacity="1" stroke-linejoin="miter" stroke-linecap="butt" opacity="0.6"/><path d="M1730.0501708984375 692.4415283203125C1741.939697265625 692.4415283203125 1751.5780029296875 702.0798950195312 1751.5780029296875 713.9694213867188C1751.5780029296875 725.8589477539062 1741.939697265625 735.497314453125 1730.0501708984375 735.497314453125C1718.16064453125 735.497314453125 1708.522216796875 725.8589477539062 1708.522216796875 713.9694213867188C1708.522216796875 702.0798950195312 1718.16064453125 692.4415283203125 1730.0501708984375 692.4415283203125Z" name="undefined" id="XTkgJqBMNEKibn46B" type="complex_path" stroke="#ffffff" stroke-width="4.305572920997334" stroke-opacity="1" fill="#993300" fill-opacity="1" stroke-linejoin="miter" stroke-linecap="butt" opacity="0.6"/><path d="M1630.31103515625 297.1962890625C1638.6336669921875 297.1962890625 1645.3804931640625 303.9431457519531 1645.3804931640625 312.26580810546875C1645.3804931640625 320.5884704589844 1638.6336669921875 327.3353271484375 1630.31103515625 327.3353271484375C1621.9884033203125 327.3353271484375 1615.241455078125 320.5884704589844 1615.241455078125 312.26580810546875C1615.241455078125 303.9431457519531 1621.9884033203125 297.1962890625 1630.31103515625 297.1962890625Z" name="undefined" id="5Nafe7agcwvDAgneo" type="complex_path" stroke="#000000" stroke-width="4.305572920997334" stroke-opacity="1" fill="#ffffff" fill-opacity="1" stroke-linejoin="miter" stroke-linecap="butt" opacity="0.6"/><path d="M1315.3468017578125 715.7933959960938C1323.66943359375 715.7933959960938 1330.416259765625 722.540283203125 1330.416259765625 730.8629150390625C1330.416259765625 739.185546875 1323.66943359375 745.9324340820312 1315.3468017578125 745.9324340820312C1307.024169921875 745.9324340820312 1300.2772216796875 739.185546875 1300.2772216796875 730.8629150390625C1300.2772216796875 722.540283203125 1307.024169921875 715.7933959960938 1315.3468017578125 715.7933959960938Z" name="undefined" id="ANv5qsbMRcHW9Lhsr" type="complex_path" stroke="#000000" stroke-width="4.305572920997334" stroke-opacity="1" fill="#ffffff" fill-opacity="1" stroke-linejoin="miter" stroke-linecap="butt" opacity="0.6"/><path d="M1730.050048828125,713.9694213867188 1693.46875,809.9656982421875" id="YjAbWa95NiTzART9T" type="simple_path" name="undefined" stroke="#000000" stroke-width="2.152786460498667" stroke-opacity="1" fill="#000000" fill-opacity="1" stroke-linejoin="miter" stroke-linecap="butt" opacity="0.6"/></g></g><g id="tATMJateqJdkXwetB" type="layer"><title>tATMJateqJdkXwetB</title></g></g></svg>